<?xml version="1.0" encoding="utf-8" standalone="no"?>
<!DOCTYPE svg PUBLIC "-//W3C//DTD SVG 1.1//EN"
  "http://www.w3.org/Graphics/SVG/1.1/DTD/svg11.dtd">
<svg xmlns:xlink="http://www.w3.org/1999/xlink" width="482.12625pt" height="337.518437pt" viewBox="0 0 482.12625 337.518437" xmlns="http://www.w3.org/2000/svg" version="1.1">
 <metadata>
  <rdf:RDF xmlns:dc="http://purl.org/dc/elements/1.1/" xmlns:cc="http://creativecommons.org/ns#" xmlns:rdf="http://www.w3.org/1999/02/22-rdf-syntax-ns#">
   <cc:Work>
    <dc:type rdf:resource="http://purl.org/dc/dcmitype/StillImage"/>
    <dc:date>2025-08-28T05:59:31.117125</dc:date>
    <dc:format>image/svg+xml</dc:format>
    <dc:creator>
     <cc:Agent>
      <dc:title>Matplotlib v3.10.5, https://matplotlib.org/</dc:title>
     </cc:Agent>
    </dc:creator>
   </cc:Work>
  </rdf:RDF>
 </metadata>
 <defs>
  <style type="text/css">*{stroke-linejoin: round; stroke-linecap: butt}</style>
 </defs>
 <g id="figure_1">
  <g id="patch_1">
   <path d="M 0 337.518437 
L 482.12625 337.518437 
L 482.12625 0 
L 0 0 
z
" style="fill: #ffffff"/>
  </g>
  <g id="axes_1">
   <g id="patch_2">
    <path d="M 51.8 279.958312 
L 482.12625 279.958312 
L 482.12625 35.317562 
L 51.8 35.317562 
z
" style="fill: #ffffff"/>
   </g>
   <g id="patch_3">
    <path d="M 71.360284 279.958312 
L 114.827582 279.958312 
L 114.827582 53.574335 
L 71.360284 53.574335 
z
" clip-path="url(#p658dfcd20d)" style="fill: #1f77b4"/>
   </g>
   <g id="patch_4">
    <path d="M 158.29488 279.958312 
L 201.762178 279.958312 
L 201.762178 202.36703 
L 158.29488 202.36703 
z
" clip-path="url(#p658dfcd20d)" style="fill: #1f77b4"/>
   </g>
   <g id="patch_5">
    <path d="M 245.229476 279.958312 
L 288.696774 279.958312 
L 288.696774 208.7569 
L 245.229476 208.7569 
z
" clip-path="url(#p658dfcd20d)" style="fill: #1f77b4"/>
   </g>
   <g id="patch_6">
    <path d="M 332.164072 279.958312 
L 375.63137 279.958312 
L 375.63137 226.100834 
L 332.164072 226.100834 
z
" clip-path="url(#p658dfcd20d)" style="fill: #1f77b4"/>
   </g>
   <g id="patch_7">
    <path d="M 419.098668 279.958312 
L 462.565966 279.958312 
L 462.565966 233.403543 
L 419.098668 233.403543 
z
" clip-path="url(#p658dfcd20d)" style="fill: #1f77b4"/>
   </g>
   <g id="matplotlib.axis_1">
    <g id="xtick_1">
     <g id="line2d_1">
      <defs>
       <path id="m80bbb099e0" d="M 0 0 
L 0 3.5 
" style="stroke: #000000; stroke-width: 0.8"/>
      </defs>
      <g>
       <use xlink:href="#m80bbb099e0" x="93.093933" y="279.958312" style="stroke: #000000; stroke-width: 0.8"/>
      </g>
     </g>
     <g id="text_1">
      <!-- Strict -->
      <g transform="translate(74.675496 298.568781) scale(0.17 -0.17)">
       <defs>
        <path id="NimbusRomNo9L-Reg-53" d="M 2861 4326 
L 2726 4326 
C 2701 4179 2630 4109 2522 4109 
C 2458 4109 2349 4134 2240 4186 
C 2003 4275 1766 4326 1555 4326 
C 1286 4326 1005 4218 794 4032 
C 570 3834 454 3565 454 3232 
C 454 2720 736 2362 1453 1984 
C 1914 1734 2246 1478 2406 1235 
C 2464 1152 2496 1018 2496 858 
C 2496 435 2176 141 1709 141 
C 1133 141 736 493 416 1274 
L 269 1274 
L 461 -83 
L 602 -83 
C 608 38 685 128 781 128 
C 851 128 960 102 1082 58 
C 1325 -38 1587 -90 1837 -90 
C 2579 -90 3142 416 3142 1075 
C 3142 1600 2790 2016 1946 2477 
C 1274 2842 1005 3123 1005 3475 
C 1005 3827 1274 4064 1670 4064 
C 1958 4064 2227 3942 2451 3712 
C 2650 3507 2739 3341 2842 2963 
L 3002 2963 
L 2861 4326 
z
" transform="scale(0.015625)"/>
        <path id="NimbusRomNo9L-Reg-74" d="M 1658 2880 
L 1011 2880 
L 1011 3622 
C 1011 3686 998 3706 966 3706 
C 595 3168 403 2950 218 2842 
C 147 2797 109 2758 109 2720 
C 109 2701 115 2688 134 2675 
L 474 2675 
L 474 749 
C 474 211 666 -64 1043 -64 
C 1357 -64 1600 90 1811 422 
L 1728 493 
C 1587 326 1485 269 1344 269 
C 1107 269 1011 442 1011 845 
L 1011 2675 
L 1658 2675 
L 1658 2880 
z
" transform="scale(0.015625)"/>
        <path id="NimbusRomNo9L-Reg-72" d="M 32 0 
L 1568 0 
L 1568 96 
C 1139 109 1037 198 1024 576 
L 1024 2016 
C 1024 2221 1293 2541 1472 2541 
C 1510 2541 1568 2509 1638 2445 
C 1741 2349 1811 2317 1894 2317 
C 2048 2317 2144 2426 2144 2605 
C 2144 2816 2010 2944 1792 2944 
C 1523 2944 1338 2803 1024 2342 
L 1024 2931 
L 992 2944 
C 653 2803 422 2720 45 2598 
L 45 2496 
C 134 2515 192 2522 269 2522 
C 429 2522 486 2419 486 2138 
L 486 538 
C 474 205 435 166 32 96 
L 32 0 
z
" transform="scale(0.015625)"/>
        <path id="NimbusRomNo9L-Reg-69" d="M 147 0 
L 1664 0 
L 1664 96 
C 1242 128 1197 186 1190 653 
L 1190 2925 
L 1165 2944 
L 173 2592 
L 173 2496 
L 224 2502 
C 301 2515 384 2522 442 2522 
C 595 2522 653 2419 653 2138 
L 653 653 
C 640 179 582 115 147 96 
L 147 0 
z
M 864 4371 
C 691 4371 544 4224 544 4045 
C 544 3859 685 3718 864 3718 
C 1056 3718 1197 3859 1197 4045 
C 1197 4230 1050 4371 864 4371 
z
" transform="scale(0.015625)"/>
        <path id="NimbusRomNo9L-Reg-63" d="M 2547 998 
C 2240 550 2010 397 1645 397 
C 1056 397 653 909 653 1645 
C 653 2310 1005 2758 1523 2758 
C 1754 2758 1837 2688 1901 2451 
L 1939 2310 
C 1990 2125 2106 2016 2246 2016 
C 2413 2016 2547 2138 2547 2285 
C 2547 2643 2099 2944 1562 2944 
C 1248 2944 922 2816 659 2586 
C 339 2304 160 1869 160 1357 
C 160 531 666 -64 1376 -64 
C 1664 -64 1920 38 2150 237 
C 2323 384 2445 563 2637 941 
L 2547 998 
z
" transform="scale(0.015625)"/>
       </defs>
       <use xlink:href="#NimbusRomNo9L-Reg-53"/>
       <use xlink:href="#NimbusRomNo9L-Reg-74" transform="translate(55.599991 0)"/>
       <use xlink:href="#NimbusRomNo9L-Reg-72" transform="translate(83.399979 0)"/>
       <use xlink:href="#NimbusRomNo9L-Reg-69" transform="translate(116.699966 0)"/>
       <use xlink:href="#NimbusRomNo9L-Reg-63" transform="translate(144.499954 0)"/>
       <use xlink:href="#NimbusRomNo9L-Reg-74" transform="translate(188.899948 0)"/>
      </g>
      <!-- Peer -->
      <g transform="translate(77.989167 316.190875) scale(0.17 -0.17)">
       <defs>
        <path id="NimbusRomNo9L-Reg-50" d="M 102 4115 
C 576 4064 634 4006 640 3539 
L 640 768 
C 634 224 589 166 102 122 
L 102 0 
L 1894 0 
L 1894 122 
C 1389 134 1299 224 1293 698 
L 1293 1862 
C 1459 1850 1568 1843 1734 1843 
C 2240 1843 2579 1907 2854 2061 
C 3238 2266 3469 2656 3469 3078 
C 3469 3347 3379 3590 3206 3776 
C 2950 4058 2394 4237 1792 4237 
L 102 4237 
L 102 4115 
z
M 1293 3782 
C 1293 3955 1338 4000 1510 4000 
C 2374 4000 2771 3699 2771 3040 
C 2771 2419 2394 2099 1658 2099 
C 1530 2099 1440 2106 1293 2118 
L 1293 3782 
z
" transform="scale(0.015625)"/>
        <path id="NimbusRomNo9L-Reg-65" d="M 2650 1050 
C 2342 563 2067 378 1658 378 
C 1293 378 1018 563 832 928 
C 717 1171 672 1376 659 1773 
L 2630 1773 
C 2579 2189 2515 2374 2355 2579 
C 2163 2810 1869 2944 1536 2944 
C 1216 2944 915 2829 672 2611 
C 371 2349 198 1894 198 1370 
C 198 486 659 -64 1395 -64 
C 2010 -64 2483 314 2752 1005 
L 2650 1050 
z
M 672 1978 
C 742 2483 960 2714 1350 2714 
C 1741 2714 1894 2534 1978 1978 
L 672 1978 
z
" transform="scale(0.015625)"/>
       </defs>
       <use xlink:href="#NimbusRomNo9L-Reg-50"/>
       <use xlink:href="#NimbusRomNo9L-Reg-65" transform="translate(55.599991 0)"/>
       <use xlink:href="#NimbusRomNo9L-Reg-65" transform="translate(99.999985 0)"/>
       <use xlink:href="#NimbusRomNo9L-Reg-72" transform="translate(144.399979 0)"/>
      </g>
      <!-- HTTP -->
      <g transform="translate(71.845261 333.812969) scale(0.17 -0.17)">
       <defs>
        <path id="NimbusRomNo9L-Reg-48" d="M 122 0 
L 1901 0 
L 1901 122 
C 1421 160 1344 237 1338 698 
L 1338 2016 
L 3277 2016 
L 3277 768 
C 3270 224 3213 154 2714 122 
L 2714 0 
L 4493 0 
L 4493 122 
C 4013 160 3936 237 3930 698 
L 3930 3539 
C 3936 4006 4000 4070 4493 4115 
L 4493 4237 
L 2714 4237 
L 2714 4115 
C 3206 4077 3270 4013 3277 3539 
L 3277 2298 
L 1338 2298 
L 1338 3539 
C 1344 4006 1408 4070 1901 4115 
L 1901 4237 
L 122 4237 
L 122 4115 
C 614 4077 678 4013 685 3539 
L 685 768 
C 678 224 621 154 122 122 
L 122 0 
z
" transform="scale(0.015625)"/>
        <path id="NimbusRomNo9L-Reg-54" d="M 2893 122 
C 2368 147 2285 230 2278 698 
L 2278 3968 
L 2624 3968 
C 3366 3955 3501 3846 3642 3149 
L 3795 3149 
L 3757 4237 
L 147 4237 
L 109 3149 
L 262 3149 
C 410 3846 544 3955 1280 3968 
L 1626 3968 
L 1626 768 
C 1619 218 1562 154 1024 122 
L 1024 0 
L 2893 0 
L 2893 122 
z
" transform="scale(0.015625)"/>
       </defs>
       <use xlink:href="#NimbusRomNo9L-Reg-48"/>
       <use xlink:href="#NimbusRomNo9L-Reg-54" transform="translate(72.199982 0)"/>
       <use xlink:href="#NimbusRomNo9L-Reg-54" transform="translate(133.299973 0)"/>
       <use xlink:href="#NimbusRomNo9L-Reg-50" transform="translate(194.399963 0)"/>
      </g>
     </g>
    </g>
    <g id="xtick_2">
     <g id="line2d_2">
      <g>
       <use xlink:href="#m80bbb099e0" x="180.028529" y="279.958312" style="stroke: #000000; stroke-width: 0.8"/>
      </g>
     </g>
     <g id="text_2">
      <!-- Permissive -->
      <g transform="translate(142.721498 298.568781) scale(0.17 -0.17)">
       <defs>
        <path id="NimbusRomNo9L-Reg-6d" d="M 102 0 
L 1523 0 
L 1523 96 
C 1197 102 1094 173 1088 429 
L 1088 2234 
C 1088 2246 1139 2310 1184 2355 
C 1344 2502 1619 2611 1843 2611 
C 2125 2611 2266 2387 2266 1939 
L 2266 550 
C 2253 186 2189 115 1830 96 
L 1830 0 
L 3264 0 
L 3264 96 
C 2906 96 2816 198 2803 608 
L 2803 2221 
C 2995 2496 3200 2611 3501 2611 
C 3866 2611 3981 2438 3981 1907 
L 3981 557 
C 3968 179 3930 134 3558 96 
L 3558 0 
L 4960 0 
L 4960 96 
L 4794 109 
C 4589 141 4518 237 4518 486 
L 4518 1805 
C 4518 2560 4269 2944 3776 2944 
C 3398 2944 3078 2778 2733 2406 
C 2618 2771 2400 2944 2054 2944 
C 1766 2944 1600 2861 1062 2451 
L 1062 2931 
L 1018 2944 
C 691 2822 474 2752 122 2656 
L 122 2547 
C 205 2566 256 2573 326 2573 
C 493 2573 550 2470 550 2163 
L 550 544 
C 538 186 454 96 102 96 
L 102 0 
z
" transform="scale(0.015625)"/>
        <path id="NimbusRomNo9L-Reg-73" d="M 2016 2010 
L 1990 2886 
L 1920 2886 
C 1882 2835 1850 2816 1818 2816 
C 1779 2816 1715 2829 1645 2861 
C 1498 2912 1350 2944 1197 2944 
C 691 2944 326 2611 326 2150 
C 326 1792 531 1536 1075 1229 
L 1446 1018 
C 1670 890 1779 736 1779 538 
C 1779 256 1574 77 1248 77 
C 806 77 582 320 435 973 
L 333 973 
L 333 -26 
L 416 -26 
C 461 38 486 51 563 51 
C 634 51 710 38 858 0 
C 1030 -38 1197 -64 1325 -64 
C 1824 -64 2227 307 2227 755 
C 2227 1075 2080 1286 1690 1517 
L 998 1926 
C 819 2029 723 2189 723 2362 
C 723 2624 922 2797 1216 2797 
C 1581 2797 1773 2586 1920 2010 
L 2016 2010 
z
" transform="scale(0.015625)"/>
        <path id="NimbusRomNo9L-Reg-76" d="M 3053 2880 
L 2163 2880 
L 2163 2784 
C 2368 2765 2464 2701 2464 2579 
C 2464 2515 2451 2451 2426 2387 
L 1792 730 
L 1139 2368 
C 1101 2458 1082 2547 1082 2605 
C 1082 2720 1152 2765 1376 2784 
L 1376 2880 
L 122 2880 
L 122 2784 
C 365 2771 410 2707 704 2048 
L 1472 211 
C 1485 173 1504 128 1523 77 
C 1542 26 1562 -19 1581 -51 
C 1594 -77 1619 -90 1638 -90 
C 1677 -90 1722 -6 1818 230 
L 2637 2285 
C 2822 2720 2861 2765 3053 2784 
L 3053 2880 
z
" transform="scale(0.015625)"/>
       </defs>
       <use xlink:href="#NimbusRomNo9L-Reg-50"/>
       <use xlink:href="#NimbusRomNo9L-Reg-65" transform="translate(55.599991 0)"/>
       <use xlink:href="#NimbusRomNo9L-Reg-72" transform="translate(99.999985 0)"/>
       <use xlink:href="#NimbusRomNo9L-Reg-6d" transform="translate(133.299973 0)"/>
       <use xlink:href="#NimbusRomNo9L-Reg-69" transform="translate(211.09996 0)"/>
       <use xlink:href="#NimbusRomNo9L-Reg-73" transform="translate(238.899948 0)"/>
       <use xlink:href="#NimbusRomNo9L-Reg-73" transform="translate(277.799942 0)"/>
       <use xlink:href="#NimbusRomNo9L-Reg-69" transform="translate(316.699936 0)"/>
       <use xlink:href="#NimbusRomNo9L-Reg-76" transform="translate(344.499924 0)"/>
       <use xlink:href="#NimbusRomNo9L-Reg-65" transform="translate(394.499908 0)"/>
      </g>
      <!-- Request -->
      <g transform="translate(152.639935 316.190875) scale(0.17 -0.17)">
       <defs>
        <path id="NimbusRomNo9L-Reg-52" d="M 4218 122 
C 3974 141 3846 205 3661 422 
L 2342 2042 
C 3155 2202 3501 2522 3501 3110 
C 3501 3386 3418 3622 3251 3808 
C 3008 4070 2477 4237 1875 4237 
L 109 4237 
L 109 4115 
C 582 4064 646 4006 653 3539 
L 653 768 
C 646 224 589 160 109 122 
L 109 0 
L 1882 0 
L 1882 122 
C 1389 154 1312 230 1306 698 
L 1306 1958 
L 1664 1971 
L 3187 0 
L 4218 0 
L 4218 122 
z
M 1306 3770 
C 1306 3949 1376 4000 1632 4000 
C 2432 4000 2803 3725 2803 3123 
C 2803 2803 2669 2534 2438 2413 
C 2144 2246 1920 2208 1306 2195 
L 1306 3770 
z
" transform="scale(0.015625)"/>
        <path id="NimbusRomNo9L-Reg-71" d="M 2304 2720 
C 2016 2886 1824 2944 1568 2944 
C 762 2944 154 2234 154 1306 
C 154 506 576 -64 1178 -64 
C 1549 -64 1901 102 2182 410 
L 2182 -794 
C 2176 -1152 2061 -1254 1613 -1280 
L 1613 -1389 
L 3123 -1389 
L 3123 -1299 
C 2778 -1222 2733 -1178 2720 -902 
L 2720 2918 
L 2650 2925 
L 2304 2720 
z
M 2182 813 
C 2182 659 2157 576 2093 518 
C 1952 403 1741 326 1542 326 
C 1344 326 1171 390 1043 512 
C 838 704 704 1114 704 1542 
C 704 2298 1043 2765 1587 2765 
C 1984 2765 2182 2554 2182 2131 
L 2182 813 
z
" transform="scale(0.015625)"/>
        <path id="NimbusRomNo9L-Reg-75" d="M 3123 320 
L 3091 320 
C 2778 333 2733 384 2726 685 
L 2726 2880 
L 1715 2880 
L 1715 2771 
C 2112 2752 2189 2688 2189 2368 
L 2189 864 
C 2189 685 2157 595 2067 525 
C 1894 384 1696 307 1504 307 
C 1254 307 1050 525 1050 794 
L 1050 2880 
L 115 2880 
L 115 2790 
C 416 2778 506 2688 512 2381 
L 512 768 
C 512 262 819 -64 1286 -64 
C 1523 -64 1773 38 1946 211 
L 2221 486 
L 2221 -45 
L 2246 -58 
C 2566 70 2797 141 3123 230 
L 3123 320 
z
" transform="scale(0.015625)"/>
       </defs>
       <use xlink:href="#NimbusRomNo9L-Reg-52"/>
       <use xlink:href="#NimbusRomNo9L-Reg-65" transform="translate(66.699997 0)"/>
       <use xlink:href="#NimbusRomNo9L-Reg-71" transform="translate(111.099991 0)"/>
       <use xlink:href="#NimbusRomNo9L-Reg-75" transform="translate(161.099976 0)"/>
       <use xlink:href="#NimbusRomNo9L-Reg-65" transform="translate(211.09996 0)"/>
       <use xlink:href="#NimbusRomNo9L-Reg-73" transform="translate(255.499954 0)"/>
       <use xlink:href="#NimbusRomNo9L-Reg-74" transform="translate(294.399948 0)"/>
      </g>
      <!-- JWT -->
      <g transform="translate(163.503998 333.812969) scale(0.17 -0.17)">
       <defs>
        <path id="NimbusRomNo9L-Reg-4a" d="M 2406 4237 
L 570 4237 
L 570 4115 
C 1088 4077 1158 4013 1165 3539 
L 1165 576 
C 1165 288 1088 154 922 154 
C 832 154 794 205 749 365 
C 685 589 582 691 416 691 
C 243 691 102 544 102 371 
C 102 102 365 -90 736 -90 
C 1427 -90 1818 371 1818 1171 
L 1818 3539 
C 1830 4019 1888 4077 2406 4115 
L 2406 4237 
z
" transform="scale(0.015625)"/>
        <path id="NimbusRomNo9L-Reg-57" d="M 5965 4237 
L 4698 4237 
L 4698 4115 
C 5024 4083 5139 4013 5139 3840 
C 5139 3712 5101 3539 5037 3360 
L 4237 1190 
L 3392 3373 
C 3379 3405 3322 3546 3315 3565 
C 3258 3699 3219 3821 3219 3891 
C 3219 4045 3366 4109 3712 4115 
L 3712 4237 
L 2003 4237 
L 2003 4115 
C 2368 4109 2432 4051 2650 3539 
L 2861 3014 
L 2176 1210 
L 1254 3616 
C 1210 3731 1184 3840 1184 3910 
C 1184 4051 1274 4096 1600 4115 
L 1600 4237 
L 32 4237 
L 32 4115 
C 358 4083 454 3968 691 3366 
L 1926 -70 
L 2022 -70 
L 3008 2637 
L 4032 -70 
L 4128 -70 
C 4672 1600 4736 1779 5434 3661 
C 5555 3994 5626 4051 5965 4115 
L 5965 4237 
z
" transform="scale(0.015625)"/>
       </defs>
       <use xlink:href="#NimbusRomNo9L-Reg-4a"/>
       <use xlink:href="#NimbusRomNo9L-Reg-57" transform="translate(38.899994 0)"/>
       <use xlink:href="#NimbusRomNo9L-Reg-54" transform="translate(133.299988 0)"/>
      </g>
     </g>
    </g>
    <g id="xtick_3">
     <g id="line2d_3">
      <g>
       <use xlink:href="#m80bbb099e0" x="266.963125" y="279.958312" style="stroke: #000000; stroke-width: 0.8"/>
      </g>
     </g>
     <g id="text_3">
      <!-- Permissive -->
      <g transform="translate(229.656094 298.568781) scale(0.17 -0.17)">
       <use xlink:href="#NimbusRomNo9L-Reg-50"/>
       <use xlink:href="#NimbusRomNo9L-Reg-65" transform="translate(55.599991 0)"/>
       <use xlink:href="#NimbusRomNo9L-Reg-72" transform="translate(99.999985 0)"/>
       <use xlink:href="#NimbusRomNo9L-Reg-6d" transform="translate(133.299973 0)"/>
       <use xlink:href="#NimbusRomNo9L-Reg-69" transform="translate(211.09996 0)"/>
       <use xlink:href="#NimbusRomNo9L-Reg-73" transform="translate(238.899948 0)"/>
       <use xlink:href="#NimbusRomNo9L-Reg-73" transform="translate(277.799942 0)"/>
       <use xlink:href="#NimbusRomNo9L-Reg-69" transform="translate(316.699936 0)"/>
       <use xlink:href="#NimbusRomNo9L-Reg-76" transform="translate(344.499924 0)"/>
       <use xlink:href="#NimbusRomNo9L-Reg-65" transform="translate(394.499908 0)"/>
      </g>
      <!-- Peer -->
      <g transform="translate(251.858359 316.190875) scale(0.17 -0.17)">
       <use xlink:href="#NimbusRomNo9L-Reg-50"/>
       <use xlink:href="#NimbusRomNo9L-Reg-65" transform="translate(55.599991 0)"/>
       <use xlink:href="#NimbusRomNo9L-Reg-65" transform="translate(99.999985 0)"/>
       <use xlink:href="#NimbusRomNo9L-Reg-72" transform="translate(144.399979 0)"/>
      </g>
      <!-- Any -->
      <g transform="translate(252.325859 333.812969) scale(0.17 -0.17)">
       <defs>
        <path id="NimbusRomNo9L-Reg-41" d="M 4518 122 
C 4230 141 4166 205 3942 678 
L 2349 4314 
L 2221 4314 
L 890 1171 
C 480 237 403 134 96 122 
L 96 0 
L 1363 0 
L 1363 122 
C 1056 122 928 198 928 384 
C 928 461 947 550 979 634 
L 1274 1382 
L 2950 1382 
L 3213 768 
C 3290 595 3334 429 3334 339 
C 3334 179 3226 128 2886 122 
L 2886 0 
L 4518 0 
L 4518 122 
z
M 1382 1645 
L 2118 3405 
L 2861 1645 
L 1382 1645 
z
" transform="scale(0.015625)"/>
        <path id="NimbusRomNo9L-Reg-6e" d="M 115 0 
L 1472 0 
L 1472 96 
C 1152 115 1050 198 1050 429 
L 1050 2227 
C 1350 2515 1498 2592 1709 2592 
C 2022 2592 2176 2394 2176 1971 
L 2176 634 
C 2163 218 2086 115 1773 96 
L 1773 0 
L 3104 0 
L 3104 96 
C 2790 128 2720 205 2714 518 
L 2714 1984 
C 2714 2586 2432 2944 1958 2944 
C 1664 2944 1466 2835 1030 2426 
L 1030 2931 
L 986 2944 
C 672 2829 454 2758 102 2656 
L 102 2547 
C 141 2566 205 2573 275 2573 
C 454 2573 512 2477 512 2163 
L 512 576 
C 506 198 435 115 115 96 
L 115 0 
z
" transform="scale(0.015625)"/>
        <path id="NimbusRomNo9L-Reg-79" d="M 3040 2880 
L 2176 2880 
L 2176 2784 
C 2381 2784 2483 2726 2483 2624 
C 2483 2598 2477 2560 2458 2515 
L 1837 749 
L 1101 2368 
C 1062 2458 1037 2547 1037 2611 
C 1037 2726 1133 2771 1408 2784 
L 1408 2880 
L 90 2880 
L 90 2790 
C 256 2765 365 2694 416 2586 
L 1146 1011 
C 1222 838 1229 832 1261 768 
C 1440 448 1542 211 1542 115 
C 1542 13 1395 -378 1286 -576 
C 1190 -736 1056 -858 966 -858 
C 928 -858 870 -845 800 -813 
C 685 -768 570 -742 467 -742 
C 314 -742 192 -864 192 -1024 
C 192 -1235 390 -1395 666 -1395 
C 1101 -1395 1395 -1043 1747 -115 
L 2733 2496 
C 2816 2701 2886 2765 3040 2784 
L 3040 2880 
z
" transform="scale(0.015625)"/>
       </defs>
       <use xlink:href="#NimbusRomNo9L-Reg-41"/>
       <use xlink:href="#NimbusRomNo9L-Reg-6e" transform="translate(72.199982 0)"/>
       <use xlink:href="#NimbusRomNo9L-Reg-79" transform="translate(122.199966 0)"/>
      </g>
     </g>
    </g>
    <g id="xtick_4">
     <g id="line2d_4">
      <g>
       <use xlink:href="#m80bbb099e0" x="353.897721" y="279.958312" style="stroke: #000000; stroke-width: 0.8"/>
      </g>
     </g>
     <g id="text_4">
      <!-- Permissive -->
      <g transform="translate(316.59069 298.568781) scale(0.17 -0.17)">
       <use xlink:href="#NimbusRomNo9L-Reg-50"/>
       <use xlink:href="#NimbusRomNo9L-Reg-65" transform="translate(55.599991 0)"/>
       <use xlink:href="#NimbusRomNo9L-Reg-72" transform="translate(99.999985 0)"/>
       <use xlink:href="#NimbusRomNo9L-Reg-6d" transform="translate(133.299973 0)"/>
       <use xlink:href="#NimbusRomNo9L-Reg-69" transform="translate(211.09996 0)"/>
       <use xlink:href="#NimbusRomNo9L-Reg-73" transform="translate(238.899948 0)"/>
       <use xlink:href="#NimbusRomNo9L-Reg-73" transform="translate(277.799942 0)"/>
       <use xlink:href="#NimbusRomNo9L-Reg-69" transform="translate(316.699936 0)"/>
       <use xlink:href="#NimbusRomNo9L-Reg-76" transform="translate(344.499924 0)"/>
       <use xlink:href="#NimbusRomNo9L-Reg-65" transform="translate(394.499908 0)"/>
      </g>
      <!-- Peer -->
      <g transform="translate(338.792955 316.190875) scale(0.17 -0.17)">
       <use xlink:href="#NimbusRomNo9L-Reg-50"/>
       <use xlink:href="#NimbusRomNo9L-Reg-65" transform="translate(55.599991 0)"/>
       <use xlink:href="#NimbusRomNo9L-Reg-65" transform="translate(99.999985 0)"/>
       <use xlink:href="#NimbusRomNo9L-Reg-72" transform="translate(144.399979 0)"/>
      </g>
      <!-- HTTP -->
      <g transform="translate(332.649049 333.812969) scale(0.17 -0.17)">
       <use xlink:href="#NimbusRomNo9L-Reg-48"/>
       <use xlink:href="#NimbusRomNo9L-Reg-54" transform="translate(72.199982 0)"/>
       <use xlink:href="#NimbusRomNo9L-Reg-54" transform="translate(133.299973 0)"/>
       <use xlink:href="#NimbusRomNo9L-Reg-50" transform="translate(194.399963 0)"/>
      </g>
     </g>
    </g>
    <g id="xtick_5">
     <g id="line2d_5">
      <g>
       <use xlink:href="#m80bbb099e0" x="440.832317" y="279.958312" style="stroke: #000000; stroke-width: 0.8"/>
      </g>
     </g>
     <g id="text_5">
      <!-- Permissive -->
      <g transform="translate(403.525286 298.568781) scale(0.17 -0.17)">
       <use xlink:href="#NimbusRomNo9L-Reg-50"/>
       <use xlink:href="#NimbusRomNo9L-Reg-65" transform="translate(55.599991 0)"/>
       <use xlink:href="#NimbusRomNo9L-Reg-72" transform="translate(99.999985 0)"/>
       <use xlink:href="#NimbusRomNo9L-Reg-6d" transform="translate(133.299973 0)"/>
       <use xlink:href="#NimbusRomNo9L-Reg-69" transform="translate(211.09996 0)"/>
       <use xlink:href="#NimbusRomNo9L-Reg-73" transform="translate(238.899948 0)"/>
       <use xlink:href="#NimbusRomNo9L-Reg-73" transform="translate(277.799942 0)"/>
       <use xlink:href="#NimbusRomNo9L-Reg-69" transform="translate(316.699936 0)"/>
       <use xlink:href="#NimbusRomNo9L-Reg-76" transform="translate(344.499924 0)"/>
       <use xlink:href="#NimbusRomNo9L-Reg-65" transform="translate(394.499908 0)"/>
      </g>
      <!-- Request -->
      <g transform="translate(413.443723 316.190875) scale(0.17 -0.17)">
       <use xlink:href="#NimbusRomNo9L-Reg-52"/>
       <use xlink:href="#NimbusRomNo9L-Reg-65" transform="translate(66.699997 0)"/>
       <use xlink:href="#NimbusRomNo9L-Reg-71" transform="translate(111.099991 0)"/>
       <use xlink:href="#NimbusRomNo9L-Reg-75" transform="translate(161.099976 0)"/>
       <use xlink:href="#NimbusRomNo9L-Reg-65" transform="translate(211.09996 0)"/>
       <use xlink:href="#NimbusRomNo9L-Reg-73" transform="translate(255.499954 0)"/>
       <use xlink:href="#NimbusRomNo9L-Reg-74" transform="translate(294.399948 0)"/>
      </g>
      <!-- HTTP -->
      <g transform="translate(419.583645 333.812969) scale(0.17 -0.17)">
       <use xlink:href="#NimbusRomNo9L-Reg-48"/>
       <use xlink:href="#NimbusRomNo9L-Reg-54" transform="translate(72.199982 0)"/>
       <use xlink:href="#NimbusRomNo9L-Reg-54" transform="translate(133.299973 0)"/>
       <use xlink:href="#NimbusRomNo9L-Reg-50" transform="translate(194.399963 0)"/>
      </g>
     </g>
    </g>
   </g>
   <g id="matplotlib.axis_2">
    <g id="ytick_1">
     <g id="line2d_6">
      <defs>
       <path id="m4439f6a6f3" d="M 0 0 
L -3.5 0 
" style="stroke: #000000; stroke-width: 0.8"/>
      </defs>
      <g>
       <use xlink:href="#m4439f6a6f3" x="51.8" y="279.958312" style="stroke: #000000; stroke-width: 0.8"/>
      </g>
     </g>
     <g id="text_6">
      <!-- 0 -->
      <g transform="translate(36.3 285.763547) scale(0.17 -0.17)">
       <defs>
        <path id="NimbusRomNo9L-Reg-30" d="M 1626 4326 
C 1274 4326 1005 4224 768 3994 
C 397 3635 154 2899 154 2150 
C 154 1446 365 704 666 346 
C 902 64 1229 -90 1600 -90 
C 1926 -90 2202 19 2432 243 
C 2803 595 3046 1338 3046 2112 
C 3046 3424 2464 4326 1626 4326 
z
M 1606 4160 
C 2144 4160 2432 3437 2432 2099 
C 2432 762 2150 77 1600 77 
C 1050 77 768 762 768 2093 
C 768 3456 1056 4160 1606 4160 
z
" transform="scale(0.015625)"/>
       </defs>
       <use xlink:href="#NimbusRomNo9L-Reg-30"/>
      </g>
     </g>
    </g>
    <g id="ytick_2">
     <g id="line2d_7">
      <g>
       <use xlink:href="#m4439f6a6f3" x="51.8" y="234.316382" style="stroke: #000000; stroke-width: 0.8"/>
      </g>
     </g>
     <g id="text_7">
      <!-- 50 -->
      <g transform="translate(27.8 240.121616) scale(0.17 -0.17)">
       <defs>
        <path id="NimbusRomNo9L-Reg-35" d="M 1158 3731 
L 2413 3731 
C 2522 3731 2541 3738 2560 3789 
L 2803 4358 
L 2746 4403 
C 2650 4275 2592 4237 2451 4237 
L 1114 4237 
L 416 2720 
C 410 2707 410 2701 410 2688 
C 410 2650 435 2637 486 2637 
C 691 2637 941 2592 1210 2509 
C 1946 2272 2278 1882 2278 1242 
C 2278 627 1894 147 1389 147 
C 1261 147 1158 192 966 333 
C 762 486 621 544 474 544 
C 294 544 205 467 205 307 
C 205 64 499 -90 986 -90 
C 1517 -90 1978 83 2304 410 
C 2592 698 2726 1062 2726 1549 
C 2726 2010 2605 2304 2291 2624 
C 2010 2906 1645 3053 890 3187 
L 1158 3731 
z
" transform="scale(0.015625)"/>
       </defs>
       <use xlink:href="#NimbusRomNo9L-Reg-35"/>
       <use xlink:href="#NimbusRomNo9L-Reg-30" transform="translate(49.999985 0)"/>
      </g>
     </g>
    </g>
    <g id="ytick_3">
     <g id="line2d_8">
      <g>
       <use xlink:href="#m4439f6a6f3" x="51.8" y="188.674451" style="stroke: #000000; stroke-width: 0.8"/>
      </g>
     </g>
     <g id="text_8">
      <!-- 100 -->
      <g transform="translate(19.3 194.479685) scale(0.17 -0.17)">
       <defs>
        <path id="NimbusRomNo9L-Reg-31" d="M 755 0 
L 2522 0 
L 2522 96 
C 2029 96 1920 166 1914 474 
L 1914 4314 
L 1862 4326 
L 710 3744 
L 710 3654 
C 960 3750 1114 3795 1171 3795 
C 1306 3795 1363 3699 1363 3494 
L 1363 595 
C 1350 192 1242 102 755 96 
L 755 0 
z
" transform="scale(0.015625)"/>
       </defs>
       <use xlink:href="#NimbusRomNo9L-Reg-31"/>
       <use xlink:href="#NimbusRomNo9L-Reg-30" transform="translate(49.999985 0)"/>
       <use xlink:href="#NimbusRomNo9L-Reg-30" transform="translate(99.999969 0)"/>
      </g>
     </g>
    </g>
    <g id="ytick_4">
     <g id="line2d_9">
      <g>
       <use xlink:href="#m4439f6a6f3" x="51.8" y="143.03252" style="stroke: #000000; stroke-width: 0.8"/>
      </g>
     </g>
     <g id="text_9">
      <!-- 150 -->
      <g transform="translate(19.3 148.837754) scale(0.17 -0.17)">
       <use xlink:href="#NimbusRomNo9L-Reg-31"/>
       <use xlink:href="#NimbusRomNo9L-Reg-35" transform="translate(49.999985 0)"/>
       <use xlink:href="#NimbusRomNo9L-Reg-30" transform="translate(99.999969 0)"/>
      </g>
     </g>
    </g>
    <g id="ytick_5">
     <g id="line2d_10">
      <g>
       <use xlink:href="#m4439f6a6f3" x="51.8" y="97.390589" style="stroke: #000000; stroke-width: 0.8"/>
      </g>
     </g>
     <g id="text_10">
      <!-- 200 -->
      <g transform="translate(19.3 103.195823) scale(0.17 -0.17)">
       <defs>
        <path id="NimbusRomNo9L-Reg-32" d="M 3040 877 
L 2957 909 
C 2720 538 2650 493 2349 486 
L 819 486 
L 1894 1613 
C 2464 2208 2714 2694 2714 3200 
C 2714 3834 2195 4326 1530 4326 
C 1178 4326 845 4186 608 3930 
C 403 3712 307 3507 198 3053 
L 333 3021 
C 589 3648 813 3853 1261 3853 
C 1805 3853 2163 3488 2163 2950 
C 2163 2445 1869 1856 1331 1286 
L 192 77 
L 192 0 
L 2688 0 
L 3040 877 
z
" transform="scale(0.015625)"/>
       </defs>
       <use xlink:href="#NimbusRomNo9L-Reg-32"/>
       <use xlink:href="#NimbusRomNo9L-Reg-30" transform="translate(49.999985 0)"/>
       <use xlink:href="#NimbusRomNo9L-Reg-30" transform="translate(99.999969 0)"/>
      </g>
     </g>
    </g>
    <g id="ytick_6">
     <g id="line2d_11">
      <g>
       <use xlink:href="#m4439f6a6f3" x="51.8" y="51.748658" style="stroke: #000000; stroke-width: 0.8"/>
      </g>
     </g>
     <g id="text_11">
      <!-- 250 -->
      <g transform="translate(19.3 57.553892) scale(0.17 -0.17)">
       <use xlink:href="#NimbusRomNo9L-Reg-32"/>
       <use xlink:href="#NimbusRomNo9L-Reg-35" transform="translate(49.999985 0)"/>
       <use xlink:href="#NimbusRomNo9L-Reg-30" transform="translate(99.999969 0)"/>
      </g>
     </g>
    </g>
    <g id="text_12">
     <!-- Number of Repositories -->
     <g transform="translate(11.610469 239.324266) rotate(-90) scale(0.17 -0.17)">
      <defs>
       <path id="NimbusRomNo9L-Reg-4e" d="M 4525 4237 
L 3021 4237 
L 3021 4115 
C 3533 4083 3616 3974 3635 3296 
L 3635 1139 
L 1171 4237 
L 77 4237 
L 77 4115 
C 352 4115 442 4064 698 3763 
L 698 941 
C 685 262 602 154 77 122 
L 77 0 
L 1581 0 
L 1581 122 
C 1088 147 992 282 979 941 
L 979 3450 
L 3808 -70 
L 3917 -70 
L 3917 3296 
C 3936 3962 4019 4070 4525 4115 
L 4525 4237 
z
" transform="scale(0.015625)"/>
       <path id="NimbusRomNo9L-Reg-62" d="M 979 4358 
L 947 4371 
C 678 4275 506 4224 205 4141 
L 19 4090 
L 19 3987 
C 58 3994 83 3994 128 3994 
C 390 3994 442 3936 442 3667 
L 442 346 
C 442 147 979 -64 1498 -64 
C 2342 -64 2995 640 2995 1555 
C 2995 2349 2509 2944 1869 2944 
C 1478 2944 1107 2720 979 2400 
L 979 4358 
z
M 979 2061 
C 979 2310 1280 2541 1613 2541 
C 1792 2541 1952 2477 2086 2355 
C 2291 2157 2432 1722 2432 1261 
C 2432 550 2125 141 1600 141 
C 1267 141 979 282 979 448 
L 979 2061 
z
" transform="scale(0.015625)"/>
       <path id="NimbusRomNo9L-Reg-20" transform="scale(0.015625)"/>
       <path id="NimbusRomNo9L-Reg-6f" d="M 1600 2944 
C 762 2944 186 2330 186 1446 
C 186 576 781 -64 1587 -64 
C 2394 -64 3008 608 3008 1498 
C 3008 2342 2419 2944 1600 2944 
z
M 1517 2765 
C 2054 2765 2432 2150 2432 1274 
C 2432 544 2144 115 1664 115 
C 1414 115 1178 269 1043 525 
C 864 858 762 1306 762 1760 
C 762 2368 1056 2765 1517 2765 
z
" transform="scale(0.015625)"/>
       <path id="NimbusRomNo9L-Reg-66" d="M 2061 2880 
L 1274 2880 
L 1274 3622 
C 1274 4000 1395 4192 1638 4192 
C 1779 4192 1862 4128 1978 3942 
C 2080 3776 2157 3712 2266 3712 
C 2419 3712 2534 3827 2534 3974 
C 2534 4205 2253 4371 1869 4371 
C 1466 4371 1133 4198 966 3910 
C 800 3622 749 3392 742 2880 
L 218 2880 
L 218 2675 
L 742 2675 
L 742 666 
C 730 186 666 115 211 96 
L 211 0 
L 1875 0 
L 1875 96 
C 1350 115 1280 186 1280 666 
L 1280 2675 
L 2061 2675 
L 2061 2880 
z
" transform="scale(0.015625)"/>
       <path id="NimbusRomNo9L-Reg-70" d="M 32 -1389 
L 1581 -1389 
L 1581 -1274 
C 1101 -1267 1024 -1203 1018 -794 
L 1018 211 
C 1248 0 1395 -64 1664 -64 
C 2426 -64 3008 653 3008 1581 
C 3008 2374 2560 2944 1939 2944 
C 1581 2944 1299 2790 1018 2438 
L 1018 2931 
L 979 2944 
C 634 2810 410 2726 58 2618 
L 58 2515 
C 115 2522 160 2522 218 2522 
C 435 2522 480 2458 480 2157 
L 480 -838 
C 480 -1178 410 -1242 32 -1280 
L 32 -1389 
z
M 1018 2138 
C 1018 2330 1376 2560 1670 2560 
C 2144 2560 2458 2074 2458 1325 
C 2458 621 2144 141 1683 141 
C 1382 141 1018 371 1018 563 
L 1018 2138 
z
" transform="scale(0.015625)"/>
      </defs>
      <use xlink:href="#NimbusRomNo9L-Reg-4e"/>
      <use xlink:href="#NimbusRomNo9L-Reg-75" transform="translate(72.199982 0)"/>
      <use xlink:href="#NimbusRomNo9L-Reg-6d" transform="translate(122.199966 0)"/>
      <use xlink:href="#NimbusRomNo9L-Reg-62" transform="translate(199.999954 0)"/>
      <use xlink:href="#NimbusRomNo9L-Reg-65" transform="translate(249.999939 0)"/>
      <use xlink:href="#NimbusRomNo9L-Reg-72" transform="translate(294.399933 0)"/>
      <use xlink:href="#NimbusRomNo9L-Reg-20" transform="translate(327.699921 0)"/>
      <use xlink:href="#NimbusRomNo9L-Reg-6f" transform="translate(352.699905 0)"/>
      <use xlink:href="#NimbusRomNo9L-Reg-66" transform="translate(402.69989 0)"/>
      <use xlink:href="#NimbusRomNo9L-Reg-20" transform="translate(435.999878 0)"/>
      <use xlink:href="#NimbusRomNo9L-Reg-52" transform="translate(460.999863 0)"/>
      <use xlink:href="#NimbusRomNo9L-Reg-65" transform="translate(527.69986 0)"/>
      <use xlink:href="#NimbusRomNo9L-Reg-70" transform="translate(572.099854 0)"/>
      <use xlink:href="#NimbusRomNo9L-Reg-6f" transform="translate(622.099838 0)"/>
      <use xlink:href="#NimbusRomNo9L-Reg-73" transform="translate(672.099823 0)"/>
      <use xlink:href="#NimbusRomNo9L-Reg-69" transform="translate(710.999817 0)"/>
      <use xlink:href="#NimbusRomNo9L-Reg-74" transform="translate(738.799805 0)"/>
      <use xlink:href="#NimbusRomNo9L-Reg-6f" transform="translate(766.599792 0)"/>
      <use xlink:href="#NimbusRomNo9L-Reg-72" transform="translate(816.599777 0)"/>
      <use xlink:href="#NimbusRomNo9L-Reg-69" transform="translate(849.899765 0)"/>
      <use xlink:href="#NimbusRomNo9L-Reg-65" transform="translate(877.699753 0)"/>
      <use xlink:href="#NimbusRomNo9L-Reg-73" transform="translate(922.099747 0)"/>
     </g>
    </g>
   </g>
   <g id="patch_8">
    <path d="M 51.8 279.958312 
L 51.8 35.317562 
" style="fill: none; stroke: #000000; stroke-width: 0.8; stroke-linejoin: miter; stroke-linecap: square"/>
   </g>
   <g id="patch_9">
    <path d="M 482.12625 279.958312 
L 482.12625 35.317562 
" style="fill: none; stroke: #000000; stroke-width: 0.8; stroke-linejoin: miter; stroke-linecap: square"/>
   </g>
   <g id="patch_10">
    <path d="M 51.8 279.958312 
L 482.12625 279.958312 
" style="fill: none; stroke: #000000; stroke-width: 0.8; stroke-linejoin: miter; stroke-linecap: square"/>
   </g>
   <g id="patch_11">
    <path d="M 51.8 35.317562 
L 482.12625 35.317562 
" style="fill: none; stroke: #000000; stroke-width: 0.8; stroke-linejoin: miter; stroke-linecap: square"/>
   </g>
   <g id="text_13">
    <!-- 248 -->
    <g transform="translate(80.343933 49.884804) scale(0.17 -0.17)">
     <defs>
      <path id="NimbusRomNo9L-Reg-34" d="M 3021 1478 
L 2368 1478 
L 2368 4326 
L 2086 4326 
L 77 1478 
L 77 1069 
L 1875 1069 
L 1875 0 
L 2368 0 
L 2368 1069 
L 3021 1069 
L 3021 1478 
z
M 1869 1478 
L 333 1478 
L 1869 3674 
L 1869 1478 
z
" transform="scale(0.015625)"/>
      <path id="NimbusRomNo9L-Reg-38" d="M 1856 2374 
C 2490 2714 2714 2982 2714 3418 
C 2714 3949 2259 4326 1613 4326 
C 915 4326 397 3898 397 3315 
C 397 2899 518 2714 1190 2125 
C 493 1594 358 1408 358 966 
C 358 339 858 -90 1587 -90 
C 2355 -90 2848 333 2848 992 
C 2848 1491 2630 1792 1856 2374 
z
M 1741 1715 
C 2208 1382 2362 1152 2362 794 
C 2362 378 2074 90 1658 90 
C 1171 90 845 461 845 1011 
C 845 1427 979 1690 1357 1997 
L 1741 1715 
z
M 1670 2490 
C 1101 2861 870 3155 870 3514 
C 870 3885 1158 4147 1562 4147 
C 1997 4147 2272 3866 2272 3424 
C 2272 3034 2106 2771 1670 2490 
z
" transform="scale(0.015625)"/>
     </defs>
     <use xlink:href="#NimbusRomNo9L-Reg-32"/>
     <use xlink:href="#NimbusRomNo9L-Reg-34" transform="translate(49.999985 0)"/>
     <use xlink:href="#NimbusRomNo9L-Reg-38" transform="translate(99.999969 0)"/>
    </g>
   </g>
   <g id="text_14">
    <!-- 85 -->
    <g transform="translate(171.528529 198.677499) scale(0.17 -0.17)">
     <use xlink:href="#NimbusRomNo9L-Reg-38"/>
     <use xlink:href="#NimbusRomNo9L-Reg-35" transform="translate(49.999985 0)"/>
    </g>
   </g>
   <g id="text_15">
    <!-- 78 -->
    <g transform="translate(258.463125 205.067369) scale(0.17 -0.17)">
     <defs>
      <path id="NimbusRomNo9L-Reg-37" d="M 2912 4237 
L 544 4237 
L 166 3296 
L 275 3245 
C 538 3674 659 3757 1018 3763 
L 2406 3763 
L 1139 -51 
L 1555 -51 
L 2912 4134 
L 2912 4237 
z
" transform="scale(0.015625)"/>
     </defs>
     <use xlink:href="#NimbusRomNo9L-Reg-37"/>
     <use xlink:href="#NimbusRomNo9L-Reg-38" transform="translate(49.999985 0)"/>
    </g>
   </g>
   <g id="text_16">
    <!-- 59 -->
    <g transform="translate(345.397721 222.411303) scale(0.17 -0.17)">
     <defs>
      <path id="NimbusRomNo9L-Reg-39" d="M 378 -141 
C 1094 -58 1446 64 1882 378 
C 2547 864 2938 1658 2938 2522 
C 2938 3578 2355 4326 1523 4326 
C 762 4326 192 3680 192 2816 
C 192 2035 653 1517 1344 1517 
C 1696 1517 1965 1619 2304 1882 
C 2042 838 1331 154 358 -13 
L 378 -141 
z
M 2317 2272 
C 2317 2144 2291 2086 2221 2029 
C 2042 1882 1805 1792 1574 1792 
C 1088 1792 781 2272 781 3034 
C 781 3398 883 3782 1018 3949 
C 1126 4077 1286 4147 1472 4147 
C 2029 4147 2317 3597 2317 2522 
L 2317 2272 
z
" transform="scale(0.015625)"/>
     </defs>
     <use xlink:href="#NimbusRomNo9L-Reg-35"/>
     <use xlink:href="#NimbusRomNo9L-Reg-39" transform="translate(49.999985 0)"/>
    </g>
   </g>
   <g id="text_17">
    <!-- 51 -->
    <g transform="translate(432.332317 229.714012) scale(0.17 -0.17)">
     <use xlink:href="#NimbusRomNo9L-Reg-35"/>
     <use xlink:href="#NimbusRomNo9L-Reg-31" transform="translate(49.999985 0)"/>
    </g>
   </g>
   <g id="text_18">
    <!-- Top 5 Most Popular mtls + Auth + AuthZ Combinations -->
    <g transform="translate(74.845859 11.695469) scale(0.17 -0.17)">
     <defs>
      <path id="NimbusRomNo9L-Reg-4d" d="M 5523 4237 
L 4250 4237 
L 2835 1005 
L 1357 4237 
L 90 4237 
L 90 4115 
C 614 4090 685 4019 698 3539 
L 698 941 
C 685 262 602 154 77 122 
L 77 0 
L 1581 0 
L 1581 122 
C 1088 147 992 282 979 941 
L 979 3520 
L 2586 0 
L 2675 0 
L 4314 3667 
L 4314 768 
C 4307 224 4237 154 3731 122 
L 3731 0 
L 5523 0 
L 5523 122 
C 5062 147 4979 237 4966 698 
L 4966 3539 
C 4979 4000 5056 4083 5523 4115 
L 5523 4237 
z
" transform="scale(0.015625)"/>
      <path id="NimbusRomNo9L-Reg-6c" d="M 134 0 
L 1645 0 
L 1645 96 
C 1242 115 1171 179 1165 538 
L 1165 4358 
L 1139 4371 
C 806 4262 563 4198 122 4090 
L 122 3987 
L 160 3987 
C 230 3994 307 4000 358 4000 
C 563 4000 627 3910 627 3610 
L 627 557 
C 621 211 531 122 134 96 
L 134 0 
z
" transform="scale(0.015625)"/>
      <path id="NimbusRomNo9L-Reg-61" d="M 2829 422 
C 2720 333 2643 301 2547 301 
C 2400 301 2355 390 2355 672 
L 2355 1920 
C 2355 2253 2323 2438 2227 2592 
C 2086 2822 1811 2944 1434 2944 
C 832 2944 358 2630 358 2227 
C 358 2080 480 1952 634 1952 
C 787 1952 922 2080 922 2221 
C 922 2246 915 2278 909 2323 
C 896 2381 890 2432 890 2477 
C 890 2650 1094 2790 1350 2790 
C 1664 2790 1837 2605 1837 2259 
L 1837 1869 
C 851 1472 742 1421 467 1178 
C 326 1050 237 832 237 621 
C 237 218 518 -64 909 -64 
C 1190 -64 1453 70 1843 403 
C 1875 64 1990 -64 2253 -64 
C 2470 -64 2605 13 2829 256 
L 2829 422 
z
M 1837 787 
C 1837 595 1805 525 1670 448 
C 1510 358 1338 307 1203 307 
C 979 307 800 525 800 800 
L 800 826 
C 806 1210 1088 1453 1837 1715 
L 1837 787 
z
" transform="scale(0.015625)"/>
      <path id="NimbusRomNo9L-Reg-2b" d="M 1638 2131 
L 237 2131 
L 237 1792 
L 1638 1792 
L 1638 384 
L 1978 384 
L 1978 1792 
L 3379 1792 
L 3379 2131 
L 1978 2131 
L 1978 3539 
L 1638 3539 
L 1638 2131 
z
" transform="scale(0.015625)"/>
      <path id="NimbusRomNo9L-Reg-68" d="M 3117 96 
C 2771 154 2739 198 2733 653 
L 2733 1926 
C 2733 2598 2470 2944 1946 2944 
C 1568 2944 1299 2790 1005 2406 
L 1005 4352 
L 973 4371 
C 755 4294 595 4243 237 4141 
L 64 4090 
L 64 3987 
C 90 3994 109 3994 141 3994 
C 416 3994 467 3942 467 3667 
L 467 653 
C 454 192 422 141 58 96 
L 58 0 
L 1440 0 
L 1440 96 
C 1069 128 1018 198 1005 653 
L 1005 2195 
C 1274 2490 1466 2598 1715 2598 
C 2035 2598 2195 2368 2195 1920 
L 2195 653 
C 2182 198 2125 128 1760 96 
L 1760 0 
L 3117 0 
L 3117 96 
z
" transform="scale(0.015625)"/>
      <path id="NimbusRomNo9L-Reg-5a" d="M 3674 1126 
C 3482 442 3264 269 2573 243 
L 928 243 
L 3693 4141 
L 3693 4237 
L 326 4237 
L 198 3142 
L 365 3142 
C 474 3789 704 3974 1440 3994 
L 2854 3994 
L 58 96 
L 58 0 
L 3667 0 
L 3821 1126 
L 3674 1126 
z
" transform="scale(0.015625)"/>
      <path id="NimbusRomNo9L-Reg-43" d="M 3968 2886 
L 3910 4326 
L 3776 4326 
C 3738 4192 3635 4115 3507 4115 
C 3450 4115 3354 4134 3258 4166 
C 2944 4275 2624 4326 2323 4326 
C 1798 4326 1274 4128 870 3776 
C 422 3379 179 2790 179 2086 
C 179 781 1030 -90 2304 -90 
C 3027 -90 3667 205 4051 723 
L 3936 838 
C 3462 384 3040 192 2509 192 
C 2106 192 1747 320 1472 563 
C 1120 877 922 1453 922 2163 
C 922 3328 1517 4070 2445 4070 
C 2810 4070 3142 3936 3398 3686 
C 3603 3482 3699 3302 3821 2886 
L 3968 2886 
z
" transform="scale(0.015625)"/>
     </defs>
     <use xlink:href="#NimbusRomNo9L-Reg-54"/>
     <use xlink:href="#NimbusRomNo9L-Reg-6f" transform="translate(61.099991 0)"/>
     <use xlink:href="#NimbusRomNo9L-Reg-70" transform="translate(111.099976 0)"/>
     <use xlink:href="#NimbusRomNo9L-Reg-20" transform="translate(161.09996 0)"/>
     <use xlink:href="#NimbusRomNo9L-Reg-35" transform="translate(186.099945 0)"/>
     <use xlink:href="#NimbusRomNo9L-Reg-20" transform="translate(236.09993 0)"/>
     <use xlink:href="#NimbusRomNo9L-Reg-4d" transform="translate(261.099915 0)"/>
     <use xlink:href="#NimbusRomNo9L-Reg-6f" transform="translate(349.999908 0)"/>
     <use xlink:href="#NimbusRomNo9L-Reg-73" transform="translate(399.999893 0)"/>
     <use xlink:href="#NimbusRomNo9L-Reg-74" transform="translate(438.899887 0)"/>
     <use xlink:href="#NimbusRomNo9L-Reg-20" transform="translate(466.699875 0)"/>
     <use xlink:href="#NimbusRomNo9L-Reg-50" transform="translate(491.69986 0)"/>
     <use xlink:href="#NimbusRomNo9L-Reg-6f" transform="translate(547.29985 0)"/>
     <use xlink:href="#NimbusRomNo9L-Reg-70" transform="translate(597.299835 0)"/>
     <use xlink:href="#NimbusRomNo9L-Reg-75" transform="translate(647.29982 0)"/>
     <use xlink:href="#NimbusRomNo9L-Reg-6c" transform="translate(697.299805 0)"/>
     <use xlink:href="#NimbusRomNo9L-Reg-61" transform="translate(725.099792 0)"/>
     <use xlink:href="#NimbusRomNo9L-Reg-72" transform="translate(769.499786 0)"/>
     <use xlink:href="#NimbusRomNo9L-Reg-20" transform="translate(802.799774 0)"/>
     <use xlink:href="#NimbusRomNo9L-Reg-6d" transform="translate(827.799759 0)"/>
     <use xlink:href="#NimbusRomNo9L-Reg-74" transform="translate(905.599747 0)"/>
     <use xlink:href="#NimbusRomNo9L-Reg-6c" transform="translate(933.399734 0)"/>
     <use xlink:href="#NimbusRomNo9L-Reg-73" transform="translate(961.199722 0)"/>
     <use xlink:href="#NimbusRomNo9L-Reg-20" transform="translate(1000.099716 0)"/>
     <use xlink:href="#NimbusRomNo9L-Reg-2b" transform="translate(1025.099701 0)"/>
     <use xlink:href="#NimbusRomNo9L-Reg-20" transform="translate(1081.499695 0)"/>
     <use xlink:href="#NimbusRomNo9L-Reg-41" transform="translate(1106.49968 0)"/>
     <use xlink:href="#NimbusRomNo9L-Reg-75" transform="translate(1178.699661 0)"/>
     <use xlink:href="#NimbusRomNo9L-Reg-74" transform="translate(1228.699646 0)"/>
     <use xlink:href="#NimbusRomNo9L-Reg-68" transform="translate(1256.499634 0)"/>
     <use xlink:href="#NimbusRomNo9L-Reg-20" transform="translate(1306.499619 0)"/>
     <use xlink:href="#NimbusRomNo9L-Reg-2b" transform="translate(1331.499603 0)"/>
     <use xlink:href="#NimbusRomNo9L-Reg-20" transform="translate(1387.899597 0)"/>
     <use xlink:href="#NimbusRomNo9L-Reg-41" transform="translate(1412.899582 0)"/>
     <use xlink:href="#NimbusRomNo9L-Reg-75" transform="translate(1485.099564 0)"/>
     <use xlink:href="#NimbusRomNo9L-Reg-74" transform="translate(1535.099548 0)"/>
     <use xlink:href="#NimbusRomNo9L-Reg-68" transform="translate(1562.899536 0)"/>
     <use xlink:href="#NimbusRomNo9L-Reg-5a" transform="translate(1612.899521 0)"/>
     <use xlink:href="#NimbusRomNo9L-Reg-20" transform="translate(1673.999512 0)"/>
     <use xlink:href="#NimbusRomNo9L-Reg-43" transform="translate(1698.999496 0)"/>
     <use xlink:href="#NimbusRomNo9L-Reg-6f" transform="translate(1765.699493 0)"/>
     <use xlink:href="#NimbusRomNo9L-Reg-6d" transform="translate(1815.699478 0)"/>
     <use xlink:href="#NimbusRomNo9L-Reg-62" transform="translate(1893.499466 0)"/>
     <use xlink:href="#NimbusRomNo9L-Reg-69" transform="translate(1943.499451 0)"/>
     <use xlink:href="#NimbusRomNo9L-Reg-6e" transform="translate(1971.299438 0)"/>
     <use xlink:href="#NimbusRomNo9L-Reg-61" transform="translate(2021.299423 0)"/>
     <use xlink:href="#NimbusRomNo9L-Reg-74" transform="translate(2065.699417 0)"/>
     <use xlink:href="#NimbusRomNo9L-Reg-69" transform="translate(2093.499405 0)"/>
     <use xlink:href="#NimbusRomNo9L-Reg-6f" transform="translate(2121.299393 0)"/>
     <use xlink:href="#NimbusRomNo9L-Reg-6e" transform="translate(2171.299377 0)"/>
     <use xlink:href="#NimbusRomNo9L-Reg-73" transform="translate(2221.299362 0)"/>
    </g>
    <!-- (Permissive if no mTLS) -->
    <g transform="translate(182.203516 29.317562) scale(0.17 -0.17)">
     <defs>
      <path id="NimbusRomNo9L-Reg-28" d="M 1888 4326 
C 1414 4013 1222 3853 986 3558 
C 531 3002 307 2362 307 1613 
C 307 794 544 173 1107 -480 
C 1370 -787 1536 -928 1869 -1133 
L 1946 -1030 
C 1434 -627 1254 -397 1082 77 
C 928 506 858 986 858 1632 
C 858 2304 941 2829 1114 3226 
C 1293 3622 1485 3853 1946 4224 
L 1888 4326 
z
" transform="scale(0.015625)"/>
      <path id="NimbusRomNo9L-Reg-4c" d="M 1882 4237 
L 77 4237 
L 77 4115 
C 544 4083 621 4000 634 3539 
L 634 698 
C 621 237 538 147 77 122 
L 77 0 
L 3520 0 
L 3827 1114 
L 3667 1114 
C 3366 442 3091 275 2266 250 
L 1837 250 
C 1344 262 1293 282 1286 512 
L 1286 3539 
C 1299 4006 1382 4090 1882 4115 
L 1882 4237 
z
" transform="scale(0.015625)"/>
      <path id="NimbusRomNo9L-Reg-29" d="M 243 -1133 
C 717 -819 909 -659 1146 -365 
C 1600 192 1824 832 1824 1581 
C 1824 2400 1587 3021 1024 3674 
C 762 3981 595 4122 262 4326 
L 186 4224 
C 698 3821 870 3597 1050 3117 
C 1203 2688 1274 2208 1274 1562 
C 1274 890 1190 358 1018 -26 
C 845 -429 646 -659 186 -1030 
L 243 -1133 
z
" transform="scale(0.015625)"/>
     </defs>
     <use xlink:href="#NimbusRomNo9L-Reg-28"/>
     <use xlink:href="#NimbusRomNo9L-Reg-50" transform="translate(33.299988 0)"/>
     <use xlink:href="#NimbusRomNo9L-Reg-65" transform="translate(88.899979 0)"/>
     <use xlink:href="#NimbusRomNo9L-Reg-72" transform="translate(133.299973 0)"/>
     <use xlink:href="#NimbusRomNo9L-Reg-6d" transform="translate(166.59996 0)"/>
     <use xlink:href="#NimbusRomNo9L-Reg-69" transform="translate(244.399948 0)"/>
     <use xlink:href="#NimbusRomNo9L-Reg-73" transform="translate(272.199936 0)"/>
     <use xlink:href="#NimbusRomNo9L-Reg-73" transform="translate(311.09993 0)"/>
     <use xlink:href="#NimbusRomNo9L-Reg-69" transform="translate(349.999924 0)"/>
     <use xlink:href="#NimbusRomNo9L-Reg-76" transform="translate(377.799911 0)"/>
     <use xlink:href="#NimbusRomNo9L-Reg-65" transform="translate(427.799896 0)"/>
     <use xlink:href="#NimbusRomNo9L-Reg-20" transform="translate(472.19989 0)"/>
     <use xlink:href="#NimbusRomNo9L-Reg-69" transform="translate(497.199875 0)"/>
     <use xlink:href="#NimbusRomNo9L-Reg-66" transform="translate(524.999863 0)"/>
     <use xlink:href="#NimbusRomNo9L-Reg-20" transform="translate(558.29985 0)"/>
     <use xlink:href="#NimbusRomNo9L-Reg-6e" transform="translate(583.299835 0)"/>
     <use xlink:href="#NimbusRomNo9L-Reg-6f" transform="translate(633.29982 0)"/>
     <use xlink:href="#NimbusRomNo9L-Reg-20" transform="translate(683.299805 0)"/>
     <use xlink:href="#NimbusRomNo9L-Reg-6d" transform="translate(708.299789 0)"/>
     <use xlink:href="#NimbusRomNo9L-Reg-54" transform="translate(786.099777 0)"/>
     <use xlink:href="#NimbusRomNo9L-Reg-4c" transform="translate(847.199768 0)"/>
     <use xlink:href="#NimbusRomNo9L-Reg-53" transform="translate(908.299759 0)"/>
     <use xlink:href="#NimbusRomNo9L-Reg-29" transform="translate(963.89975 0)"/>
    </g>
   </g>
  </g>
 </g>
 <defs>
  <clipPath id="p658dfcd20d">
   <rect x="51.8" y="35.317562" width="430.32625" height="244.64075"/>
  </clipPath>
 </defs>
</svg>
