<?xml version="1.0" encoding="utf-8" standalone="no"?>
<!DOCTYPE svg PUBLIC "-//W3C//DTD SVG 1.1//EN"
  "http://www.w3.org/Graphics/SVG/1.1/DTD/svg11.dtd">
<svg xmlns:xlink="http://www.w3.org/1999/xlink" width="554.4pt" height="429.089443pt" viewBox="0 0 554.4 429.089443" xmlns="http://www.w3.org/2000/svg" version="1.1">
 <metadata>
  <rdf:RDF xmlns:dc="http://purl.org/dc/elements/1.1/" xmlns:cc="http://creativecommons.org/ns#" xmlns:rdf="http://www.w3.org/1999/02/22-rdf-syntax-ns#">
   <cc:Work>
    <dc:type rdf:resource="http://purl.org/dc/dcmitype/StillImage"/>
    <dc:date>2025-08-28T02:51:55.013471</dc:date>
    <dc:format>image/svg+xml</dc:format>
    <dc:creator>
     <cc:Agent>
      <dc:title>Matplotlib v3.10.5, https://matplotlib.org/</dc:title>
     </cc:Agent>
    </dc:creator>
   </cc:Work>
  </rdf:RDF>
 </metadata>
 <defs>
  <style type="text/css">*{stroke-linejoin: round; stroke-linecap: butt}</style>
 </defs>
 <g id="figure_1">
  <g id="patch_1">
   <path d="M 0 429.089443 
L 554.4 429.089443 
L 554.4 0 
L 0 0 
z
" style="fill: #ffffff"/>
  </g>
  <g id="axes_1">
   <g id="patch_2">
    <path d="M 435.327806 184.505261 
C 438.259662 197.245469 439.739739 210.27675 439.739739 223.349956 
C 439.739739 236.423161 438.259662 249.454442 435.327806 262.194651 
C 442.816642 268.856131 452.074475 273.211955 461.980953 274.734997 
C 471.887432 276.258038 482.026143 274.884278 491.170134 270.779962 
C 500.314125 266.675646 508.079033 260.013299 513.525176 251.599173 
C 518.971318 243.185048 521.86977 233.372828 521.86977 223.349956 
C 521.86977 213.327083 518.971318 203.514863 513.525176 195.100738 
C 508.079033 186.686613 500.314125 180.024265 491.170134 175.919949 
C 482.026143 171.815634 471.887432 170.441873 461.980953 171.964915 
C 452.074475 173.487957 442.816642 177.843781 435.327806 184.505261 
" clip-path="url(#p54113f9467)" style="fill: #1f77b4; opacity: 0.5"/>
   </g>
   <g id="patch_3">
    <path d="M 435.327806 184.505261 
C 426.433158 145.854097 404.527304 111.406438 373.296579 86.959167 
C 342.065855 62.511896 303.366213 49.517844 263.710064 50.163663 
C 224.053916 50.809481 185.797912 65.056791 155.379807 90.508041 
C 124.961703 115.959291 104.189159 151.101988 96.557799 190.022285 
C 101.914889 193.773943 106.289275 198.762525 109.308961 204.563806 
C 112.328647 210.365086 113.905539 216.809821 113.905539 223.349956 
C 113.905539 229.89009 112.328647 236.334825 109.308961 242.136106 
C 106.289275 247.937386 101.914889 252.925968 96.557799 256.677626 
C 104.189159 295.597924 124.961703 330.74062 155.379807 356.19187 
C 185.797912 381.64312 224.053916 395.89043 263.710064 396.536248 
C 303.366213 397.182067 342.065855 384.188015 373.296579 359.740744 
C 404.527304 335.293474 426.433158 300.845814 435.327806 262.194651 
C 429.844764 257.317368 425.45601 251.33398 422.450986 244.639097 
C 419.445962 237.944214 417.892214 230.688323 417.892214 223.349956 
C 417.892214 216.011589 419.445962 208.755697 422.450986 202.060814 
C 425.45601 195.365931 429.844764 189.382543 435.327806 184.505261 
" clip-path="url(#p54113f9467)" style="fill: #ff7f0e; opacity: 0.5"/>
   </g>
   <g id="patch_4">
    <path d="M 435.327806 184.505261 
C 429.844764 189.382543 425.45601 195.365931 422.450986 202.060814 
C 419.445962 208.755697 417.892214 216.011589 417.892214 223.349956 
C 417.892214 230.688323 419.445962 237.944214 422.450986 244.639097 
C 425.45601 251.33398 429.844764 257.317368 435.327806 262.194651 
C 438.259662 249.454442 439.739739 236.423161 439.739739 223.349956 
C 439.739739 210.27675 438.259662 197.245469 435.327806 184.505261 
" clip-path="url(#p54113f9467)" style="fill: #c8ac88; opacity: 0.5"/>
   </g>
   <g id="patch_5">
    <path d="M 96.557799 256.677626 
C 94.405149 245.699014 93.321225 234.53762 93.321225 223.349956 
C 93.321225 212.162292 94.405149 201.000897 96.557799 190.022285 
C 90.461153 185.752704 83.308257 183.236765 75.881209 182.749562 
C 68.45416 182.262359 61.033891 183.82232 54.431734 187.258879 
C 47.829578 190.695438 42.295262 195.878606 38.433911 202.241653 
C 34.57256 208.604701 32.53023 215.906945 32.53023 223.349956 
C 32.53023 230.792967 34.57256 238.09521 38.433911 244.458258 
C 42.295262 250.821306 47.829578 256.004473 54.431734 259.441032 
C 61.033891 262.877591 68.45416 264.437552 75.881209 263.950349 
C 83.308257 263.463146 90.461153 260.947207 96.557799 256.677626 
" clip-path="url(#p54113f9467)" style="fill: #2ca02c; opacity: 0.5"/>
   </g>
   <g id="patch_6">
    <path d="M 96.557799 190.022285 
C 94.405149 201.000897 93.321225 212.162292 93.321225 223.349956 
C 93.321225 234.53762 94.405149 245.699014 96.557799 256.677626 
C 101.914889 252.925968 106.289275 247.937386 109.308961 242.136106 
C 112.328647 236.334825 113.905539 229.89009 113.905539 223.349956 
C 113.905539 216.809821 112.328647 210.365086 109.308961 204.563806 
C 106.289275 198.762525 101.914889 193.773943 96.557799 190.022285 
" clip-path="url(#p54113f9467)" style="fill: #d1c929; opacity: 0.5"/>
   </g>
   <g id="text_1">
    <!-- 69 -->
    <g transform="translate(472.304755 224.057401) scale(0.17 -0.17)">
     <defs>
      <path id="NimbusRomNo9L-Reg-36" d="M 2854 4378 
C 2125 4314 1754 4192 1286 3866 
C 595 3373 218 2643 218 1786 
C 218 1229 390 666 666 346 
C 909 64 1254 -90 1651 -90 
C 2445 -90 2995 518 2995 1402 
C 2995 2227 2534 2739 1786 2739 
C 1504 2739 1376 2694 973 2451 
C 1146 3418 1862 4109 2867 4275 
L 2854 4378 
z
M 1549 2445 
C 2106 2445 2419 1984 2419 1184 
C 2419 480 2170 90 1722 90 
C 1158 90 813 691 813 1683 
C 813 2010 864 2189 992 2285 
C 1126 2387 1325 2445 1549 2445 
z
" transform="scale(0.015625)"/>
      <path id="NimbusRomNo9L-Reg-39" d="M 378 -141 
C 1094 -58 1446 64 1882 378 
C 2547 864 2938 1658 2938 2522 
C 2938 3578 2355 4326 1523 4326 
C 762 4326 192 3680 192 2816 
C 192 2035 653 1517 1344 1517 
C 1696 1517 1965 1619 2304 1882 
C 2042 838 1331 154 358 -13 
L 378 -141 
z
M 2317 2272 
C 2317 2144 2291 2086 2221 2029 
C 2042 1882 1805 1792 1574 1792 
C 1088 1792 781 2272 781 3034 
C 781 3398 883 3782 1018 3949 
C 1126 4077 1286 4147 1472 4147 
C 2029 4147 2317 3597 2317 2522 
L 2317 2272 
z
" transform="scale(0.015625)"/>
     </defs>
     <use xlink:href="#NimbusRomNo9L-Reg-36"/>
     <use xlink:href="#NimbusRomNo9L-Reg-39" transform="translate(49.999985 0)"/>
    </g>
   </g>
   <g id="text_2">
    <!-- 868 -->
    <g transform="translate(247.934491 224.057401) scale(0.17 -0.17)">
     <defs>
      <path id="NimbusRomNo9L-Reg-38" d="M 1856 2374 
C 2490 2714 2714 2982 2714 3418 
C 2714 3949 2259 4326 1613 4326 
C 915 4326 397 3898 397 3315 
C 397 2899 518 2714 1190 2125 
C 493 1594 358 1408 358 966 
C 358 339 858 -90 1587 -90 
C 2355 -90 2848 333 2848 992 
C 2848 1491 2630 1792 1856 2374 
z
M 1741 1715 
C 2208 1382 2362 1152 2362 794 
C 2362 378 2074 90 1658 90 
C 1171 90 845 461 845 1011 
C 845 1427 979 1690 1357 1997 
L 1741 1715 
z
M 1670 2490 
C 1101 2861 870 3155 870 3514 
C 870 3885 1158 4147 1562 4147 
C 1997 4147 2272 3866 2272 3424 
C 2272 3034 2106 2771 1670 2490 
z
" transform="scale(0.015625)"/>
     </defs>
     <use xlink:href="#NimbusRomNo9L-Reg-38"/>
     <use xlink:href="#NimbusRomNo9L-Reg-36" transform="translate(49.999985 0)"/>
     <use xlink:href="#NimbusRomNo9L-Reg-38" transform="translate(99.999969 0)"/>
    </g>
   </g>
   <g id="text_3">
    <!-- 11 -->
    <g transform="translate(420.315977 224.057401) scale(0.17 -0.17)">
     <defs>
      <path id="NimbusRomNo9L-Reg-31" d="M 755 0 
L 2522 0 
L 2522 96 
C 2029 96 1920 166 1914 474 
L 1914 4314 
L 1862 4326 
L 710 3744 
L 710 3654 
C 960 3750 1114 3795 1171 3795 
C 1306 3795 1363 3699 1363 3494 
L 1363 595 
C 1350 192 1242 102 755 96 
L 755 0 
z
" transform="scale(0.015625)"/>
     </defs>
     <use xlink:href="#NimbusRomNo9L-Reg-31"/>
     <use xlink:href="#NimbusRomNo9L-Reg-31" transform="translate(49.999985 0)"/>
    </g>
   </g>
   <g id="text_4">
    <!-- 40 -->
    <g transform="translate(54.425727 224.057401) scale(0.17 -0.17)">
     <defs>
      <path id="NimbusRomNo9L-Reg-34" d="M 3021 1478 
L 2368 1478 
L 2368 4326 
L 2086 4326 
L 77 1478 
L 77 1069 
L 1875 1069 
L 1875 0 
L 2368 0 
L 2368 1069 
L 3021 1069 
L 3021 1478 
z
M 1869 1478 
L 333 1478 
L 1869 3674 
L 1869 1478 
z
" transform="scale(0.015625)"/>
      <path id="NimbusRomNo9L-Reg-30" d="M 1626 4326 
C 1274 4326 1005 4224 768 3994 
C 397 3635 154 2899 154 2150 
C 154 1446 365 704 666 346 
C 902 64 1229 -90 1600 -90 
C 1926 -90 2202 19 2432 243 
C 2803 595 3046 1338 3046 2112 
C 3046 3424 2464 4326 1626 4326 
z
M 1606 4160 
C 2144 4160 2432 3437 2432 2099 
C 2432 762 2150 77 1600 77 
C 1050 77 768 762 768 2093 
C 768 3456 1056 4160 1606 4160 
z
" transform="scale(0.015625)"/>
     </defs>
     <use xlink:href="#NimbusRomNo9L-Reg-34"/>
     <use xlink:href="#NimbusRomNo9L-Reg-30" transform="translate(49.999985 0)"/>
    </g>
   </g>
   <g id="text_5">
    <!-- 9 -->
    <g transform="translate(99.363382 224.057401) scale(0.17 -0.17)">
     <use xlink:href="#NimbusRomNo9L-Reg-39"/>
    </g>
   </g>
   <g id="text_6">
    <!-- v1 -->
    <g transform="translate(462.512242 293.319715) scale(0.12 -0.12)">
     <defs>
      <path id="DejaVuSans-76" d="M 191 3500 
L 800 3500 
L 1894 563 
L 2988 3500 
L 3597 3500 
L 2284 0 
L 1503 0 
L 191 3500 
z
" transform="scale(0.015625)"/>
      <path id="DejaVuSans-31" d="M 794 531 
L 1825 531 
L 1825 4091 
L 703 3866 
L 703 4441 
L 1819 4666 
L 2450 4666 
L 2450 531 
L 3481 531 
L 3481 0 
L 794 0 
L 794 531 
z
" transform="scale(0.015625)"/>
     </defs>
     <use xlink:href="#DejaVuSans-76"/>
     <use xlink:href="#DejaVuSans-31" transform="translate(59.179688 0)"/>
    </g>
   </g>
   <g id="text_7">
    <!-- beta -->
    <g transform="translate(253.000482 414.540194) scale(0.12 -0.12)">
     <defs>
      <path id="DejaVuSans-62" d="M 3116 1747 
Q 3116 2381 2855 2742 
Q 2594 3103 2138 3103 
Q 1681 3103 1420 2742 
Q 1159 2381 1159 1747 
Q 1159 1113 1420 752 
Q 1681 391 2138 391 
Q 2594 391 2855 752 
Q 3116 1113 3116 1747 
z
M 1159 2969 
Q 1341 3281 1617 3432 
Q 1894 3584 2278 3584 
Q 2916 3584 3314 3078 
Q 3713 2572 3713 1747 
Q 3713 922 3314 415 
Q 2916 -91 2278 -91 
Q 1894 -91 1617 61 
Q 1341 213 1159 525 
L 1159 0 
L 581 0 
L 581 4863 
L 1159 4863 
L 1159 2969 
z
" transform="scale(0.015625)"/>
      <path id="DejaVuSans-65" d="M 3597 1894 
L 3597 1613 
L 953 1613 
Q 991 1019 1311 708 
Q 1631 397 2203 397 
Q 2534 397 2845 478 
Q 3156 559 3463 722 
L 3463 178 
Q 3153 47 2828 -22 
Q 2503 -91 2169 -91 
Q 1331 -91 842 396 
Q 353 884 353 1716 
Q 353 2575 817 3079 
Q 1281 3584 2069 3584 
Q 2775 3584 3186 3129 
Q 3597 2675 3597 1894 
z
M 3022 2063 
Q 3016 2534 2758 2815 
Q 2500 3097 2075 3097 
Q 1594 3097 1305 2825 
Q 1016 2553 972 2059 
L 3022 2063 
z
" transform="scale(0.015625)"/>
      <path id="DejaVuSans-74" d="M 1172 4494 
L 1172 3500 
L 2356 3500 
L 2356 3053 
L 1172 3053 
L 1172 1153 
Q 1172 725 1289 603 
Q 1406 481 1766 481 
L 2356 481 
L 2356 0 
L 1766 0 
Q 1100 0 847 248 
Q 594 497 594 1153 
L 594 3053 
L 172 3053 
L 172 3500 
L 594 3500 
L 594 4494 
L 1172 4494 
z
" transform="scale(0.015625)"/>
      <path id="DejaVuSans-61" d="M 2194 1759 
Q 1497 1759 1228 1600 
Q 959 1441 959 1056 
Q 959 750 1161 570 
Q 1363 391 1709 391 
Q 2188 391 2477 730 
Q 2766 1069 2766 1631 
L 2766 1759 
L 2194 1759 
z
M 3341 1997 
L 3341 0 
L 2766 0 
L 2766 531 
Q 2569 213 2275 61 
Q 1981 -91 1556 -91 
Q 1019 -91 701 211 
Q 384 513 384 1019 
Q 384 1609 779 1909 
Q 1175 2209 1959 2209 
L 2766 2209 
L 2766 2266 
Q 2766 2663 2505 2880 
Q 2244 3097 1772 3097 
Q 1472 3097 1187 3025 
Q 903 2953 641 2809 
L 641 3341 
Q 956 3463 1253 3523 
Q 1550 3584 1831 3584 
Q 2591 3584 2966 3190 
Q 3341 2797 3341 1997 
z
" transform="scale(0.015625)"/>
     </defs>
     <use xlink:href="#DejaVuSans-62"/>
     <use xlink:href="#DejaVuSans-65" transform="translate(63.476562 0)"/>
     <use xlink:href="#DejaVuSans-74" transform="translate(125 0)"/>
     <use xlink:href="#DejaVuSans-61" transform="translate(164.208984 0)"/>
    </g>
   </g>
   <g id="text_8">
    <!-- alpha -->
    <g transform="translate(56.585697 282.018592) scale(0.12 -0.12)">
     <defs>
      <path id="DejaVuSans-6c" d="M 603 4863 
L 1178 4863 
L 1178 0 
L 603 0 
L 603 4863 
z
" transform="scale(0.015625)"/>
      <path id="DejaVuSans-70" d="M 1159 525 
L 1159 -1331 
L 581 -1331 
L 581 3500 
L 1159 3500 
L 1159 2969 
Q 1341 3281 1617 3432 
Q 1894 3584 2278 3584 
Q 2916 3584 3314 3078 
Q 3713 2572 3713 1747 
Q 3713 922 3314 415 
Q 2916 -91 2278 -91 
Q 1894 -91 1617 61 
Q 1341 213 1159 525 
z
M 3116 1747 
Q 3116 2381 2855 2742 
Q 2594 3103 2138 3103 
Q 1681 3103 1420 2742 
Q 1159 2381 1159 1747 
Q 1159 1113 1420 752 
Q 1681 391 2138 391 
Q 2594 391 2855 752 
Q 3116 1113 3116 1747 
z
" transform="scale(0.015625)"/>
      <path id="DejaVuSans-68" d="M 3513 2113 
L 3513 0 
L 2938 0 
L 2938 2094 
Q 2938 2591 2744 2837 
Q 2550 3084 2163 3084 
Q 1697 3084 1428 2787 
Q 1159 2491 1159 1978 
L 1159 0 
L 581 0 
L 581 4863 
L 1159 4863 
L 1159 2956 
Q 1366 3272 1645 3428 
Q 1925 3584 2291 3584 
Q 2894 3584 3203 3211 
Q 3513 2838 3513 2113 
z
" transform="scale(0.015625)"/>
     </defs>
     <use xlink:href="#DejaVuSans-61"/>
     <use xlink:href="#DejaVuSans-6c" transform="translate(61.279297 0)"/>
     <use xlink:href="#DejaVuSans-70" transform="translate(89.0625 0)"/>
     <use xlink:href="#DejaVuSans-68" transform="translate(152.539062 0)"/>
     <use xlink:href="#DejaVuSans-61" transform="translate(215.917969 0)"/>
    </g>
   </g>
   <g id="text_9">
    <!-- Istio Authentication Usage Across Versions -->
    <g transform="translate(127.994453 11.610469) scale(0.17 -0.17)">
     <defs>
      <path id="NimbusRomNo9L-Reg-49" d="M 115 0 
L 2016 0 
L 2016 122 
C 1491 134 1402 224 1389 698 
L 1389 3539 
C 1402 4019 1485 4096 2016 4115 
L 2016 4237 
L 115 4237 
L 115 4115 
C 659 4083 730 4019 736 3539 
L 736 698 
C 730 211 653 141 115 122 
L 115 0 
z
" transform="scale(0.015625)"/>
      <path id="NimbusRomNo9L-Reg-73" d="M 2016 2010 
L 1990 2886 
L 1920 2886 
C 1882 2835 1850 2816 1818 2816 
C 1779 2816 1715 2829 1645 2861 
C 1498 2912 1350 2944 1197 2944 
C 691 2944 326 2611 326 2150 
C 326 1792 531 1536 1075 1229 
L 1446 1018 
C 1670 890 1779 736 1779 538 
C 1779 256 1574 77 1248 77 
C 806 77 582 320 435 973 
L 333 973 
L 333 -26 
L 416 -26 
C 461 38 486 51 563 51 
C 634 51 710 38 858 0 
C 1030 -38 1197 -64 1325 -64 
C 1824 -64 2227 307 2227 755 
C 2227 1075 2080 1286 1690 1517 
L 998 1926 
C 819 2029 723 2189 723 2362 
C 723 2624 922 2797 1216 2797 
C 1581 2797 1773 2586 1920 2010 
L 2016 2010 
z
" transform="scale(0.015625)"/>
      <path id="NimbusRomNo9L-Reg-74" d="M 1658 2880 
L 1011 2880 
L 1011 3622 
C 1011 3686 998 3706 966 3706 
C 595 3168 403 2950 218 2842 
C 147 2797 109 2758 109 2720 
C 109 2701 115 2688 134 2675 
L 474 2675 
L 474 749 
C 474 211 666 -64 1043 -64 
C 1357 -64 1600 90 1811 422 
L 1728 493 
C 1587 326 1485 269 1344 269 
C 1107 269 1011 442 1011 845 
L 1011 2675 
L 1658 2675 
L 1658 2880 
z
" transform="scale(0.015625)"/>
      <path id="NimbusRomNo9L-Reg-69" d="M 147 0 
L 1664 0 
L 1664 96 
C 1242 128 1197 186 1190 653 
L 1190 2925 
L 1165 2944 
L 173 2592 
L 173 2496 
L 224 2502 
C 301 2515 384 2522 442 2522 
C 595 2522 653 2419 653 2138 
L 653 653 
C 640 179 582 115 147 96 
L 147 0 
z
M 864 4371 
C 691 4371 544 4224 544 4045 
C 544 3859 685 3718 864 3718 
C 1056 3718 1197 3859 1197 4045 
C 1197 4230 1050 4371 864 4371 
z
" transform="scale(0.015625)"/>
      <path id="NimbusRomNo9L-Reg-6f" d="M 1600 2944 
C 762 2944 186 2330 186 1446 
C 186 576 781 -64 1587 -64 
C 2394 -64 3008 608 3008 1498 
C 3008 2342 2419 2944 1600 2944 
z
M 1517 2765 
C 2054 2765 2432 2150 2432 1274 
C 2432 544 2144 115 1664 115 
C 1414 115 1178 269 1043 525 
C 864 858 762 1306 762 1760 
C 762 2368 1056 2765 1517 2765 
z
" transform="scale(0.015625)"/>
      <path id="NimbusRomNo9L-Reg-20" transform="scale(0.015625)"/>
      <path id="NimbusRomNo9L-Reg-41" d="M 4518 122 
C 4230 141 4166 205 3942 678 
L 2349 4314 
L 2221 4314 
L 890 1171 
C 480 237 403 134 96 122 
L 96 0 
L 1363 0 
L 1363 122 
C 1056 122 928 198 928 384 
C 928 461 947 550 979 634 
L 1274 1382 
L 2950 1382 
L 3213 768 
C 3290 595 3334 429 3334 339 
C 3334 179 3226 128 2886 122 
L 2886 0 
L 4518 0 
L 4518 122 
z
M 1382 1645 
L 2118 3405 
L 2861 1645 
L 1382 1645 
z
" transform="scale(0.015625)"/>
      <path id="NimbusRomNo9L-Reg-75" d="M 3123 320 
L 3091 320 
C 2778 333 2733 384 2726 685 
L 2726 2880 
L 1715 2880 
L 1715 2771 
C 2112 2752 2189 2688 2189 2368 
L 2189 864 
C 2189 685 2157 595 2067 525 
C 1894 384 1696 307 1504 307 
C 1254 307 1050 525 1050 794 
L 1050 2880 
L 115 2880 
L 115 2790 
C 416 2778 506 2688 512 2381 
L 512 768 
C 512 262 819 -64 1286 -64 
C 1523 -64 1773 38 1946 211 
L 2221 486 
L 2221 -45 
L 2246 -58 
C 2566 70 2797 141 3123 230 
L 3123 320 
z
" transform="scale(0.015625)"/>
      <path id="NimbusRomNo9L-Reg-68" d="M 3117 96 
C 2771 154 2739 198 2733 653 
L 2733 1926 
C 2733 2598 2470 2944 1946 2944 
C 1568 2944 1299 2790 1005 2406 
L 1005 4352 
L 973 4371 
C 755 4294 595 4243 237 4141 
L 64 4090 
L 64 3987 
C 90 3994 109 3994 141 3994 
C 416 3994 467 3942 467 3667 
L 467 653 
C 454 192 422 141 58 96 
L 58 0 
L 1440 0 
L 1440 96 
C 1069 128 1018 198 1005 653 
L 1005 2195 
C 1274 2490 1466 2598 1715 2598 
C 2035 2598 2195 2368 2195 1920 
L 2195 653 
C 2182 198 2125 128 1760 96 
L 1760 0 
L 3117 0 
L 3117 96 
z
" transform="scale(0.015625)"/>
      <path id="NimbusRomNo9L-Reg-65" d="M 2650 1050 
C 2342 563 2067 378 1658 378 
C 1293 378 1018 563 832 928 
C 717 1171 672 1376 659 1773 
L 2630 1773 
C 2579 2189 2515 2374 2355 2579 
C 2163 2810 1869 2944 1536 2944 
C 1216 2944 915 2829 672 2611 
C 371 2349 198 1894 198 1370 
C 198 486 659 -64 1395 -64 
C 2010 -64 2483 314 2752 1005 
L 2650 1050 
z
M 672 1978 
C 742 2483 960 2714 1350 2714 
C 1741 2714 1894 2534 1978 1978 
L 672 1978 
z
" transform="scale(0.015625)"/>
      <path id="NimbusRomNo9L-Reg-6e" d="M 115 0 
L 1472 0 
L 1472 96 
C 1152 115 1050 198 1050 429 
L 1050 2227 
C 1350 2515 1498 2592 1709 2592 
C 2022 2592 2176 2394 2176 1971 
L 2176 634 
C 2163 218 2086 115 1773 96 
L 1773 0 
L 3104 0 
L 3104 96 
C 2790 128 2720 205 2714 518 
L 2714 1984 
C 2714 2586 2432 2944 1958 2944 
C 1664 2944 1466 2835 1030 2426 
L 1030 2931 
L 986 2944 
C 672 2829 454 2758 102 2656 
L 102 2547 
C 141 2566 205 2573 275 2573 
C 454 2573 512 2477 512 2163 
L 512 576 
C 506 198 435 115 115 96 
L 115 0 
z
" transform="scale(0.015625)"/>
      <path id="NimbusRomNo9L-Reg-63" d="M 2547 998 
C 2240 550 2010 397 1645 397 
C 1056 397 653 909 653 1645 
C 653 2310 1005 2758 1523 2758 
C 1754 2758 1837 2688 1901 2451 
L 1939 2310 
C 1990 2125 2106 2016 2246 2016 
C 2413 2016 2547 2138 2547 2285 
C 2547 2643 2099 2944 1562 2944 
C 1248 2944 922 2816 659 2586 
C 339 2304 160 1869 160 1357 
C 160 531 666 -64 1376 -64 
C 1664 -64 1920 38 2150 237 
C 2323 384 2445 563 2637 941 
L 2547 998 
z
" transform="scale(0.015625)"/>
      <path id="NimbusRomNo9L-Reg-61" d="M 2829 422 
C 2720 333 2643 301 2547 301 
C 2400 301 2355 390 2355 672 
L 2355 1920 
C 2355 2253 2323 2438 2227 2592 
C 2086 2822 1811 2944 1434 2944 
C 832 2944 358 2630 358 2227 
C 358 2080 480 1952 634 1952 
C 787 1952 922 2080 922 2221 
C 922 2246 915 2278 909 2323 
C 896 2381 890 2432 890 2477 
C 890 2650 1094 2790 1350 2790 
C 1664 2790 1837 2605 1837 2259 
L 1837 1869 
C 851 1472 742 1421 467 1178 
C 326 1050 237 832 237 621 
C 237 218 518 -64 909 -64 
C 1190 -64 1453 70 1843 403 
C 1875 64 1990 -64 2253 -64 
C 2470 -64 2605 13 2829 256 
L 2829 422 
z
M 1837 787 
C 1837 595 1805 525 1670 448 
C 1510 358 1338 307 1203 307 
C 979 307 800 525 800 800 
L 800 826 
C 806 1210 1088 1453 1837 1715 
L 1837 787 
z
" transform="scale(0.015625)"/>
      <path id="NimbusRomNo9L-Reg-55" d="M 4512 4237 
L 3027 4237 
L 3027 4115 
C 3520 4083 3616 3955 3629 3296 
L 3629 1568 
C 3629 1133 3584 890 3482 698 
C 3309 390 2899 192 2419 192 
C 1965 192 1651 346 1478 646 
C 1363 851 1318 1088 1318 1491 
L 1318 3539 
C 1325 4006 1389 4070 1901 4115 
L 1901 4237 
L 90 4237 
L 90 4115 
C 595 4077 659 4013 666 3539 
L 666 1542 
C 666 435 1184 -90 2272 -90 
C 2970 -90 3450 134 3699 570 
C 3853 838 3910 1133 3910 1626 
L 3910 3296 
C 3923 3968 3994 4058 4512 4115 
L 4512 4237 
z
" transform="scale(0.015625)"/>
      <path id="NimbusRomNo9L-Reg-67" d="M 3008 2483 
L 3008 2733 
L 2515 2733 
C 2381 2733 2291 2752 2163 2797 
L 2022 2848 
C 1850 2912 1677 2944 1510 2944 
C 915 2944 442 2490 442 1901 
C 442 1498 608 1254 1037 1043 
L 870 890 
C 736 762 659 691 640 666 
C 506 525 467 454 467 346 
C 467 205 538 134 806 6 
C 346 -326 179 -538 179 -774 
C 179 -1114 672 -1395 1286 -1395 
C 1766 -1395 2266 -1229 2598 -960 
C 2842 -762 2950 -557 2950 -314 
C 2950 83 2650 352 2176 371 
L 1350 410 
C 1005 422 851 480 851 582 
C 851 710 1062 934 1235 986 
C 1466 966 1587 954 1600 954 
C 1837 954 2093 1050 2291 1222 
C 2502 1402 2598 1626 2598 1946 
C 2598 2131 2566 2278 2477 2483 
L 3008 2483 
z
M 941 -13 
C 1158 -58 1664 -96 1978 -96 
C 2560 -96 2771 -179 2771 -410 
C 2771 -781 2285 -1030 1562 -1030 
C 992 -1030 627 -845 627 -563 
C 627 -416 685 -320 941 -13 
z
M 973 2163 
C 973 2541 1152 2765 1446 2765 
C 1645 2765 1811 2656 1914 2464 
C 2035 2240 2106 1952 2106 1696 
C 2106 1338 1926 1114 1632 1114 
C 1235 1114 973 1530 973 2144 
L 973 2163 
z
" transform="scale(0.015625)"/>
      <path id="NimbusRomNo9L-Reg-72" d="M 32 0 
L 1568 0 
L 1568 96 
C 1139 109 1037 198 1024 576 
L 1024 2016 
C 1024 2221 1293 2541 1472 2541 
C 1510 2541 1568 2509 1638 2445 
C 1741 2349 1811 2317 1894 2317 
C 2048 2317 2144 2426 2144 2605 
C 2144 2816 2010 2944 1792 2944 
C 1523 2944 1338 2803 1024 2342 
L 1024 2931 
L 992 2944 
C 653 2803 422 2720 45 2598 
L 45 2496 
C 134 2515 192 2522 269 2522 
C 429 2522 486 2419 486 2138 
L 486 538 
C 474 205 435 166 32 96 
L 32 0 
z
" transform="scale(0.015625)"/>
      <path id="NimbusRomNo9L-Reg-56" d="M 4461 4237 
L 3149 4237 
L 3149 4115 
C 3501 4096 3616 4026 3616 3846 
C 3616 3744 3571 3571 3494 3379 
L 2554 1030 
L 1587 3194 
C 1376 3667 1325 3808 1325 3904 
C 1325 4032 1414 4090 1619 4102 
C 1651 4102 1722 4109 1805 4115 
L 1805 4237 
L 102 4237 
L 102 4115 
C 416 4102 506 4013 781 3443 
L 2355 -70 
L 2451 -70 
L 3872 3520 
C 4083 4026 4154 4096 4461 4115 
L 4461 4237 
z
" transform="scale(0.015625)"/>
     </defs>
     <use xlink:href="#NimbusRomNo9L-Reg-49"/>
     <use xlink:href="#NimbusRomNo9L-Reg-73" transform="translate(33.299988 0)"/>
     <use xlink:href="#NimbusRomNo9L-Reg-74" transform="translate(72.199982 0)"/>
     <use xlink:href="#NimbusRomNo9L-Reg-69" transform="translate(99.999969 0)"/>
     <use xlink:href="#NimbusRomNo9L-Reg-6f" transform="translate(127.799957 0)"/>
     <use xlink:href="#NimbusRomNo9L-Reg-20" transform="translate(177.799942 0)"/>
     <use xlink:href="#NimbusRomNo9L-Reg-41" transform="translate(202.799927 0)"/>
     <use xlink:href="#NimbusRomNo9L-Reg-75" transform="translate(274.999908 0)"/>
     <use xlink:href="#NimbusRomNo9L-Reg-74" transform="translate(324.999893 0)"/>
     <use xlink:href="#NimbusRomNo9L-Reg-68" transform="translate(352.799881 0)"/>
     <use xlink:href="#NimbusRomNo9L-Reg-65" transform="translate(402.799866 0)"/>
     <use xlink:href="#NimbusRomNo9L-Reg-6e" transform="translate(447.19986 0)"/>
     <use xlink:href="#NimbusRomNo9L-Reg-74" transform="translate(497.199844 0)"/>
     <use xlink:href="#NimbusRomNo9L-Reg-69" transform="translate(524.999832 0)"/>
     <use xlink:href="#NimbusRomNo9L-Reg-63" transform="translate(552.79982 0)"/>
     <use xlink:href="#NimbusRomNo9L-Reg-61" transform="translate(597.199814 0)"/>
     <use xlink:href="#NimbusRomNo9L-Reg-74" transform="translate(641.599808 0)"/>
     <use xlink:href="#NimbusRomNo9L-Reg-69" transform="translate(669.399796 0)"/>
     <use xlink:href="#NimbusRomNo9L-Reg-6f" transform="translate(697.199783 0)"/>
     <use xlink:href="#NimbusRomNo9L-Reg-6e" transform="translate(747.199768 0)"/>
     <use xlink:href="#NimbusRomNo9L-Reg-20" transform="translate(797.199753 0)"/>
     <use xlink:href="#NimbusRomNo9L-Reg-55" transform="translate(822.199738 0)"/>
     <use xlink:href="#NimbusRomNo9L-Reg-73" transform="translate(894.399719 0)"/>
     <use xlink:href="#NimbusRomNo9L-Reg-61" transform="translate(933.299713 0)"/>
     <use xlink:href="#NimbusRomNo9L-Reg-67" transform="translate(977.699707 0)"/>
     <use xlink:href="#NimbusRomNo9L-Reg-65" transform="translate(1027.699692 0)"/>
     <use xlink:href="#NimbusRomNo9L-Reg-20" transform="translate(1072.099686 0)"/>
     <use xlink:href="#NimbusRomNo9L-Reg-41" transform="translate(1097.09967 0)"/>
     <use xlink:href="#NimbusRomNo9L-Reg-63" transform="translate(1169.299652 0)"/>
     <use xlink:href="#NimbusRomNo9L-Reg-72" transform="translate(1213.699646 0)"/>
     <use xlink:href="#NimbusRomNo9L-Reg-6f" transform="translate(1246.999634 0)"/>
     <use xlink:href="#NimbusRomNo9L-Reg-73" transform="translate(1296.999619 0)"/>
     <use xlink:href="#NimbusRomNo9L-Reg-73" transform="translate(1335.899612 0)"/>
     <use xlink:href="#NimbusRomNo9L-Reg-20" transform="translate(1374.799606 0)"/>
     <use xlink:href="#NimbusRomNo9L-Reg-56" transform="translate(1399.799591 0)"/>
     <use xlink:href="#NimbusRomNo9L-Reg-65" transform="translate(1471.999573 0)"/>
     <use xlink:href="#NimbusRomNo9L-Reg-72" transform="translate(1516.399567 0)"/>
     <use xlink:href="#NimbusRomNo9L-Reg-73" transform="translate(1549.699554 0)"/>
     <use xlink:href="#NimbusRomNo9L-Reg-69" transform="translate(1588.599548 0)"/>
     <use xlink:href="#NimbusRomNo9L-Reg-6f" transform="translate(1616.399536 0)"/>
     <use xlink:href="#NimbusRomNo9L-Reg-6e" transform="translate(1666.399521 0)"/>
     <use xlink:href="#NimbusRomNo9L-Reg-73" transform="translate(1716.399506 0)"/>
    </g>
   </g>
   <g id="legend_1">
    <g id="patch_7">
     <path d="M 451.276406 103.479062 
L 542.5 103.479062 
Q 545.9 103.479062 545.9 100.079062 
L 545.9 29.510469 
Q 545.9 26.110469 542.5 26.110469 
L 451.276406 26.110469 
Q 447.876406 26.110469 447.876406 29.510469 
L 447.876406 100.079062 
Q 447.876406 103.479062 451.276406 103.479062 
z
" style="fill: #ffffff; opacity: 0.8; stroke: #cccccc; stroke-linejoin: miter"/>
    </g>
    <g id="patch_8">
     <path d="M 454.676406 44.810469 
L 488.676406 44.810469 
L 488.676406 32.910469 
L 454.676406 32.910469 
z
" style="fill: #1f77b4; opacity: 0.5"/>
    </g>
    <g id="text_10">
     <!-- v1 -->
     <g transform="translate(502.276406 44.810469) scale(0.17 -0.17)">
      <defs>
       <path id="NimbusRomNo9L-Reg-76" d="M 3053 2880 
L 2163 2880 
L 2163 2784 
C 2368 2765 2464 2701 2464 2579 
C 2464 2515 2451 2451 2426 2387 
L 1792 730 
L 1139 2368 
C 1101 2458 1082 2547 1082 2605 
C 1082 2720 1152 2765 1376 2784 
L 1376 2880 
L 122 2880 
L 122 2784 
C 365 2771 410 2707 704 2048 
L 1472 211 
C 1485 173 1504 128 1523 77 
C 1542 26 1562 -19 1581 -51 
C 1594 -77 1619 -90 1638 -90 
C 1677 -90 1722 -6 1818 230 
L 2637 2285 
C 2822 2720 2861 2765 3053 2784 
L 3053 2880 
z
" transform="scale(0.015625)"/>
      </defs>
      <use xlink:href="#NimbusRomNo9L-Reg-76"/>
      <use xlink:href="#NimbusRomNo9L-Reg-31" transform="translate(49.999985 0)"/>
     </g>
    </g>
    <g id="patch_9">
     <path d="M 454.676406 68.9 
L 488.676406 68.9 
L 488.676406 57 
L 454.676406 57 
z
" style="fill: #ff7f0e; opacity: 0.5"/>
    </g>
    <g id="text_11">
     <!-- beta -->
     <g transform="translate(502.276406 68.9) scale(0.17 -0.17)">
      <defs>
       <path id="NimbusRomNo9L-Reg-62" d="M 979 4358 
L 947 4371 
C 678 4275 506 4224 205 4141 
L 19 4090 
L 19 3987 
C 58 3994 83 3994 128 3994 
C 390 3994 442 3936 442 3667 
L 442 346 
C 442 147 979 -64 1498 -64 
C 2342 -64 2995 640 2995 1555 
C 2995 2349 2509 2944 1869 2944 
C 1478 2944 1107 2720 979 2400 
L 979 4358 
z
M 979 2061 
C 979 2310 1280 2541 1613 2541 
C 1792 2541 1952 2477 2086 2355 
C 2291 2157 2432 1722 2432 1261 
C 2432 550 2125 141 1600 141 
C 1267 141 979 282 979 448 
L 979 2061 
z
" transform="scale(0.015625)"/>
      </defs>
      <use xlink:href="#NimbusRomNo9L-Reg-62"/>
      <use xlink:href="#NimbusRomNo9L-Reg-65" transform="translate(49.999985 0)"/>
      <use xlink:href="#NimbusRomNo9L-Reg-74" transform="translate(94.399979 0)"/>
      <use xlink:href="#NimbusRomNo9L-Reg-61" transform="translate(122.199966 0)"/>
     </g>
    </g>
    <g id="patch_10">
     <path d="M 454.676406 92.989531 
L 488.676406 92.989531 
L 488.676406 81.089531 
L 454.676406 81.089531 
z
" style="fill: #2ca02c; opacity: 0.5"/>
    </g>
    <g id="text_12">
     <!-- alpha -->
     <g transform="translate(502.276406 92.989531) scale(0.17 -0.17)">
      <defs>
       <path id="NimbusRomNo9L-Reg-6c" d="M 134 0 
L 1645 0 
L 1645 96 
C 1242 115 1171 179 1165 538 
L 1165 4358 
L 1139 4371 
C 806 4262 563 4198 122 4090 
L 122 3987 
L 160 3987 
C 230 3994 307 4000 358 4000 
C 563 4000 627 3910 627 3610 
L 627 557 
C 621 211 531 122 134 96 
L 134 0 
z
" transform="scale(0.015625)"/>
       <path id="NimbusRomNo9L-Reg-70" d="M 32 -1389 
L 1581 -1389 
L 1581 -1274 
C 1101 -1267 1024 -1203 1018 -794 
L 1018 211 
C 1248 0 1395 -64 1664 -64 
C 2426 -64 3008 653 3008 1581 
C 3008 2374 2560 2944 1939 2944 
C 1581 2944 1299 2790 1018 2438 
L 1018 2931 
L 979 2944 
C 634 2810 410 2726 58 2618 
L 58 2515 
C 115 2522 160 2522 218 2522 
C 435 2522 480 2458 480 2157 
L 480 -838 
C 480 -1178 410 -1242 32 -1280 
L 32 -1389 
z
M 1018 2138 
C 1018 2330 1376 2560 1670 2560 
C 2144 2560 2458 2074 2458 1325 
C 2458 621 2144 141 1683 141 
C 1382 141 1018 371 1018 563 
L 1018 2138 
z
" transform="scale(0.015625)"/>
      </defs>
      <use xlink:href="#NimbusRomNo9L-Reg-61"/>
      <use xlink:href="#NimbusRomNo9L-Reg-6c" transform="translate(44.399994 0)"/>
      <use xlink:href="#NimbusRomNo9L-Reg-70" transform="translate(72.199982 0)"/>
      <use xlink:href="#NimbusRomNo9L-Reg-68" transform="translate(122.199966 0)"/>
      <use xlink:href="#NimbusRomNo9L-Reg-61" transform="translate(172.199951 0)"/>
     </g>
    </g>
   </g>
  </g>
 </g>
 <defs>
  <clipPath id="p54113f9467">
   <rect x="0" y="17.610469" width="554.4" height="411.478974"/>
  </clipPath>
 </defs>
</svg>
