<?xml version="1.0" encoding="utf-8" standalone="no"?>
<!DOCTYPE svg PUBLIC "-//W3C//DTD SVG 1.1//EN"
  "http://www.w3.org/Graphics/SVG/1.1/DTD/svg11.dtd">
<svg xmlns:xlink="http://www.w3.org/1999/xlink" width="718.957723pt" height="348.12pt" viewBox="0 0 718.957723 348.12" xmlns="http://www.w3.org/2000/svg" version="1.1">
 <metadata>
  <rdf:RDF xmlns:dc="http://purl.org/dc/elements/1.1/" xmlns:cc="http://creativecommons.org/ns#" xmlns:rdf="http://www.w3.org/1999/02/22-rdf-syntax-ns#">
   <cc:Work>
    <dc:type rdf:resource="http://purl.org/dc/dcmitype/StillImage"/>
    <dc:date>2025-08-28T04:39:00.722442</dc:date>
    <dc:format>image/svg+xml</dc:format>
    <dc:creator>
     <cc:Agent>
      <dc:title>Matplotlib v3.10.5, https://matplotlib.org/</dc:title>
     </cc:Agent>
    </dc:creator>
   </cc:Work>
  </rdf:RDF>
 </metadata>
 <defs>
  <style type="text/css">*{stroke-linejoin: round; stroke-linecap: butt}</style>
 </defs>
 <g id="figure_1">
  <g id="patch_1">
   <path d="M 0 348.12 
L 718.957723 348.12 
L 718.957723 0 
L 0 0 
z
" style="fill: #ffffff"/>
  </g>
  <g id="axes_1">
   <g id="patch_2">
    <path d="M 58.3 321.32 
L 697.721662 321.32 
L 697.721662 0 
L 58.3 0 
z
" style="fill: #ffffff"/>
   </g>
   <g id="matplotlib.axis_1">
    <g id="xtick_1">
     <g id="line2d_1">
      <path d="M 137.418608 321.32 
L 137.418608 0 
" clip-path="url(#pc7283f76f5)" style="fill: none; stroke: #b0b0b0; stroke-opacity: 0.3; stroke-width: 0.8; stroke-linecap: square"/>
     </g>
     <g id="line2d_2">
      <defs>
       <path id="m0a5971d4e0" d="M 0 0 
L 0 3.5 
" style="stroke: #000000; stroke-width: 0.8"/>
      </defs>
      <g>
       <use xlink:href="#m0a5971d4e0" x="137.418608" y="321.32" style="stroke: #000000; stroke-width: 0.8"/>
      </g>
     </g>
     <g id="text_1">
      <!-- 2019 -->
      <g transform="translate(115.418608 343.345312) scale(0.22 -0.22)">
       <defs>
        <path id="NimbusRomNo9L-Reg-32" d="M 3040 877 
L 2957 909 
C 2720 538 2650 493 2349 486 
L 819 486 
L 1894 1613 
C 2464 2208 2714 2694 2714 3200 
C 2714 3834 2195 4326 1530 4326 
C 1178 4326 845 4186 608 3930 
C 403 3712 307 3507 198 3053 
L 333 3021 
C 589 3648 813 3853 1261 3853 
C 1805 3853 2163 3488 2163 2950 
C 2163 2445 1869 1856 1331 1286 
L 192 77 
L 192 0 
L 2688 0 
L 3040 877 
z
" transform="scale(0.015625)"/>
        <path id="NimbusRomNo9L-Reg-30" d="M 1626 4326 
C 1274 4326 1005 4224 768 3994 
C 397 3635 154 2899 154 2150 
C 154 1446 365 704 666 346 
C 902 64 1229 -90 1600 -90 
C 1926 -90 2202 19 2432 243 
C 2803 595 3046 1338 3046 2112 
C 3046 3424 2464 4326 1626 4326 
z
M 1606 4160 
C 2144 4160 2432 3437 2432 2099 
C 2432 762 2150 77 1600 77 
C 1050 77 768 762 768 2093 
C 768 3456 1056 4160 1606 4160 
z
" transform="scale(0.015625)"/>
        <path id="NimbusRomNo9L-Reg-31" d="M 755 0 
L 2522 0 
L 2522 96 
C 2029 96 1920 166 1914 474 
L 1914 4314 
L 1862 4326 
L 710 3744 
L 710 3654 
C 960 3750 1114 3795 1171 3795 
C 1306 3795 1363 3699 1363 3494 
L 1363 595 
C 1350 192 1242 102 755 96 
L 755 0 
z
" transform="scale(0.015625)"/>
        <path id="NimbusRomNo9L-Reg-39" d="M 378 -141 
C 1094 -58 1446 64 1882 378 
C 2547 864 2938 1658 2938 2522 
C 2938 3578 2355 4326 1523 4326 
C 762 4326 192 3680 192 2816 
C 192 2035 653 1517 1344 1517 
C 1696 1517 1965 1619 2304 1882 
C 2042 838 1331 154 358 -13 
L 378 -141 
z
M 2317 2272 
C 2317 2144 2291 2086 2221 2029 
C 2042 1882 1805 1792 1574 1792 
C 1088 1792 781 2272 781 3034 
C 781 3398 883 3782 1018 3949 
C 1126 4077 1286 4147 1472 4147 
C 2029 4147 2317 3597 2317 2522 
L 2317 2272 
z
" transform="scale(0.015625)"/>
       </defs>
       <use xlink:href="#NimbusRomNo9L-Reg-32"/>
       <use xlink:href="#NimbusRomNo9L-Reg-30" transform="translate(49.999985 0)"/>
       <use xlink:href="#NimbusRomNo9L-Reg-31" transform="translate(99.999969 0)"/>
       <use xlink:href="#NimbusRomNo9L-Reg-39" transform="translate(149.999954 0)"/>
      </g>
     </g>
    </g>
    <g id="xtick_2">
     <g id="line2d_3">
      <path d="M 217.290245 321.32 
L 217.290245 0 
" clip-path="url(#pc7283f76f5)" style="fill: none; stroke: #b0b0b0; stroke-opacity: 0.3; stroke-width: 0.8; stroke-linecap: square"/>
     </g>
     <g id="line2d_4">
      <g>
       <use xlink:href="#m0a5971d4e0" x="217.290245" y="321.32" style="stroke: #000000; stroke-width: 0.8"/>
      </g>
     </g>
     <g id="text_2">
      <!-- 2020 -->
      <g transform="translate(195.290245 343.345312) scale(0.22 -0.22)">
       <use xlink:href="#NimbusRomNo9L-Reg-32"/>
       <use xlink:href="#NimbusRomNo9L-Reg-30" transform="translate(49.999985 0)"/>
       <use xlink:href="#NimbusRomNo9L-Reg-32" transform="translate(99.999969 0)"/>
       <use xlink:href="#NimbusRomNo9L-Reg-30" transform="translate(149.999954 0)"/>
      </g>
     </g>
    </g>
    <g id="xtick_3">
     <g id="line2d_5">
      <path d="M 297.380709 321.32 
L 297.380709 0 
" clip-path="url(#pc7283f76f5)" style="fill: none; stroke: #b0b0b0; stroke-opacity: 0.3; stroke-width: 0.8; stroke-linecap: square"/>
     </g>
     <g id="line2d_6">
      <g>
       <use xlink:href="#m0a5971d4e0" x="297.380709" y="321.32" style="stroke: #000000; stroke-width: 0.8"/>
      </g>
     </g>
     <g id="text_3">
      <!-- 2021 -->
      <g transform="translate(275.380709 343.345312) scale(0.22 -0.22)">
       <use xlink:href="#NimbusRomNo9L-Reg-32"/>
       <use xlink:href="#NimbusRomNo9L-Reg-30" transform="translate(49.999985 0)"/>
       <use xlink:href="#NimbusRomNo9L-Reg-32" transform="translate(99.999969 0)"/>
       <use xlink:href="#NimbusRomNo9L-Reg-31" transform="translate(149.999954 0)"/>
      </g>
     </g>
    </g>
    <g id="xtick_4">
     <g id="line2d_7">
      <path d="M 377.252347 321.32 
L 377.252347 0 
" clip-path="url(#pc7283f76f5)" style="fill: none; stroke: #b0b0b0; stroke-opacity: 0.3; stroke-width: 0.8; stroke-linecap: square"/>
     </g>
     <g id="line2d_8">
      <g>
       <use xlink:href="#m0a5971d4e0" x="377.252347" y="321.32" style="stroke: #000000; stroke-width: 0.8"/>
      </g>
     </g>
     <g id="text_4">
      <!-- 2022 -->
      <g transform="translate(355.252347 343.345312) scale(0.22 -0.22)">
       <use xlink:href="#NimbusRomNo9L-Reg-32"/>
       <use xlink:href="#NimbusRomNo9L-Reg-30" transform="translate(49.999985 0)"/>
       <use xlink:href="#NimbusRomNo9L-Reg-32" transform="translate(99.999969 0)"/>
       <use xlink:href="#NimbusRomNo9L-Reg-32" transform="translate(149.999954 0)"/>
      </g>
     </g>
    </g>
    <g id="xtick_5">
     <g id="line2d_9">
      <path d="M 457.123984 321.32 
L 457.123984 0 
" clip-path="url(#pc7283f76f5)" style="fill: none; stroke: #b0b0b0; stroke-opacity: 0.3; stroke-width: 0.8; stroke-linecap: square"/>
     </g>
     <g id="line2d_10">
      <g>
       <use xlink:href="#m0a5971d4e0" x="457.123984" y="321.32" style="stroke: #000000; stroke-width: 0.8"/>
      </g>
     </g>
     <g id="text_5">
      <!-- 2023 -->
      <g transform="translate(435.123984 343.345312) scale(0.22 -0.22)">
       <defs>
        <path id="NimbusRomNo9L-Reg-33" d="M 979 2112 
C 1357 2112 1504 2099 1651 2042 
C 2054 1894 2298 1536 2298 1094 
C 2298 550 1939 141 1466 141 
C 1286 141 1158 186 922 339 
C 736 454 627 499 518 499 
C 371 499 275 410 275 275 
C 275 51 550 -90 998 -90 
C 1485 -90 1990 77 2298 339 
C 2598 602 2758 973 2758 1402 
C 2758 1734 2656 2029 2477 2227 
C 2342 2368 2221 2445 1946 2566 
C 2381 2867 2541 3104 2541 3450 
C 2541 3974 2138 4326 1542 4326 
C 1222 4326 941 4218 710 4013 
C 518 3840 422 3674 288 3290 
L 384 3264 
C 640 3738 928 3942 1331 3942 
C 1754 3942 2035 3667 2035 3258 
C 2035 3027 1939 2803 1779 2637 
C 1587 2445 1408 2349 973 2195 
L 979 2112 
z
" transform="scale(0.015625)"/>
       </defs>
       <use xlink:href="#NimbusRomNo9L-Reg-32"/>
       <use xlink:href="#NimbusRomNo9L-Reg-30" transform="translate(49.999985 0)"/>
       <use xlink:href="#NimbusRomNo9L-Reg-32" transform="translate(99.999969 0)"/>
       <use xlink:href="#NimbusRomNo9L-Reg-33" transform="translate(149.999954 0)"/>
      </g>
     </g>
    </g>
    <g id="xtick_6">
     <g id="line2d_11">
      <path d="M 536.995621 321.32 
L 536.995621 0 
" clip-path="url(#pc7283f76f5)" style="fill: none; stroke: #b0b0b0; stroke-opacity: 0.3; stroke-width: 0.8; stroke-linecap: square"/>
     </g>
     <g id="line2d_12">
      <g>
       <use xlink:href="#m0a5971d4e0" x="536.995621" y="321.32" style="stroke: #000000; stroke-width: 0.8"/>
      </g>
     </g>
     <g id="text_6">
      <!-- 2024 -->
      <g transform="translate(514.995621 343.345312) scale(0.22 -0.22)">
       <defs>
        <path id="NimbusRomNo9L-Reg-34" d="M 3021 1478 
L 2368 1478 
L 2368 4326 
L 2086 4326 
L 77 1478 
L 77 1069 
L 1875 1069 
L 1875 0 
L 2368 0 
L 2368 1069 
L 3021 1069 
L 3021 1478 
z
M 1869 1478 
L 333 1478 
L 1869 3674 
L 1869 1478 
z
" transform="scale(0.015625)"/>
       </defs>
       <use xlink:href="#NimbusRomNo9L-Reg-32"/>
       <use xlink:href="#NimbusRomNo9L-Reg-30" transform="translate(49.999985 0)"/>
       <use xlink:href="#NimbusRomNo9L-Reg-32" transform="translate(99.999969 0)"/>
       <use xlink:href="#NimbusRomNo9L-Reg-34" transform="translate(149.999954 0)"/>
      </g>
     </g>
    </g>
    <g id="xtick_7">
     <g id="line2d_13">
      <path d="M 617.086085 321.32 
L 617.086085 0 
" clip-path="url(#pc7283f76f5)" style="fill: none; stroke: #b0b0b0; stroke-opacity: 0.3; stroke-width: 0.8; stroke-linecap: square"/>
     </g>
     <g id="line2d_14">
      <g>
       <use xlink:href="#m0a5971d4e0" x="617.086085" y="321.32" style="stroke: #000000; stroke-width: 0.8"/>
      </g>
     </g>
     <g id="text_7">
      <!-- 2025 -->
      <g transform="translate(595.086085 343.345312) scale(0.22 -0.22)">
       <defs>
        <path id="NimbusRomNo9L-Reg-35" d="M 1158 3731 
L 2413 3731 
C 2522 3731 2541 3738 2560 3789 
L 2803 4358 
L 2746 4403 
C 2650 4275 2592 4237 2451 4237 
L 1114 4237 
L 416 2720 
C 410 2707 410 2701 410 2688 
C 410 2650 435 2637 486 2637 
C 691 2637 941 2592 1210 2509 
C 1946 2272 2278 1882 2278 1242 
C 2278 627 1894 147 1389 147 
C 1261 147 1158 192 966 333 
C 762 486 621 544 474 544 
C 294 544 205 467 205 307 
C 205 64 499 -90 986 -90 
C 1517 -90 1978 83 2304 410 
C 2592 698 2726 1062 2726 1549 
C 2726 2010 2605 2304 2291 2624 
C 2010 2906 1645 3053 890 3187 
L 1158 3731 
z
" transform="scale(0.015625)"/>
       </defs>
       <use xlink:href="#NimbusRomNo9L-Reg-32"/>
       <use xlink:href="#NimbusRomNo9L-Reg-30" transform="translate(49.999985 0)"/>
       <use xlink:href="#NimbusRomNo9L-Reg-32" transform="translate(99.999969 0)"/>
       <use xlink:href="#NimbusRomNo9L-Reg-35" transform="translate(149.999954 0)"/>
      </g>
     </g>
    </g>
    <g id="xtick_8">
     <g id="line2d_15">
      <path d="M 696.957723 321.32 
L 696.957723 0 
" clip-path="url(#pc7283f76f5)" style="fill: none; stroke: #b0b0b0; stroke-opacity: 0.3; stroke-width: 0.8; stroke-linecap: square"/>
     </g>
     <g id="line2d_16">
      <g>
       <use xlink:href="#m0a5971d4e0" x="696.957723" y="321.32" style="stroke: #000000; stroke-width: 0.8"/>
      </g>
     </g>
     <g id="text_8">
      <!-- 2026 -->
      <g transform="translate(674.957723 343.345312) scale(0.22 -0.22)">
       <defs>
        <path id="NimbusRomNo9L-Reg-36" d="M 2854 4378 
C 2125 4314 1754 4192 1286 3866 
C 595 3373 218 2643 218 1786 
C 218 1229 390 666 666 346 
C 909 64 1254 -90 1651 -90 
C 2445 -90 2995 518 2995 1402 
C 2995 2227 2534 2739 1786 2739 
C 1504 2739 1376 2694 973 2451 
C 1146 3418 1862 4109 2867 4275 
L 2854 4378 
z
M 1549 2445 
C 2106 2445 2419 1984 2419 1184 
C 2419 480 2170 90 1722 90 
C 1158 90 813 691 813 1683 
C 813 2010 864 2189 992 2285 
C 1126 2387 1325 2445 1549 2445 
z
" transform="scale(0.015625)"/>
       </defs>
       <use xlink:href="#NimbusRomNo9L-Reg-32"/>
       <use xlink:href="#NimbusRomNo9L-Reg-30" transform="translate(49.999985 0)"/>
       <use xlink:href="#NimbusRomNo9L-Reg-32" transform="translate(99.999969 0)"/>
       <use xlink:href="#NimbusRomNo9L-Reg-36" transform="translate(149.999954 0)"/>
      </g>
     </g>
    </g>
   </g>
   <g id="matplotlib.axis_2">
    <g id="ytick_1">
     <g id="line2d_17">
      <path d="M 58.3 306.714545 
L 697.721662 306.714545 
" clip-path="url(#pc7283f76f5)" style="fill: none; stroke: #b0b0b0; stroke-opacity: 0.3; stroke-width: 0.8; stroke-linecap: square"/>
     </g>
     <g id="line2d_18">
      <defs>
       <path id="m33e75cedfa" d="M 0 0 
L -3.5 0 
" style="stroke: #000000; stroke-width: 0.8"/>
      </defs>
      <g>
       <use xlink:href="#m33e75cedfa" x="58.3" y="306.714545" style="stroke: #000000; stroke-width: 0.8"/>
      </g>
     </g>
     <g id="text_9">
      <!-- 0.0 -->
      <g transform="translate(23.8 314.227202) scale(0.22 -0.22)">
       <defs>
        <path id="NimbusRomNo9L-Reg-2e" d="M 800 640 
C 608 640 448 480 448 275 
C 448 90 608 -70 794 -70 
C 992 -70 1158 83 1158 275 
C 1158 474 992 640 800 640 
z
" transform="scale(0.015625)"/>
       </defs>
       <use xlink:href="#NimbusRomNo9L-Reg-30"/>
       <use xlink:href="#NimbusRomNo9L-Reg-2e" transform="translate(49.999985 0)"/>
       <use xlink:href="#NimbusRomNo9L-Reg-30" transform="translate(74.999969 0)"/>
      </g>
     </g>
    </g>
    <g id="ytick_2">
     <g id="line2d_19">
      <path d="M 58.3 248.258462 
L 697.721662 248.258462 
" clip-path="url(#pc7283f76f5)" style="fill: none; stroke: #b0b0b0; stroke-opacity: 0.3; stroke-width: 0.8; stroke-linecap: square"/>
     </g>
     <g id="line2d_20">
      <g>
       <use xlink:href="#m33e75cedfa" x="58.3" y="248.258462" style="stroke: #000000; stroke-width: 0.8"/>
      </g>
     </g>
     <g id="text_10">
      <!-- 0.2 -->
      <g transform="translate(23.8 255.771119) scale(0.22 -0.22)">
       <use xlink:href="#NimbusRomNo9L-Reg-30"/>
       <use xlink:href="#NimbusRomNo9L-Reg-2e" transform="translate(49.999985 0)"/>
       <use xlink:href="#NimbusRomNo9L-Reg-32" transform="translate(74.999969 0)"/>
      </g>
     </g>
    </g>
    <g id="ytick_3">
     <g id="line2d_21">
      <path d="M 58.3 189.802379 
L 697.721662 189.802379 
" clip-path="url(#pc7283f76f5)" style="fill: none; stroke: #b0b0b0; stroke-opacity: 0.3; stroke-width: 0.8; stroke-linecap: square"/>
     </g>
     <g id="line2d_22">
      <g>
       <use xlink:href="#m33e75cedfa" x="58.3" y="189.802379" style="stroke: #000000; stroke-width: 0.8"/>
      </g>
     </g>
     <g id="text_11">
      <!-- 0.4 -->
      <g transform="translate(23.8 197.315035) scale(0.22 -0.22)">
       <use xlink:href="#NimbusRomNo9L-Reg-30"/>
       <use xlink:href="#NimbusRomNo9L-Reg-2e" transform="translate(49.999985 0)"/>
       <use xlink:href="#NimbusRomNo9L-Reg-34" transform="translate(74.999969 0)"/>
      </g>
     </g>
    </g>
    <g id="ytick_4">
     <g id="line2d_23">
      <path d="M 58.3 131.346296 
L 697.721662 131.346296 
" clip-path="url(#pc7283f76f5)" style="fill: none; stroke: #b0b0b0; stroke-opacity: 0.3; stroke-width: 0.8; stroke-linecap: square"/>
     </g>
     <g id="line2d_24">
      <g>
       <use xlink:href="#m33e75cedfa" x="58.3" y="131.346296" style="stroke: #000000; stroke-width: 0.8"/>
      </g>
     </g>
     <g id="text_12">
      <!-- 0.6 -->
      <g transform="translate(23.8 138.858952) scale(0.22 -0.22)">
       <use xlink:href="#NimbusRomNo9L-Reg-30"/>
       <use xlink:href="#NimbusRomNo9L-Reg-2e" transform="translate(49.999985 0)"/>
       <use xlink:href="#NimbusRomNo9L-Reg-36" transform="translate(74.999969 0)"/>
      </g>
     </g>
    </g>
    <g id="ytick_5">
     <g id="line2d_25">
      <path d="M 58.3 72.890213 
L 697.721662 72.890213 
" clip-path="url(#pc7283f76f5)" style="fill: none; stroke: #b0b0b0; stroke-opacity: 0.3; stroke-width: 0.8; stroke-linecap: square"/>
     </g>
     <g id="line2d_26">
      <g>
       <use xlink:href="#m33e75cedfa" x="58.3" y="72.890213" style="stroke: #000000; stroke-width: 0.8"/>
      </g>
     </g>
     <g id="text_13">
      <!-- 0.8 -->
      <g transform="translate(23.8 80.402869) scale(0.22 -0.22)">
       <defs>
        <path id="NimbusRomNo9L-Reg-38" d="M 1856 2374 
C 2490 2714 2714 2982 2714 3418 
C 2714 3949 2259 4326 1613 4326 
C 915 4326 397 3898 397 3315 
C 397 2899 518 2714 1190 2125 
C 493 1594 358 1408 358 966 
C 358 339 858 -90 1587 -90 
C 2355 -90 2848 333 2848 992 
C 2848 1491 2630 1792 1856 2374 
z
M 1741 1715 
C 2208 1382 2362 1152 2362 794 
C 2362 378 2074 90 1658 90 
C 1171 90 845 461 845 1011 
C 845 1427 979 1690 1357 1997 
L 1741 1715 
z
M 1670 2490 
C 1101 2861 870 3155 870 3514 
C 870 3885 1158 4147 1562 4147 
C 1997 4147 2272 3866 2272 3424 
C 2272 3034 2106 2771 1670 2490 
z
" transform="scale(0.015625)"/>
       </defs>
       <use xlink:href="#NimbusRomNo9L-Reg-30"/>
       <use xlink:href="#NimbusRomNo9L-Reg-2e" transform="translate(49.999985 0)"/>
       <use xlink:href="#NimbusRomNo9L-Reg-38" transform="translate(74.999969 0)"/>
      </g>
     </g>
    </g>
    <g id="ytick_6">
     <g id="line2d_27">
      <path d="M 58.3 14.43413 
L 697.721662 14.43413 
" clip-path="url(#pc7283f76f5)" style="fill: none; stroke: #b0b0b0; stroke-opacity: 0.3; stroke-width: 0.8; stroke-linecap: square"/>
     </g>
     <g id="line2d_28">
      <g>
       <use xlink:href="#m33e75cedfa" x="58.3" y="14.43413" style="stroke: #000000; stroke-width: 0.8"/>
      </g>
     </g>
     <g id="text_14">
      <!-- 1.0 -->
      <g transform="translate(23.8 21.946786) scale(0.22 -0.22)">
       <use xlink:href="#NimbusRomNo9L-Reg-31"/>
       <use xlink:href="#NimbusRomNo9L-Reg-2e" transform="translate(49.999985 0)"/>
       <use xlink:href="#NimbusRomNo9L-Reg-30" transform="translate(74.999969 0)"/>
      </g>
     </g>
    </g>
    <g id="text_15">
     <!-- Repositories Active After Date (%) -->
     <g transform="translate(15.025313 316.456094) rotate(-90) scale(0.22 -0.22)">
      <defs>
       <path id="NimbusRomNo9L-Reg-52" d="M 4218 122 
C 3974 141 3846 205 3661 422 
L 2342 2042 
C 3155 2202 3501 2522 3501 3110 
C 3501 3386 3418 3622 3251 3808 
C 3008 4070 2477 4237 1875 4237 
L 109 4237 
L 109 4115 
C 582 4064 646 4006 653 3539 
L 653 768 
C 646 224 589 160 109 122 
L 109 0 
L 1882 0 
L 1882 122 
C 1389 154 1312 230 1306 698 
L 1306 1958 
L 1664 1971 
L 3187 0 
L 4218 0 
L 4218 122 
z
M 1306 3770 
C 1306 3949 1376 4000 1632 4000 
C 2432 4000 2803 3725 2803 3123 
C 2803 2803 2669 2534 2438 2413 
C 2144 2246 1920 2208 1306 2195 
L 1306 3770 
z
" transform="scale(0.015625)"/>
       <path id="NimbusRomNo9L-Reg-65" d="M 2650 1050 
C 2342 563 2067 378 1658 378 
C 1293 378 1018 563 832 928 
C 717 1171 672 1376 659 1773 
L 2630 1773 
C 2579 2189 2515 2374 2355 2579 
C 2163 2810 1869 2944 1536 2944 
C 1216 2944 915 2829 672 2611 
C 371 2349 198 1894 198 1370 
C 198 486 659 -64 1395 -64 
C 2010 -64 2483 314 2752 1005 
L 2650 1050 
z
M 672 1978 
C 742 2483 960 2714 1350 2714 
C 1741 2714 1894 2534 1978 1978 
L 672 1978 
z
" transform="scale(0.015625)"/>
       <path id="NimbusRomNo9L-Reg-70" d="M 32 -1389 
L 1581 -1389 
L 1581 -1274 
C 1101 -1267 1024 -1203 1018 -794 
L 1018 211 
C 1248 0 1395 -64 1664 -64 
C 2426 -64 3008 653 3008 1581 
C 3008 2374 2560 2944 1939 2944 
C 1581 2944 1299 2790 1018 2438 
L 1018 2931 
L 979 2944 
C 634 2810 410 2726 58 2618 
L 58 2515 
C 115 2522 160 2522 218 2522 
C 435 2522 480 2458 480 2157 
L 480 -838 
C 480 -1178 410 -1242 32 -1280 
L 32 -1389 
z
M 1018 2138 
C 1018 2330 1376 2560 1670 2560 
C 2144 2560 2458 2074 2458 1325 
C 2458 621 2144 141 1683 141 
C 1382 141 1018 371 1018 563 
L 1018 2138 
z
" transform="scale(0.015625)"/>
       <path id="NimbusRomNo9L-Reg-6f" d="M 1600 2944 
C 762 2944 186 2330 186 1446 
C 186 576 781 -64 1587 -64 
C 2394 -64 3008 608 3008 1498 
C 3008 2342 2419 2944 1600 2944 
z
M 1517 2765 
C 2054 2765 2432 2150 2432 1274 
C 2432 544 2144 115 1664 115 
C 1414 115 1178 269 1043 525 
C 864 858 762 1306 762 1760 
C 762 2368 1056 2765 1517 2765 
z
" transform="scale(0.015625)"/>
       <path id="NimbusRomNo9L-Reg-73" d="M 2016 2010 
L 1990 2886 
L 1920 2886 
C 1882 2835 1850 2816 1818 2816 
C 1779 2816 1715 2829 1645 2861 
C 1498 2912 1350 2944 1197 2944 
C 691 2944 326 2611 326 2150 
C 326 1792 531 1536 1075 1229 
L 1446 1018 
C 1670 890 1779 736 1779 538 
C 1779 256 1574 77 1248 77 
C 806 77 582 320 435 973 
L 333 973 
L 333 -26 
L 416 -26 
C 461 38 486 51 563 51 
C 634 51 710 38 858 0 
C 1030 -38 1197 -64 1325 -64 
C 1824 -64 2227 307 2227 755 
C 2227 1075 2080 1286 1690 1517 
L 998 1926 
C 819 2029 723 2189 723 2362 
C 723 2624 922 2797 1216 2797 
C 1581 2797 1773 2586 1920 2010 
L 2016 2010 
z
" transform="scale(0.015625)"/>
       <path id="NimbusRomNo9L-Reg-69" d="M 147 0 
L 1664 0 
L 1664 96 
C 1242 128 1197 186 1190 653 
L 1190 2925 
L 1165 2944 
L 173 2592 
L 173 2496 
L 224 2502 
C 301 2515 384 2522 442 2522 
C 595 2522 653 2419 653 2138 
L 653 653 
C 640 179 582 115 147 96 
L 147 0 
z
M 864 4371 
C 691 4371 544 4224 544 4045 
C 544 3859 685 3718 864 3718 
C 1056 3718 1197 3859 1197 4045 
C 1197 4230 1050 4371 864 4371 
z
" transform="scale(0.015625)"/>
       <path id="NimbusRomNo9L-Reg-74" d="M 1658 2880 
L 1011 2880 
L 1011 3622 
C 1011 3686 998 3706 966 3706 
C 595 3168 403 2950 218 2842 
C 147 2797 109 2758 109 2720 
C 109 2701 115 2688 134 2675 
L 474 2675 
L 474 749 
C 474 211 666 -64 1043 -64 
C 1357 -64 1600 90 1811 422 
L 1728 493 
C 1587 326 1485 269 1344 269 
C 1107 269 1011 442 1011 845 
L 1011 2675 
L 1658 2675 
L 1658 2880 
z
" transform="scale(0.015625)"/>
       <path id="NimbusRomNo9L-Reg-72" d="M 32 0 
L 1568 0 
L 1568 96 
C 1139 109 1037 198 1024 576 
L 1024 2016 
C 1024 2221 1293 2541 1472 2541 
C 1510 2541 1568 2509 1638 2445 
C 1741 2349 1811 2317 1894 2317 
C 2048 2317 2144 2426 2144 2605 
C 2144 2816 2010 2944 1792 2944 
C 1523 2944 1338 2803 1024 2342 
L 1024 2931 
L 992 2944 
C 653 2803 422 2720 45 2598 
L 45 2496 
C 134 2515 192 2522 269 2522 
C 429 2522 486 2419 486 2138 
L 486 538 
C 474 205 435 166 32 96 
L 32 0 
z
" transform="scale(0.015625)"/>
       <path id="NimbusRomNo9L-Reg-20" transform="scale(0.015625)"/>
       <path id="NimbusRomNo9L-Reg-41" d="M 4518 122 
C 4230 141 4166 205 3942 678 
L 2349 4314 
L 2221 4314 
L 890 1171 
C 480 237 403 134 96 122 
L 96 0 
L 1363 0 
L 1363 122 
C 1056 122 928 198 928 384 
C 928 461 947 550 979 634 
L 1274 1382 
L 2950 1382 
L 3213 768 
C 3290 595 3334 429 3334 339 
C 3334 179 3226 128 2886 122 
L 2886 0 
L 4518 0 
L 4518 122 
z
M 1382 1645 
L 2118 3405 
L 2861 1645 
L 1382 1645 
z
" transform="scale(0.015625)"/>
       <path id="NimbusRomNo9L-Reg-63" d="M 2547 998 
C 2240 550 2010 397 1645 397 
C 1056 397 653 909 653 1645 
C 653 2310 1005 2758 1523 2758 
C 1754 2758 1837 2688 1901 2451 
L 1939 2310 
C 1990 2125 2106 2016 2246 2016 
C 2413 2016 2547 2138 2547 2285 
C 2547 2643 2099 2944 1562 2944 
C 1248 2944 922 2816 659 2586 
C 339 2304 160 1869 160 1357 
C 160 531 666 -64 1376 -64 
C 1664 -64 1920 38 2150 237 
C 2323 384 2445 563 2637 941 
L 2547 998 
z
" transform="scale(0.015625)"/>
       <path id="NimbusRomNo9L-Reg-76" d="M 3053 2880 
L 2163 2880 
L 2163 2784 
C 2368 2765 2464 2701 2464 2579 
C 2464 2515 2451 2451 2426 2387 
L 1792 730 
L 1139 2368 
C 1101 2458 1082 2547 1082 2605 
C 1082 2720 1152 2765 1376 2784 
L 1376 2880 
L 122 2880 
L 122 2784 
C 365 2771 410 2707 704 2048 
L 1472 211 
C 1485 173 1504 128 1523 77 
C 1542 26 1562 -19 1581 -51 
C 1594 -77 1619 -90 1638 -90 
C 1677 -90 1722 -6 1818 230 
L 2637 2285 
C 2822 2720 2861 2765 3053 2784 
L 3053 2880 
z
" transform="scale(0.015625)"/>
       <path id="NimbusRomNo9L-Reg-66" d="M 2061 2880 
L 1274 2880 
L 1274 3622 
C 1274 4000 1395 4192 1638 4192 
C 1779 4192 1862 4128 1978 3942 
C 2080 3776 2157 3712 2266 3712 
C 2419 3712 2534 3827 2534 3974 
C 2534 4205 2253 4371 1869 4371 
C 1466 4371 1133 4198 966 3910 
C 800 3622 749 3392 742 2880 
L 218 2880 
L 218 2675 
L 742 2675 
L 742 666 
C 730 186 666 115 211 96 
L 211 0 
L 1875 0 
L 1875 96 
C 1350 115 1280 186 1280 666 
L 1280 2675 
L 2061 2675 
L 2061 2880 
z
" transform="scale(0.015625)"/>
       <path id="NimbusRomNo9L-Reg-44" d="M 102 0 
L 1920 0 
C 2662 0 3334 211 3731 570 
C 4147 947 4384 1517 4384 2138 
C 4384 2714 4198 3213 3840 3565 
C 3405 4006 2707 4237 1830 4237 
L 102 4237 
L 102 4115 
C 608 4070 659 4019 666 3539 
L 666 698 
C 659 230 582 154 102 122 
L 102 0 
z
M 1318 3750 
C 1318 3949 1382 4000 1651 4000 
C 2208 4000 2618 3898 2925 3680 
C 3424 3334 3686 2784 3686 2093 
C 3686 1338 3424 800 2906 499 
C 2579 314 2208 237 1651 237 
C 1395 237 1318 294 1318 499 
L 1318 3750 
z
" transform="scale(0.015625)"/>
       <path id="NimbusRomNo9L-Reg-61" d="M 2829 422 
C 2720 333 2643 301 2547 301 
C 2400 301 2355 390 2355 672 
L 2355 1920 
C 2355 2253 2323 2438 2227 2592 
C 2086 2822 1811 2944 1434 2944 
C 832 2944 358 2630 358 2227 
C 358 2080 480 1952 634 1952 
C 787 1952 922 2080 922 2221 
C 922 2246 915 2278 909 2323 
C 896 2381 890 2432 890 2477 
C 890 2650 1094 2790 1350 2790 
C 1664 2790 1837 2605 1837 2259 
L 1837 1869 
C 851 1472 742 1421 467 1178 
C 326 1050 237 832 237 621 
C 237 218 518 -64 909 -64 
C 1190 -64 1453 70 1843 403 
C 1875 64 1990 -64 2253 -64 
C 2470 -64 2605 13 2829 256 
L 2829 422 
z
M 1837 787 
C 1837 595 1805 525 1670 448 
C 1510 358 1338 307 1203 307 
C 979 307 800 525 800 800 
L 800 826 
C 806 1210 1088 1453 1837 1715 
L 1837 787 
z
" transform="scale(0.015625)"/>
       <path id="NimbusRomNo9L-Reg-28" d="M 1888 4326 
C 1414 4013 1222 3853 986 3558 
C 531 3002 307 2362 307 1613 
C 307 794 544 173 1107 -480 
C 1370 -787 1536 -928 1869 -1133 
L 1946 -1030 
C 1434 -627 1254 -397 1082 77 
C 928 506 858 986 858 1632 
C 858 2304 941 2829 1114 3226 
C 1293 3622 1485 3853 1946 4224 
L 1888 4326 
z
" transform="scale(0.015625)"/>
       <path id="NimbusRomNo9L-Reg-25" d="M 3795 4326 
L 1286 -83 
L 1594 -83 
L 4070 4326 
L 3795 4326 
z
M 4134 2125 
C 3622 2125 3238 1638 3238 979 
C 3238 333 3629 -154 4147 -154 
C 4672 -154 5037 307 5037 973 
C 5037 1632 4653 2125 4134 2125 
z
M 4141 1958 
C 4403 1958 4544 1606 4544 966 
C 4544 371 4390 19 4134 19 
C 3872 19 3738 352 3738 992 
C 3738 1626 3878 1958 4141 1958 
z
M 1203 4320 
C 666 4320 282 3834 282 3168 
C 282 2509 659 2029 1184 2029 
C 1715 2029 2080 2483 2080 3142 
C 2080 3834 1722 4320 1203 4320 
z
M 1190 4147 
C 1440 4147 1587 3789 1587 3155 
C 1587 2534 1440 2182 1171 2182 
C 909 2182 781 2509 781 3206 
C 781 3840 915 4147 1190 4147 
z
" transform="scale(0.015625)"/>
       <path id="NimbusRomNo9L-Reg-29" d="M 243 -1133 
C 717 -819 909 -659 1146 -365 
C 1600 192 1824 832 1824 1581 
C 1824 2400 1587 3021 1024 3674 
C 762 3981 595 4122 262 4326 
L 186 4224 
C 698 3821 870 3597 1050 3117 
C 1203 2688 1274 2208 1274 1562 
C 1274 890 1190 358 1018 -26 
C 845 -429 646 -659 186 -1030 
L 243 -1133 
z
" transform="scale(0.015625)"/>
      </defs>
      <use xlink:href="#NimbusRomNo9L-Reg-52"/>
      <use xlink:href="#NimbusRomNo9L-Reg-65" transform="translate(66.699997 0)"/>
      <use xlink:href="#NimbusRomNo9L-Reg-70" transform="translate(111.099991 0)"/>
      <use xlink:href="#NimbusRomNo9L-Reg-6f" transform="translate(161.099976 0)"/>
      <use xlink:href="#NimbusRomNo9L-Reg-73" transform="translate(211.09996 0)"/>
      <use xlink:href="#NimbusRomNo9L-Reg-69" transform="translate(249.999954 0)"/>
      <use xlink:href="#NimbusRomNo9L-Reg-74" transform="translate(277.799942 0)"/>
      <use xlink:href="#NimbusRomNo9L-Reg-6f" transform="translate(305.59993 0)"/>
      <use xlink:href="#NimbusRomNo9L-Reg-72" transform="translate(355.599915 0)"/>
      <use xlink:href="#NimbusRomNo9L-Reg-69" transform="translate(388.899902 0)"/>
      <use xlink:href="#NimbusRomNo9L-Reg-65" transform="translate(416.69989 0)"/>
      <use xlink:href="#NimbusRomNo9L-Reg-73" transform="translate(461.099884 0)"/>
      <use xlink:href="#NimbusRomNo9L-Reg-20" transform="translate(499.999878 0)"/>
      <use xlink:href="#NimbusRomNo9L-Reg-41" transform="translate(524.999863 0)"/>
      <use xlink:href="#NimbusRomNo9L-Reg-63" transform="translate(597.199844 0)"/>
      <use xlink:href="#NimbusRomNo9L-Reg-74" transform="translate(641.599838 0)"/>
      <use xlink:href="#NimbusRomNo9L-Reg-69" transform="translate(669.399826 0)"/>
      <use xlink:href="#NimbusRomNo9L-Reg-76" transform="translate(697.199814 0)"/>
      <use xlink:href="#NimbusRomNo9L-Reg-65" transform="translate(747.199799 0)"/>
      <use xlink:href="#NimbusRomNo9L-Reg-20" transform="translate(791.599792 0)"/>
      <use xlink:href="#NimbusRomNo9L-Reg-41" transform="translate(816.599777 0)"/>
      <use xlink:href="#NimbusRomNo9L-Reg-66" transform="translate(888.799759 0)"/>
      <use xlink:href="#NimbusRomNo9L-Reg-74" transform="translate(922.099747 0)"/>
      <use xlink:href="#NimbusRomNo9L-Reg-65" transform="translate(949.899734 0)"/>
      <use xlink:href="#NimbusRomNo9L-Reg-72" transform="translate(994.299728 0)"/>
      <use xlink:href="#NimbusRomNo9L-Reg-20" transform="translate(1027.599716 0)"/>
      <use xlink:href="#NimbusRomNo9L-Reg-44" transform="translate(1052.599701 0)"/>
      <use xlink:href="#NimbusRomNo9L-Reg-61" transform="translate(1124.799683 0)"/>
      <use xlink:href="#NimbusRomNo9L-Reg-74" transform="translate(1169.199677 0)"/>
      <use xlink:href="#NimbusRomNo9L-Reg-65" transform="translate(1196.999664 0)"/>
      <use xlink:href="#NimbusRomNo9L-Reg-20" transform="translate(1241.399658 0)"/>
      <use xlink:href="#NimbusRomNo9L-Reg-28" transform="translate(1266.399643 0)"/>
      <use xlink:href="#NimbusRomNo9L-Reg-25" transform="translate(1299.699631 0)"/>
      <use xlink:href="#NimbusRomNo9L-Reg-29" transform="translate(1382.999619 0)"/>
     </g>
    </g>
   </g>
   <g id="line2d_29">
    <path d="M 160.508712 14.605455 
L 200.936338 14.77678 
L 207.805706 14.948105 
L 220.848373 15.119429 
L 228.391651 15.462079 
L 232.283458 15.804729 
L 238.910299 15.976054 
L 251.732361 17.175329 
L 252.334719 17.346654 
L 257.072478 17.689304 
L 257.198057 17.860629 
L 258.351055 18.031954 
L 264.068383 18.374604 
L 264.660423 18.545929 
L 268.473997 18.888579 
L 271.470541 19.402554 
L 272.407951 19.573879 
L 275.598726 19.745204 
L 275.718103 19.916529 
L 276.116646 20.087854 
L 279.263435 20.259179 
L 280.257538 20.601829 
L 283.024317 20.773154 
L 283.284953 20.944479 
L 287.441153 21.458454 
L 288.048791 21.629779 
L 289.304409 21.801104 
L 289.3529 21.972429 
L 290.637971 22.315079 
L 292.614303 22.657729 
L 298.433284 23.171704 
L 298.809853 23.343029 
L 299.920787 23.514354 
L 300.01431 23.685678 
L 300.367213 23.857003 
L 302.798458 24.199653 
L 306.291941 24.370978 
L 306.501482 24.542303 
L 309.073176 24.884953 
L 310.63407 25.227603 
L 310.66387 25.398928 
L 313.118451 26.084228 
L 313.501402 26.255553 
L 314.427142 26.426878 
L 317.972403 26.769528 
L 318.769997 27.112178 
L 321.658866 27.454828 
L 322.75961 28.140128 
L 324.639968 28.482778 
L 324.829192 28.654103 
L 330.570642 29.339403 
L 332.142795 29.510728 
L 332.498209 29.853378 
L 333.796196 30.024703 
L 334.216751 30.196028 
L 336.685472 30.367353 
L 337.817924 30.710003 
L 339.383161 30.881328 
L 339.541098 31.052653 
L 342.052696 31.223978 
L 342.846664 31.395303 
L 346.027417 31.737953 
L 346.228704 31.909278 
L 347.272273 32.251927 
L 347.637528 32.423252 
L 349.543243 32.765902 
L 350.35363 32.937227 
L 351.800749 33.108552 
L 352.158978 33.451202 
L 354.395911 33.622527 
L 355.048186 34.136502 
L 357.357281 34.307827 
L 357.357392 34.479152 
L 358.425285 34.650477 
L 358.457734 34.993127 
L 359.695111 35.335777 
L 360.225826 35.678427 
L 361.586108 35.849752 
L 361.898336 36.192402 
L 364.58785 36.535052 
L 365.301079 36.706377 
L 365.301933 36.877702 
L 366.917236 37.391677 
L 367.967041 37.905652 
L 370.683874 38.419627 
L 370.994084 38.590952 
L 371.911377 38.762277 
L 372.20042 38.933602 
L 373.386054 39.276252 
L 373.681708 39.447577 
L 377.756362 40.132877 
L 378.158331 40.475527 
L 378.309952 40.646852 
L 380.81615 40.818176 
L 380.840266 40.989501 
L 381.763114 41.160826 
L 381.776268 41.332151 
L 383.370573 41.503476 
L 384.459812 42.017451 
L 385.937037 42.188776 
L 386.005063 42.360101 
L 386.225075 42.531426 
L 390.024109 42.874076 
L 391.496279 43.216726 
L 391.834057 43.388051 
L 395.168852 43.559376 
L 395.678254 43.730701 
L 397.791978 43.902026 
L 398.4293 44.244676 
L 399.342786 44.587326 
L 399.650171 44.929976 
L 399.70289 45.101301 
L 400.042519 45.272626 
L 403.184162 45.786601 
L 403.322309 46.129251 
L 405.80436 46.471901 
L 406.207282 46.643226 
L 409.400711 47.499851 
L 409.52853 47.671176 
L 411.530052 47.842501 
L 411.71498 48.185151 
L 411.863552 48.356476 
L 417.766181 49.727075 
L 420.005717 50.069725 
L 420.733072 50.24105 
L 421.247365 50.755025 
L 421.63874 50.92635 
L 422.60615 51.097675 
L 425.478996 51.440325 
L 425.752309 51.61165 
L 425.758436 51.782975 
L 426.224072 51.9543 
L 428.528585 52.29695 
L 429.264184 52.6396 
L 432.044153 53.153575 
L 432.274962 53.496225 
L 434.620938 54.0102 
L 436.012562 54.181525 
L 436.682452 55.209475 
L 438.152558 55.3808 
L 438.40802 55.72345 
L 439.541781 56.0661 
L 440.014897 56.40875 
L 441.487206 56.922725 
L 441.502808 57.09405 
L 442.362021 57.4367 
L 443.031554 57.950674 
L 444.369535 58.121999 
L 444.553164 58.293324 
L 444.561036 58.464649 
L 445.97104 58.635974 
L 445.997044 59.835249 
L 448.352153 60.349224 
L 448.87856 60.520549 
L 448.919473 60.691874 
L 450.396582 60.863199 
L 450.47117 61.034524 
L 450.802097 61.377174 
L 452.158866 61.719824 
L 452.272413 62.062474 
L 452.735816 62.233799 
L 452.854385 62.405124 
L 453.553411 62.747774 
L 454.371206 62.919099 
L 454.488564 63.090424 
L 455.213903 63.261749 
L 457.494598 63.433074 
L 457.984917 63.604399 
L 458.139817 64.118374 
L 459.199694 64.461024 
L 459.888045 64.974999 
L 460.51107 65.146324 
L 460.632544 65.488974 
L 460.789511 66.002949 
L 460.937118 66.174274 
L 462.222974 66.345599 
L 462.415604 66.688248 
L 464.406461 67.373548 
L 465.50812 67.716198 
L 465.535511 67.887523 
L 470.635395 68.744148 
L 473.874839 69.772098 
L 474.014852 69.943423 
L 474.561571 70.286073 
L 474.772782 70.628723 
L 474.83984 70.800048 
L 476.060628 70.971373 
L 476.197909 71.314023 
L 476.994381 71.485348 
L 477.175744 71.656673 
L 479.660839 71.999323 
L 480.504096 72.170648 
L 480.600461 72.341973 
L 480.892743 72.513298 
L 480.896244 72.684623 
L 481.623269 72.855948 
L 481.623568 73.027273 
L 481.985594 73.198598 
L 482.028065 73.369923 
L 483.322679 73.883898 
L 484.364559 74.055223 
L 484.387583 74.226548 
L 484.621923 74.397873 
L 485.456609 74.740523 
L 486.617974 74.911848 
L 486.621143 75.083172 
L 487.2872 75.425822 
L 487.905008 75.597147 
L 487.943216 75.768472 
L 488.710481 76.111122 
L 489.602857 76.282447 
L 489.782943 76.625097 
L 490.016201 76.796422 
L 490.79418 77.139072 
L 490.80232 77.310397 
L 491.13681 77.481722 
L 494.241511 78.338347 
L 494.300559 78.680997 
L 494.468989 79.023647 
L 495.114365 79.194972 
L 495.189855 79.366297 
L 496.202241 80.051597 
L 497.04235 80.222922 
L 497.563187 80.736897 
L 497.917541 81.079547 
L 497.925512 81.250872 
L 499.041266 81.422197 
L 499.259611 81.764847 
L 499.645574 81.936172 
L 499.679806 82.450147 
L 500.361377 83.135447 
L 501.00309 83.478097 
L 501.275853 83.992071 
L 501.294871 84.163396 
L 502.275089 84.506046 
L 502.474571 84.848696 
L 502.783233 85.362671 
L 503.646594 85.705321 
L 504.744961 85.876646 
L 504.894411 86.219296 
L 505.13724 86.561946 
L 505.25858 86.904596 
L 505.431795 87.247246 
L 505.512892 87.589896 
L 505.583684 87.932546 
L 506.288244 88.103871 
L 506.372515 88.446521 
L 507.613732 89.303146 
L 507.623442 89.474471 
L 508.032025 89.817121 
L 508.23953 89.988446 
L 508.624117 90.159771 
L 509.554175 90.331096 
L 509.775833 90.502421 
L 511.525484 90.845071 
L 511.812859 91.187721 
L 512.324411 91.359046 
L 512.339012 91.530371 
L 513.213763 91.873021 
L 513.508411 92.21567 
L 513.700596 92.386995 
L 515.036865 92.729645 
L 515.043352 92.90097 
L 515.97057 93.072295 
L 516.292509 93.414945 
L 516.643935 93.92892 
L 517.390569 94.100245 
L 517.471137 95.98482 
L 517.623272 96.156145 
L 518.291278 96.32747 
L 518.807434 96.841445 
L 519.122843 97.01277 
L 519.199149 97.35542 
L 519.200841 97.526745 
L 519.368757 97.69807 
L 520.311559 98.212045 
L 520.333974 98.38337 
L 520.882795 98.554695 
L 521.009816 98.72602 
L 522.177475 99.06867 
L 522.243698 99.239995 
L 523.119981 99.41132 
L 524.038892 100.09662 
L 525.912127 100.43927 
L 527.268745 100.610595 
L 527.274479 100.781919 
L 528.794935 101.124569 
L 528.919793 101.295894 
L 529.630667 101.638544 
L 529.871822 101.981194 
L 530.895499 102.495169 
L 532.669196 102.666494 
L 532.699064 102.837819 
L 533.338285 103.180469 
L 533.344873 103.523119 
L 533.903751 103.694444 
L 534.028731 104.037094 
L 535.19387 104.893719 
L 539.324669 106.092994 
L 539.602606 106.435644 
L 539.937993 106.606969 
L 540.109635 106.949619 
L 540.604776 107.806244 
L 541.63016 108.148894 
L 541.64662 108.320219 
L 542.034297 108.491544 
L 542.124917 108.662869 
L 542.596699 108.834194 
L 542.606655 109.176844 
L 543.13854 109.348168 
L 543.469099 109.690818 
L 544.381636 110.204793 
L 544.403093 110.376118 
L 544.587517 110.547443 
L 546.056949 110.718768 
L 546.171357 111.061418 
L 546.658507 111.575393 
L 546.745797 112.089368 
L 548.21032 112.774668 
L 548.310661 112.945993 
L 548.559771 113.117318 
L 549.347139 113.288643 
L 549.35012 113.459968 
L 549.59579 113.631293 
L 550.270632 113.802618 
L 550.451528 113.973943 
L 551.248218 114.316593 
L 552.403029 114.487918 
L 553.141664 115.001893 
L 554.673984 115.344543 
L 555.083964 115.515868 
L 555.134185 115.687193 
L 555.922449 116.029843 
L 556.382407 116.715143 
L 556.448076 116.886468 
L 557.968972 117.571768 
L 558.915224 118.085742 
L 558.978157 118.257067 
L 559.545675 118.599717 
L 561.432267 119.456342 
L 561.509429 119.627667 
L 563.446468 121.169592 
L 563.662701 121.512242 
L 564.343373 121.683567 
L 564.853157 122.711517 
L 564.866993 122.882842 
L 565.940269 123.910792 
L 567.014027 124.082117 
L 568.41091 124.767417 
L 568.510993 124.938742 
L 569.38003 125.110067 
L 570.055917 125.795367 
L 570.79591 125.966692 
L 570.804253 126.138017 
L 571.347436 126.480666 
L 571.610813 127.337291 
L 571.648368 127.508616 
L 572.068236 127.851266 
L 572.899039 128.193916 
L 573.220854 128.536566 
L 573.432971 129.050541 
L 573.642831 129.221866 
L 573.670339 129.393191 
L 574.357989 129.907166 
L 574.597771 130.078491 
L 575.749205 130.249816 
L 576.095098 130.763791 
L 576.712652 130.935116 
L 577.010803 131.449091 
L 578.44718 131.791741 
L 578.656638 132.305716 
L 579.127834 132.477041 
L 579.130894 132.648366 
L 579.321126 132.991016 
L 579.915587 133.162341 
L 579.950411 133.333666 
L 580.795064 133.847641 
L 580.809951 134.018966 
L 581.114816 134.361616 
L 581.179048 134.532941 
L 581.600383 134.875591 
L 581.761223 135.21824 
L 581.765632 135.389565 
L 581.922199 135.732215 
L 582.257855 136.58884 
L 582.432994 136.93149 
L 582.511567 137.102815 
L 582.935948 137.445465 
L 583.15424 137.95944 
L 583.478668 138.130765 
L 583.660552 138.816065 
L 584.633165 138.98739 
L 585.435515 140.529315 
L 585.44881 140.871965 
L 586.620752 141.38594 
L 586.956772 141.899915 
L 587.668986 142.242565 
L 588.270295 142.585215 
L 588.546492 143.270515 
L 589.26963 143.784489 
L 589.357067 144.127139 
L 589.66973 144.812439 
L 590.077515 145.326414 
L 590.129463 145.669064 
L 590.458944 146.011714 
L 590.849114 146.354364 
L 591.497941 147.039664 
L 591.5776 147.382314 
L 592.083155 147.724964 
L 592.563819 148.581589 
L 592.935717 148.752914 
L 593.111558 149.609539 
L 593.205512 150.123514 
L 594.412208 151.665439 
L 594.556975 151.836764 
L 594.848764 152.008089 
L 595.03082 152.350738 
L 595.263511 152.693388 
L 595.660334 153.036038 
L 596.082729 153.378688 
L 596.285894 153.550013 
L 596.815238 153.721338 
L 597.264742 154.920613 
L 597.537649 155.091938 
L 597.643952 155.434588 
L 598.336451 156.291213 
L 598.630084 156.805188 
L 599.055099 156.976513 
L 599.27449 157.490488 
L 599.882495 157.661813 
L 600.06712 158.004463 
L 600.55545 158.347113 
L 600.738365 158.518438 
L 601.350355 158.689763 
L 602.110594 159.717713 
L 602.209922 160.060363 
L 602.805968 160.231688 
L 603.244183 160.574338 
L 603.839657 160.745662 
L 603.925483 161.088312 
L 606.410695 162.458912 
L 607.689011 162.630237 
L 608.028437 162.972887 
L 608.523335 163.315537 
L 608.613707 163.486862 
L 609.109648 163.658187 
L 609.346081 164.000837 
L 609.370165 164.343487 
L 609.968579 164.514812 
L 610.536999 165.200112 
L 610.91222 165.714087 
L 610.929344 165.885412 
L 611.221462 166.056737 
L 611.448051 167.084687 
L 612.199416 167.769987 
L 612.217785 168.112637 
L 612.581853 168.797937 
L 612.834108 169.311911 
L 612.851174 169.483236 
L 613.036211 169.825886 
L 613.735767 170.853836 
L 614.220931 171.025161 
L 614.569622 172.395761 
L 614.868437 172.567086 
L 615.079295 173.423711 
L 615.434475 173.595036 
L 615.511997 173.766361 
L 615.730689 173.937686 
L 616.683885 174.280336 
L 617.014045 174.965636 
L 617.284311 175.136961 
L 618.143665 175.308286 
L 618.162005 175.479611 
L 618.605541 175.993586 
L 619.049059 176.164911 
L 619.392164 176.678886 
L 619.490273 177.021536 
L 619.900246 177.192861 
L 619.98846 177.535511 
L 620.158152 177.706836 
L 620.967683 177.87816 
L 621.017279 178.049485 
L 621.423108 178.56346 
L 621.524961 178.90611 
L 621.662419 179.24876 
L 621.927402 179.59141 
L 622.263022 180.448035 
L 622.633606 180.61936 
L 622.785011 181.133335 
L 622.922717 181.30466 
L 623.272465 181.475985 
L 623.479215 181.98996 
L 624.467156 182.33261 
L 624.566752 182.67526 
L 625.233134 182.846585 
L 625.317537 183.01791 
L 626.233247 183.189235 
L 626.343415 183.531885 
L 626.818344 183.874535 
L 626.883883 184.04586 
L 627.446024 184.38851 
L 627.502387 184.73116 
L 627.900286 184.902485 
L 627.908598 185.07381 
L 628.272939 185.41646 
L 628.321329 185.587785 
L 629.047063 186.10176 
L 629.047613 186.273085 
L 629.634855 186.615734 
L 629.727927 186.958384 
L 629.881812 187.472359 
L 630.112963 187.815009 
L 630.407593 187.986334 
L 630.498672 188.500309 
L 630.773226 188.842959 
L 631.189746 189.185609 
L 631.280364 189.528259 
L 631.929789 189.699584 
L 631.942002 189.870909 
L 632.527082 190.727534 
L 632.528346 190.898859 
L 632.941634 191.412834 
L 633.002918 191.755484 
L 633.84852 192.612109 
L 634.334388 193.468734 
L 634.740688 193.811384 
L 634.775508 193.982709 
L 635.385709 194.496684 
L 635.50287 195.010658 
L 635.565595 195.181983 
L 636.369448 196.038608 
L 636.852122 196.209933 
L 636.956652 196.552583 
L 637.150722 196.895233 
L 637.192273 197.237883 
L 637.341182 197.409208 
L 637.862974 197.580533 
L 637.938084 197.751858 
L 638.403525 197.923183 
L 638.566541 198.951133 
L 638.68765 199.293783 
L 639.159011 199.465108 
L 639.828316 200.664383 
L 639.882637 201.007033 
L 640.112425 201.349683 
L 640.281173 202.377633 
L 640.468234 202.720283 
L 640.580299 203.062933 
L 640.588479 203.234258 
L 641.388941 203.405583 
L 641.493182 203.919557 
L 642.003539 205.290157 
L 642.1608 205.632807 
L 642.296711 206.146782 
L 642.537288 206.318107 
L 642.650761 206.660757 
L 642.988468 207.346057 
L 643.030921 207.860032 
L 643.193078 208.031357 
L 643.31705 208.716657 
L 643.461596 209.059307 
L 643.713386 209.915932 
L 644.586012 210.258582 
L 645.164479 211.286532 
L 645.670436 211.629182 
L 646.043943 211.971832 
L 646.109416 212.657131 
L 646.313968 212.999781 
L 646.399133 213.513756 
L 646.522504 214.027731 
L 646.626133 214.713031 
L 646.94158 215.740981 
L 647.244631 216.940256 
L 647.683548 219.167481 
L 647.78046 219.510131 
L 647.861165 220.024106 
L 648.029846 220.366756 
L 648.383838 221.56603 
L 648.82453 221.737355 
L 648.983063 222.080005 
L 649.106588 222.422655 
L 649.49945 223.96458 
L 649.837476 224.135905 
L 649.958899 225.163855 
L 650.348144 226.534455 
L 650.352463 226.70578 
L 650.816856 227.219755 
L 650.938072 227.562405 
L 651.25151 229.618304 
L 651.322246 229.960954 
L 651.398407 230.474929 
L 651.574094 230.817579 
L 651.776633 230.988904 
L 651.851378 231.674204 
L 651.957372 232.016854 
L 652.072686 232.530829 
L 652.283013 233.044804 
L 652.689562 234.758054 
L 652.823514 235.100704 
L 653.025356 235.957329 
L 653.307047 236.299979 
L 653.422395 237.327929 
L 653.604438 238.355878 
L 653.619278 238.527203 
L 653.788377 238.869853 
L 653.817586 239.041178 
L 654.350728 239.726478 
L 654.500487 240.069128 
L 654.612428 240.411778 
L 654.7812 240.925753 
L 655.039712 241.097078 
L 655.132493 241.611053 
L 655.258834 241.953703 
L 655.45553 242.467678 
L 655.520461 242.981653 
L 655.72667 243.324303 
L 655.808256 243.666953 
L 655.985766 243.838278 
L 656.110609 244.352253 
L 656.673339 246.408152 
L 656.678445 246.579477 
L 656.929744 246.922127 
L 657.402459 248.806702 
L 657.518832 249.149352 
L 658.071706 249.320677 
L 658.173711 250.005977 
L 658.524439 250.691277 
L 658.980297 252.061877 
L 658.982262 252.233202 
L 659.123911 252.575852 
L 659.490284 252.747177 
L 659.497185 252.918502 
L 659.669549 253.261152 
L 659.679814 253.775127 
L 659.831476 254.117777 
L 659.949275 254.631752 
L 660.095139 254.974401 
L 660.142374 255.488376 
L 660.470768 255.831026 
L 660.558306 256.173676 
L 660.787739 256.858976 
L 661.029239 257.201626 
L 661.196152 257.544276 
L 661.358691 258.400901 
L 661.945898 261.998726 
L 662.128608 262.341376 
L 662.191635 262.855351 
L 662.506041 263.369326 
L 662.689721 264.054625 
L 663.159422 266.28185 
L 663.223931 267.3098 
L 663.37735 267.65245 
L 663.403292 267.9951 
L 663.605593 268.33775 
L 663.756636 269.194375 
L 664.099343 269.70835 
L 665.229107 272.963524 
L 665.366064 273.991474 
L 665.406093 274.162799 
L 665.657886 274.505449 
L 665.808612 275.362074 
L 665.83689 275.876049 
L 665.958308 276.218699 
L 666.17368 277.075324 
L 666.265514 278.274599 
L 666.446243 279.302549 
L 666.505271 280.673148 
L 666.57068 281.015798 
L 666.671186 281.358448 
L 666.723433 281.529773 
L 667.047015 281.872423 
L 667.174664 282.215073 
L 667.603921 287.354823 
L 667.707273 288.725423 
L 667.805132 290.438672 
L 668.011814 295.235772 
L 668.152284 297.291672 
L 668.279641 302.260096 
L 668.523633 304.144671 
L 668.653789 306.714545 
L 668.653789 306.714545 
" clip-path="url(#pc7283f76f5)" style="fill: none; stroke: #1f77b4; stroke-width: 1.5; stroke-linecap: square"/>
   </g>
   <g id="line2d_30">
    <path d="M 200.936338 14.614438 
L 207.805706 14.794747 
L 220.848373 14.975056 
L 228.391651 15.335673 
L 232.283458 15.696291 
L 238.910299 15.876599 
L 251.732361 17.13876 
L 252.334719 17.319069 
L 257.072478 17.679686 
L 257.198057 17.859995 
L 258.351055 18.040304 
L 264.068383 18.400921 
L 264.660423 18.58123 
L 268.473997 18.941847 
L 271.470541 19.482773 
L 272.407951 19.663082 
L 275.598726 19.843391 
L 275.718103 20.0237 
L 276.116646 20.204008 
L 279.263435 20.384317 
L 280.257538 20.744934 
L 283.024317 20.925243 
L 283.284953 21.105552 
L 287.441153 21.646478 
L 288.048791 21.826787 
L 289.304409 22.007095 
L 289.3529 22.187404 
L 290.637971 22.548021 
L 292.614303 22.908639 
L 297.684508 23.269256 
L 299.920787 23.810182 
L 300.01431 23.990491 
L 300.367213 24.1708 
L 302.798458 24.531417 
L 306.291941 24.711726 
L 306.501482 24.892035 
L 309.073176 25.252652 
L 310.63407 25.613269 
L 310.66387 25.793578 
L 313.118451 26.514813 
L 313.501402 26.695122 
L 314.427142 26.87543 
L 316.994173 27.055739 
L 318.524142 27.416357 
L 318.769997 27.596665 
L 321.658866 27.957283 
L 322.75961 28.678518 
L 324.639968 29.039135 
L 324.829192 29.219444 
L 330.298892 29.76037 
L 330.570642 29.940678 
L 332.142795 30.120987 
L 332.498209 30.481605 
L 333.796196 30.661913 
L 334.216751 30.842222 
L 336.685472 31.022531 
L 337.817924 31.383148 
L 339.383161 31.563457 
L 339.541098 31.743766 
L 342.052696 31.924074 
L 342.846664 32.104383 
L 346.027417 32.465 
L 346.228704 32.645309 
L 347.272273 33.005927 
L 347.637528 33.186235 
L 349.543243 33.546853 
L 350.35363 33.727161 
L 351.800749 33.90747 
L 352.158978 34.268087 
L 354.395911 34.448396 
L 355.048186 34.989322 
L 357.357281 35.169631 
L 357.357392 35.34994 
L 358.425285 35.530248 
L 358.457734 35.890866 
L 359.695111 36.251483 
L 360.103985 36.431792 
L 360.225826 36.612101 
L 361.586108 36.792409 
L 361.898336 37.153027 
L 364.58785 37.513644 
L 365.301079 37.693953 
L 365.301933 37.874262 
L 365.956768 38.05457 
L 366.187369 38.234879 
L 367.913869 38.775805 
L 367.967041 38.956114 
L 370.683874 39.49704 
L 370.994084 39.677349 
L 371.911377 39.857657 
L 372.20042 40.037966 
L 373.386054 40.398584 
L 373.681708 40.578892 
L 377.756362 41.300127 
L 378.158331 41.660744 
L 378.309952 41.841053 
L 380.81615 42.021362 
L 380.840266 42.201671 
L 381.763114 42.381979 
L 381.776268 42.562288 
L 383.370573 42.742597 
L 384.459812 43.283523 
L 385.937037 43.463832 
L 386.005063 43.64414 
L 386.225075 43.824449 
L 390.024109 44.185066 
L 391.496279 44.545684 
L 391.834057 44.725993 
L 395.168852 44.906301 
L 395.886008 45.266919 
L 397.791978 45.447227 
L 398.4293 45.807845 
L 399.540419 46.168462 
L 399.70289 46.52908 
L 400.042519 46.709388 
L 403.184162 47.250314 
L 403.322309 47.610932 
L 405.80436 47.971549 
L 406.207282 48.151858 
L 408.997698 48.873093 
L 409.400711 49.053402 
L 409.52853 49.23371 
L 411.530052 49.414019 
L 411.71498 49.774636 
L 411.863552 49.954945 
L 417.766181 51.397415 
L 420.005717 51.758032 
L 420.733072 51.938341 
L 421.247365 52.479267 
L 421.63874 52.659576 
L 422.60615 52.839884 
L 425.478996 53.200502 
L 425.752309 53.380811 
L 425.758436 53.561119 
L 426.224072 53.741428 
L 428.528585 54.102045 
L 429.264184 54.462663 
L 432.044153 55.003589 
L 432.274962 55.364206 
L 434.620938 55.905132 
L 436.012562 56.085441 
L 436.682452 57.167293 
L 438.152558 57.347602 
L 438.40802 57.70822 
L 439.541781 58.068837 
L 440.014897 58.429454 
L 441.459258 58.97038 
L 441.502808 59.330998 
L 442.362021 59.691615 
L 443.031554 60.232541 
L 444.369535 60.41285 
L 444.553164 60.593159 
L 444.561036 60.773468 
L 445.97104 60.953776 
L 445.997044 62.215937 
L 448.352153 62.756863 
L 448.87856 62.937172 
L 448.919473 63.117481 
L 450.396582 63.297789 
L 450.47117 63.478098 
L 450.802097 63.838716 
L 452.158866 64.199333 
L 452.272413 64.55995 
L 452.735816 64.740259 
L 452.854385 64.920568 
L 453.553411 65.281185 
L 454.371206 65.461494 
L 454.488564 65.641803 
L 455.213903 65.822111 
L 457.494598 66.00242 
L 457.984917 66.182729 
L 458.139817 66.723655 
L 459.199694 67.084272 
L 459.888045 67.625198 
L 460.51107 67.805507 
L 460.632544 68.166125 
L 460.789511 68.707051 
L 460.937118 68.887359 
L 462.222974 69.067668 
L 462.415604 69.428286 
L 464.406461 70.14952 
L 465.50812 70.510138 
L 465.535511 70.690447 
L 467.390055 71.051064 
L 469.730178 71.231373 
L 470.616815 71.411681 
L 470.635395 71.59199 
L 473.874839 72.673842 
L 474.014852 72.854151 
L 474.561571 73.214768 
L 474.772782 73.575386 
L 474.83984 73.755695 
L 476.060628 73.936003 
L 476.197909 74.296621 
L 476.994381 74.476929 
L 477.175744 74.657238 
L 478.871742 75.017855 
L 479.660839 75.198164 
L 479.796051 75.378473 
L 480.504096 75.558782 
L 480.600461 75.73909 
L 480.892743 75.919399 
L 480.896244 76.099708 
L 481.623269 76.280016 
L 481.623568 76.460325 
L 481.985594 76.640634 
L 482.028065 76.820943 
L 482.500312 77.001251 
L 484.364559 77.361869 
L 484.387583 77.542177 
L 484.621923 77.722486 
L 485.456609 78.083104 
L 486.617974 78.263412 
L 486.621143 78.443721 
L 486.940155 78.62403 
L 486.964991 78.804338 
L 487.2872 78.984647 
L 487.905008 79.164956 
L 487.943216 79.345264 
L 488.710481 79.705882 
L 489.602857 79.886191 
L 489.782943 80.246808 
L 490.016201 80.427117 
L 490.79418 80.787734 
L 490.80232 80.968043 
L 491.13681 81.148352 
L 494.241511 82.049895 
L 494.300559 82.410513 
L 494.573084 82.951439 
L 495.114365 83.131747 
L 495.189855 83.312056 
L 495.990704 83.672673 
L 496.202241 83.852982 
L 497.04235 84.033291 
L 497.563187 84.574217 
L 497.917541 84.934834 
L 497.925512 85.115143 
L 499.041266 85.295452 
L 499.259611 85.656069 
L 499.645574 85.836378 
L 499.679806 86.377304 
L 500.361377 87.098539 
L 501.00309 87.459156 
L 501.275853 88.000082 
L 501.294871 88.180391 
L 502.275089 88.541009 
L 502.474571 88.901626 
L 502.783233 89.442552 
L 503.646594 89.80317 
L 504.744961 89.983478 
L 504.894411 90.344096 
L 505.13724 90.524404 
L 505.25858 90.885022 
L 505.431795 91.245639 
L 505.512892 91.606257 
L 505.583684 91.966874 
L 506.288244 92.147183 
L 506.372515 92.5078 
L 507.613732 93.409344 
L 507.623442 93.589652 
L 508.032025 93.95027 
L 508.23953 94.130579 
L 508.624117 94.310887 
L 509.554175 94.491196 
L 509.775833 94.671505 
L 511.525484 95.032122 
L 511.812859 95.39274 
L 512.324411 95.573048 
L 512.339012 95.753357 
L 513.213763 96.113974 
L 513.508411 96.474592 
L 513.700596 96.6549 
L 515.043352 97.376135 
L 515.97057 97.556444 
L 516.292509 97.917061 
L 516.643935 98.457988 
L 517.390569 98.638296 
L 517.471137 100.621692 
L 517.623272 100.802001 
L 518.291278 100.982309 
L 518.807434 101.523236 
L 519.122843 101.703544 
L 519.199149 102.064162 
L 519.200841 102.24447 
L 519.368757 102.424779 
L 520.311559 102.965705 
L 520.333974 103.146014 
L 520.882795 103.326323 
L 521.009816 103.506631 
L 522.177475 103.867249 
L 522.243698 104.047558 
L 523.119981 104.227866 
L 524.038892 104.949101 
L 525.912127 105.309718 
L 527.268745 105.490027 
L 527.274479 105.670336 
L 528.794935 106.030953 
L 528.919793 106.211262 
L 529.457475 106.391571 
L 530.24078 107.112806 
L 531.242455 107.473423 
L 532.669196 107.653732 
L 532.699064 107.83404 
L 533.338285 108.194658 
L 533.344873 108.555275 
L 533.903751 108.735584 
L 534.028731 109.096201 
L 535.19387 109.997745 
L 539.324669 111.259906 
L 539.602606 111.620523 
L 540.109635 111.981141 
L 540.604776 112.882684 
L 541.63016 113.062993 
L 541.64662 113.243302 
L 542.034297 113.42361 
L 542.124917 113.603919 
L 542.596699 113.784228 
L 542.606655 114.144845 
L 543.13854 114.325154 
L 543.469099 114.685771 
L 544.381636 115.226697 
L 544.403093 115.407006 
L 546.056949 115.587315 
L 546.171357 115.947932 
L 546.658507 116.488858 
L 546.745797 117.029784 
L 548.21032 117.751019 
L 548.310661 117.931328 
L 548.559771 118.111637 
L 549.347139 118.291945 
L 549.35012 118.472254 
L 549.59579 118.652563 
L 550.270632 118.832872 
L 550.451528 119.01318 
L 551.248218 119.373798 
L 552.31797 119.554106 
L 552.403029 119.734415 
L 553.141664 120.275341 
L 554.673984 120.635959 
L 555.083964 120.816267 
L 555.134185 120.996576 
L 555.922449 121.357193 
L 556.382407 122.078428 
L 556.448076 122.258737 
L 557.968972 122.979972 
L 558.284716 123.160281 
L 558.828064 123.340589 
L 558.978157 123.701207 
L 559.545675 124.061824 
L 561.432267 124.963368 
L 561.509429 125.143676 
L 562.262503 125.864911 
L 563.027299 126.04522 
L 563.061726 126.225529 
L 563.44426 126.405837 
L 563.446468 126.586146 
L 563.662701 126.946763 
L 564.343373 127.127072 
L 564.853157 128.208924 
L 564.866993 128.389233 
L 565.054341 128.569542 
L 565.579555 128.749851 
L 565.636698 128.930159 
L 565.940269 129.290777 
L 566.691188 129.471085 
L 567.372353 130.012011 
L 568.339462 130.372629 
L 568.510993 130.733246 
L 569.789017 131.093864 
L 569.840229 131.274172 
L 570.055917 131.454481 
L 570.79591 131.63479 
L 570.804253 131.815099 
L 571.347436 132.175716 
L 571.610813 133.07726 
L 571.648368 133.257568 
L 572.068236 133.618186 
L 572.899039 133.798494 
L 573.156991 133.978803 
L 573.432971 134.700038 
L 573.642831 134.880347 
L 573.670339 135.060655 
L 574.108121 135.421273 
L 574.597771 135.601581 
L 575.749205 135.78189 
L 576.095098 136.322816 
L 576.712652 136.503125 
L 577.010803 137.044051 
L 578.44718 137.22436 
L 578.656638 137.765286 
L 579.127834 137.945595 
L 579.130894 138.125903 
L 579.321126 138.486521 
L 579.915587 138.666829 
L 579.950411 138.847138 
L 580.634282 139.388064 
L 581.761223 140.650225 
L 581.765632 140.830534 
L 582.148637 141.37146 
L 582.257855 141.732078 
L 582.421113 141.912386 
L 582.511567 142.273004 
L 582.935948 142.633621 
L 583.15424 143.174547 
L 583.478668 143.354856 
L 583.660552 144.076091 
L 584.633165 144.256399 
L 584.859204 144.617017 
L 585.335633 145.157943 
L 585.443957 145.51856 
L 585.44881 145.698869 
L 585.901147 146.059487 
L 586.096662 146.239795 
L 586.620752 146.420104 
L 586.956772 146.96103 
L 587.668986 147.321647 
L 588.270295 147.682265 
L 588.466712 147.862574 
L 588.546492 148.223191 
L 589.274908 148.764117 
L 590.458944 151.10813 
L 590.849114 151.468748 
L 591.523808 152.189983 
L 591.5776 152.370291 
L 592.083155 152.730909 
L 592.563819 153.632452 
L 592.935717 153.812761 
L 593.168347 154.894613 
L 593.328543 155.435539 
L 594.020957 156.337083 
L 594.079455 156.517392 
L 594.848764 157.058318 
L 595.03082 157.418935 
L 595.506841 157.599244 
L 596.082729 158.14017 
L 596.285894 158.320479 
L 596.868385 158.500787 
L 596.884705 158.681096 
L 597.056474 158.861405 
L 597.196379 159.402331 
L 597.264742 159.58264 
L 597.537649 159.762948 
L 597.541623 159.943257 
L 597.801679 160.123566 
L 597.810567 160.303874 
L 598.124051 160.484183 
L 598.40601 161.025109 
L 599.259841 161.926653 
L 599.27449 162.106962 
L 599.882495 162.28727 
L 600.738365 163.008505 
L 601.350355 163.188814 
L 602.110594 164.270666 
L 602.209922 164.450975 
L 602.805968 164.631283 
L 603.244183 164.991901 
L 603.839657 165.17221 
L 603.841972 165.352518 
L 604.766014 165.893444 
L 605.369717 166.254062 
L 606.410695 166.614679 
L 607.689011 166.794988 
L 608.028437 167.155605 
L 608.523335 167.516223 
L 608.613707 167.696531 
L 609.109648 167.87684 
L 609.346081 168.237458 
L 609.370165 168.598075 
L 609.968579 168.778384 
L 610.536999 169.499619 
L 610.909968 170.040545 
L 610.929344 170.401162 
L 611.221462 170.581471 
L 611.448051 171.843632 
L 612.199416 172.564867 
L 612.217785 172.925484 
L 613.254982 174.548262 
L 613.374283 174.90888 
L 613.735767 175.269497 
L 614.220931 175.449806 
L 614.416082 175.810423 
L 614.433119 176.171041 
L 614.893498 176.892276 
L 615.079295 177.252893 
L 615.434475 177.433202 
L 615.511997 177.61351 
L 615.730689 177.793819 
L 616.683885 178.154437 
L 617.014045 178.875671 
L 617.284311 179.05598 
L 618.143665 179.236289 
L 618.162005 179.416598 
L 618.605541 179.957524 
L 619.177975 180.137832 
L 619.490273 180.859067 
L 619.900246 181.039376 
L 619.98846 181.399993 
L 620.158152 181.580302 
L 620.967683 181.760611 
L 621.017279 181.940919 
L 621.423108 182.481846 
L 621.524961 182.842463 
L 621.662419 183.20308 
L 621.927402 183.563698 
L 622.263022 184.465241 
L 622.633606 184.64555 
L 622.785011 185.186476 
L 622.922717 185.366785 
L 623.479215 185.727402 
L 624.467156 185.907711 
L 624.566752 186.268328 
L 625.233134 186.448637 
L 625.317537 186.628946 
L 626.233247 186.809255 
L 626.343415 187.169872 
L 626.818344 187.350181 
L 626.883883 187.530489 
L 627.446024 187.891107 
L 627.502387 188.251724 
L 627.900286 188.432033 
L 627.908598 188.612342 
L 628.272939 188.972959 
L 628.321329 189.153268 
L 629.047063 189.694194 
L 629.716692 189.874503 
L 629.74847 190.415429 
L 630.498672 191.497281 
L 631.051528 191.67759 
L 631.201645 192.038207 
L 631.280364 192.218516 
L 631.929789 192.398824 
L 631.942002 192.579133 
L 632.527082 193.480677 
L 632.528346 193.660985 
L 632.768249 194.021603 
L 632.962496 194.38222 
L 633.002918 194.562529 
L 634.232537 195.82469 
L 634.346213 196.185307 
L 634.740688 196.545925 
L 634.775508 196.726233 
L 635.385709 197.26716 
L 635.50287 197.808086 
L 635.565595 197.988394 
L 636.369448 198.889938 
L 636.852122 199.070247 
L 636.956652 199.430864 
L 637.150722 199.791482 
L 637.192273 200.152099 
L 637.341182 200.332408 
L 638.403525 200.693025 
L 638.566541 201.774877 
L 638.68765 202.135495 
L 639.159011 202.315803 
L 639.592525 202.85673 
L 639.761523 203.037038 
L 639.882637 203.758273 
L 640.112425 204.118891 
L 640.281173 205.200743 
L 640.468234 205.56136 
L 640.580299 205.921978 
L 640.588479 206.102286 
L 641.388941 206.282595 
L 641.493182 206.823521 
L 641.917642 207.905373 
L 642.179385 208.626608 
L 642.296711 208.987226 
L 642.650761 209.347843 
L 642.988468 210.069078 
L 643.030921 210.610004 
L 643.198969 210.790313 
L 643.31705 211.331239 
L 643.461596 211.691856 
L 643.713386 212.5934 
L 644.586012 212.954017 
L 645.164479 213.855561 
L 646.043943 214.396487 
L 646.105204 214.937413 
L 646.313968 215.29803 
L 646.399133 215.838957 
L 646.522504 216.379883 
L 646.626133 217.101118 
L 646.94158 218.18297 
L 647.244631 219.445131 
L 647.429922 220.8876 
L 647.619141 221.248218 
L 647.683548 221.608835 
L 647.78046 221.969453 
L 647.861165 222.510379 
L 648.029846 222.870996 
L 648.120474 223.411922 
L 648.14862 223.952848 
L 648.383838 224.493775 
L 648.82453 224.674083 
L 648.870826 224.854392 
L 649.087064 225.034701 
L 649.169663 225.755936 
L 649.343435 226.116553 
L 649.387104 226.657479 
L 649.49945 226.837788 
L 649.837476 227.018096 
L 650.139064 228.460566 
L 650.265943 228.821184 
L 650.352463 229.36211 
L 650.938072 230.083344 
L 651.167505 231.706123 
L 651.321798 232.247049 
L 651.398407 232.968284 
L 651.574094 233.328901 
L 651.776633 233.50921 
L 651.851378 234.230445 
L 651.957372 234.591062 
L 652.072686 235.131988 
L 652.283013 235.672914 
L 652.418926 236.394149 
L 652.617625 236.754767 
L 652.823514 237.65631 
L 653.025356 238.377545 
L 653.307047 238.738162 
L 653.382661 239.639706 
L 653.574955 240.180632 
L 653.762145 241.082176 
L 653.788377 241.262484 
L 654.098196 241.623102 
L 654.130222 241.803411 
L 654.500487 242.164028 
L 654.612428 242.524645 
L 654.634726 242.704954 
L 655.043802 243.24588 
L 655.132493 243.606498 
L 655.455401 244.327732 
L 655.520461 245.048967 
L 656.070635 246.311128 
L 656.336415 247.032363 
L 656.536135 247.573289 
L 656.859347 248.294524 
L 657.25407 249.556685 
L 657.279357 249.917302 
L 657.488118 250.097611 
L 657.518832 250.27792 
L 658.071706 250.458229 
L 658.173711 251.179463 
L 658.957239 252.621933 
L 659.103275 253.343168 
L 659.658005 253.703785 
L 659.831476 254.785638 
L 659.949275 255.326564 
L 660.095139 255.687181 
L 660.142374 256.047798 
L 660.470768 256.228107 
L 660.558306 256.588725 
L 660.769147 257.129651 
L 661.029239 257.490268 
L 661.196152 257.850886 
L 661.358691 258.752429 
L 661.705354 260.735825 
L 661.855827 261.276751 
L 661.945898 261.997986 
L 662.134514 262.358603 
L 662.191635 262.719221 
L 662.506041 263.440456 
L 662.689721 264.16169 
L 663.171465 266.505704 
L 663.223931 266.866321 
L 663.381691 267.226938 
L 663.403292 267.407247 
L 663.605593 267.767864 
L 663.756636 268.669408 
L 664.099343 269.210334 
L 664.731842 271.19373 
L 664.810323 271.554347 
L 665.363007 274.078669 
L 665.366064 274.258978 
L 665.657886 274.439287 
L 665.768474 275.160522 
L 665.82663 276.422682 
L 665.958308 276.7833 
L 666.17368 277.684843 
L 666.312088 279.307622 
L 666.572073 282.733487 
L 666.707617 283.094105 
L 666.723433 283.274413 
L 667.047015 283.635031 
L 667.174664 283.995648 
L 667.423128 285.618427 
L 667.493254 286.159353 
L 667.606005 289.765527 
L 667.695511 290.126144 
L 667.832432 293.371701 
L 667.908267 294.092936 
L 668.357071 303.108371 
L 668.484229 303.468989 
L 668.535382 304.550841 
L 668.657041 306.714545 
L 668.657041 306.714545 
" clip-path="url(#pc7283f76f5)" style="fill: none; stroke: #ff7f0e; stroke-width: 1.5; stroke-linecap: square"/>
   </g>
   <g id="line2d_31">
    <path d="M 87.364621 15.166662 
L 100.52573 15.899194 
L 100.934059 16.631727 
L 105.362948 17.364259 
L 110.53683 18.096791 
L 116.55524 18.829324 
L 119.804739 19.561856 
L 121.15176 20.294389 
L 127.326382 21.759453 
L 127.971887 22.491986 
L 128.088519 23.224518 
L 128.711718 23.95705 
L 131.470878 24.689583 
L 131.658152 25.422115 
L 134.997423 26.154647 
L 136.478526 26.88718 
L 138.624805 27.619712 
L 138.844728 28.352245 
L 141.757976 29.084777 
L 142.125116 29.817309 
L 142.251212 30.549842 
L 142.538143 31.282374 
L 143.487249 32.014906 
L 144.973362 32.747439 
L 145.575491 33.479971 
L 146.971849 34.212504 
L 147.132119 34.945036 
L 148.454517 35.677568 
L 148.850487 36.410101 
L 150.067427 37.142633 
L 154.011839 37.875165 
L 154.526828 38.607698 
L 154.806511 39.34023 
L 154.8957 40.805295 
L 155.843614 41.537827 
L 157.161883 42.27036 
L 157.179248 43.002892 
L 158.502291 43.735424 
L 158.801815 44.467957 
L 159.336043 45.200489 
L 160.806409 45.933022 
L 161.672574 46.665554 
L 161.813223 47.398086 
L 163.452568 48.130619 
L 164.2262 48.863151 
L 166.640501 49.595683 
L 166.902731 50.328216 
L 166.925201 51.060748 
L 167.761986 51.79328 
L 167.812083 52.525813 
L 168.362667 53.258345 
L 171.718796 53.990878 
L 172.70855 54.72341 
L 173.489441 55.455942 
L 175.841576 56.188475 
L 176.035473 56.921007 
L 179.15747 57.653539 
L 180.390291 58.386072 
L 181.046086 59.118604 
L 181.71916 60.583669 
L 182.424672 61.316201 
L 183.579638 62.048734 
L 184.162759 62.781266 
L 185.041689 63.513798 
L 185.3921 64.246331 
L 186.345375 64.978863 
L 191.457538 65.711396 
L 193.350627 66.443928 
L 196.199612 67.908993 
L 196.238274 68.641525 
L 197.2158 69.374057 
L 197.726121 70.10659 
L 197.871608 70.839122 
L 198.700454 71.571654 
L 199.154118 72.304187 
L 200.131353 73.036719 
L 200.168662 74.501784 
L 200.936338 75.234316 
L 201.424369 75.966849 
L 201.678929 77.431913 
L 202.067878 78.164446 
L 202.187814 78.896978 
L 203.495067 79.629511 
L 204.327567 80.362043 
L 204.47204 81.094575 
L 204.501914 81.827108 
L 205.308725 83.292172 
L 206.080883 84.024705 
L 207.089908 85.48977 
L 207.825444 86.222302 
L 208.329089 87.687367 
L 209.003897 88.419899 
L 209.354301 89.152431 
L 209.960597 89.884964 
L 210.125221 90.617496 
L 210.411204 91.350028 
L 211.463772 92.082561 
L 211.624635 92.815093 
L 212.656211 93.547626 
L 212.999445 94.280158 
L 217.19094 95.01269 
L 217.534214 95.745223 
L 217.664659 96.477755 
L 218.253363 97.210287 
L 219.547901 97.94282 
L 219.685227 98.675352 
L 220.111348 99.407885 
L 220.733195 100.140417 
L 220.848373 100.872949 
L 221.159988 101.605482 
L 221.785028 102.338014 
L 222.834592 103.070546 
L 223.188731 103.803079 
L 223.319913 104.535611 
L 223.734635 105.268144 
L 223.761046 106.000676 
L 224.410459 106.733208 
L 225.23803 108.198273 
L 228.359503 108.930805 
L 228.391651 109.663338 
L 228.537616 110.39587 
L 229.638445 111.128402 
L 229.687197 111.860935 
L 230.775281 112.593467 
L 232.169985 114.058532 
L 235.260085 114.791064 
L 235.263243 115.523597 
L 235.831017 116.256129 
L 238.910299 116.988661 
L 239.990825 117.721194 
L 240.627243 118.453726 
L 240.876601 119.186259 
L 241.39755 119.918791 
L 242.748025 120.651323 
L 242.998713 121.383856 
L 243.025659 122.116388 
L 243.60523 123.581453 
L 244.862618 124.313985 
L 244.94294 125.046518 
L 246.095289 125.77905 
L 246.155315 126.511582 
L 246.379776 127.244115 
L 246.754484 127.976647 
L 247.437794 128.709179 
L 247.912584 129.441712 
L 248.789374 130.174244 
L 249.122755 130.906776 
L 250.273891 131.639309 
L 251.396754 133.104374 
L 252.563605 133.836906 
L 254.30652 135.301971 
L 255.120782 136.034503 
L 255.442953 136.767035 
L 257.198057 137.499568 
L 258.351055 138.2321 
L 258.466855 138.964633 
L 259.336313 139.697165 
L 259.931647 140.429697 
L 261.654723 141.16223 
L 261.91925 141.894762 
L 262.807052 142.627294 
L 263.746103 144.092359 
L 265.407925 144.824892 
L 266.15605 145.557424 
L 267.369841 146.289956 
L 267.728422 147.022489 
L 269.295011 147.755021 
L 269.711531 148.487553 
L 270.794175 149.220086 
L 270.852544 149.952618 
L 271.409599 150.685151 
L 271.470541 152.150215 
L 272.59171 152.882748 
L 275.3398 153.61528 
L 276.116646 154.347812 
L 276.697255 155.080345 
L 277.851033 155.812877 
L 277.991107 156.545409 
L 280.206813 157.277942 
L 280.357329 158.010474 
L 285.58856 158.743007 
L 286.075846 159.475539 
L 288.048791 160.208071 
L 288.057962 160.940604 
L 289.170788 162.405668 
L 289.284082 163.138201 
L 291.602302 163.870733 
L 292.13293 164.603266 
L 293.978982 165.335798 
L 295.345474 166.06833 
L 295.672085 166.800863 
L 295.911936 168.265927 
L 298.809853 168.99846 
L 301.203804 170.463525 
L 301.568874 171.196057 
L 302.112701 171.928589 
L 303.034945 172.661122 
L 303.095427 173.393654 
L 311.337642 177.056316 
L 312.327231 177.788848 
L 313.071586 178.521381 
L 313.501402 179.986445 
L 315.458784 181.45151 
L 318.746111 182.184042 
L 319.023086 182.916575 
L 321.490658 183.649107 
L 321.597131 184.38164 
L 323.10853 185.114172 
L 325.939725 185.846704 
L 326.799121 186.579237 
L 329.175644 187.311769 
L 332.253505 188.776834 
L 332.257188 189.509366 
L 334.216751 190.241899 
L 335.215024 190.974431 
L 335.581318 191.706963 
L 336.961254 192.439496 
L 339.193587 193.172028 
L 340.948246 193.90456 
L 345.961004 195.369625 
L 349.366475 196.102157 
L 349.406246 196.83469 
L 352.497116 197.567222 
L 353.703346 198.299755 
L 354.152054 199.764819 
L 354.395911 201.229884 
L 355.710366 201.962416 
L 358.425285 202.694949 
L 358.457734 204.160014 
L 361.269897 204.892546 
L 362.400107 205.625078 
L 365.301933 206.357611 
L 367.339956 207.090143 
L 377.756362 207.822675 
L 377.986504 208.555208 
L 378.048198 209.28774 
L 378.705316 210.020273 
L 379.906012 210.752805 
L 381.872527 211.485337 
L 382.572108 212.21787 
L 391.065267 212.950402 
L 398.174473 213.682934 
L 398.177358 214.415467 
L 401.297747 215.147999 
L 402.019342 215.880531 
L 404.105436 216.613064 
L 404.817625 217.345596 
L 406.90048 218.078129 
L 406.941031 218.810661 
L 412.165849 220.275726 
L 413.151479 221.008258 
L 413.261528 221.74079 
L 416.200078 222.473323 
L 417.626431 223.205855 
L 417.670475 223.938388 
L 425.752309 225.403452 
L 433.4615 227.601049 
L 434.620938 228.333582 
L 435.34326 229.066114 
L 436.241122 229.798647 
L 436.295884 230.531179 
L 439.030452 231.263711 
L 444.978969 231.996244 
L 446.124976 232.728776 
L 452.272413 233.461308 
L 452.735816 234.193841 
L 452.861778 234.926373 
L 457.627601 235.658906 
L 462.384214 237.856503 
L 463.554735 238.589035 
L 465.415279 239.321567 
L 465.50812 240.0541 
L 468.406509 241.519164 
L 473.680045 242.251697 
L 481.623269 242.984229 
L 486.617974 243.716762 
L 490.016201 244.449294 
L 490.133917 245.181826 
L 492.125956 246.646891 
L 495.990704 247.379423 
L 499.233722 248.844488 
L 501.893202 249.577021 
L 502.423342 250.309553 
L 503.230596 251.042085 
L 506.288244 251.774618 
L 506.372515 252.50715 
L 508.257198 253.239682 
L 511.649934 253.972215 
L 511.902304 254.704747 
L 513.987996 255.43728 
L 515.043352 256.169812 
L 523.790281 256.902344 
L 524.38265 257.634877 
L 527.560708 258.367409 
L 528.38676 259.099941 
L 530.019296 259.832474 
L 531.242554 260.565006 
L 531.434366 261.297538 
L 533.011175 262.030071 
L 537.690925 262.762603 
L 538.203194 263.495136 
L 539.602606 264.227668 
L 541.0071 265.692733 
L 541.088815 266.425265 
L 547.374011 267.157797 
L 548.057162 267.89033 
L 553.068502 268.622862 
L 555.400297 269.355395 
L 560.612036 270.087927 
L 563.53681 270.820459 
L 564.63618 271.552992 
L 565.50195 272.285524 
L 566.904688 273.750589 
L 571.347436 274.483121 
L 577.852631 275.215654 
L 581.955532 275.948186 
L 587.898766 276.680718 
L 590.287869 277.413251 
L 595.503731 278.145783 
L 600.55545 279.610848 
L 610.163322 280.34338 
L 611.221462 281.075912 
L 614.116654 282.540977 
L 614.417242 283.27351 
L 614.451469 284.006042 
L 618.499795 284.738574 
L 623.296085 285.471107 
L 626.456865 286.936171 
L 634.974199 287.668704 
L 635.170229 288.401236 
L 635.50287 289.133769 
L 637.122472 289.866301 
L 639.288835 290.598833 
L 642.845542 291.331366 
L 643.703276 292.063898 
L 646.662014 292.79643 
L 647.37322 293.528963 
L 649.313253 294.261495 
L 650.194143 294.994028 
L 652.772326 295.72656 
L 660.370052 296.459092 
L 661.566761 297.191625 
L 663.536941 297.924157 
L 665.952283 298.656689 
L 666.337248 299.389222 
L 666.570536 300.121754 
L 667.493452 300.854286 
L 667.771738 301.586819 
L 667.92517 303.051884 
L 668.219226 305.982013 
L 668.535382 306.714545 
L 668.535382 306.714545 
" clip-path="url(#pc7283f76f5)" style="fill: none; stroke: #2ca02c; stroke-width: 1.5; stroke-linecap: square"/>
   </g>
   <g id="line2d_32">
    <path d="M 589.529004 321.32 
L 589.529004 0 
" clip-path="url(#pc7283f76f5)" style="fill: none; stroke-dasharray: 5.55,2.4; stroke-dashoffset: 0; stroke: #000000; stroke-opacity: 0.5; stroke-width: 1.5"/>
   </g>
   <g id="patch_3">
    <path d="M 58.3 321.32 
L 58.3 0 
" style="fill: none; stroke: #000000; stroke-width: 0.8; stroke-linejoin: miter; stroke-linecap: square"/>
   </g>
   <g id="patch_4">
    <path d="M 697.721662 321.32 
L 697.721662 0 
" style="fill: none; stroke: #000000; stroke-width: 0.8; stroke-linejoin: miter; stroke-linecap: square"/>
   </g>
   <g id="patch_5">
    <path d="M 58.3 321.32 
L 697.721662 321.32 
" style="fill: none; stroke: #000000; stroke-width: 0.8; stroke-linejoin: miter; stroke-linecap: square"/>
   </g>
   <g id="patch_6">
    <path d="M 58.3 0 
L 697.721662 0 
" style="fill: none; stroke: #000000; stroke-width: 0.8; stroke-linejoin: miter; stroke-linecap: square"/>
   </g>
   <g id="text_16">
    <!-- One year ago -->
    <g transform="translate(586.041504 271.640896) rotate(-90) scale(0.16 -0.16)">
     <defs>
      <path id="NimbusRomNo9L-Reg-4f" d="M 2310 4326 
C 1088 4326 218 3411 218 2118 
C 218 1517 422 928 768 563 
C 1139 160 1709 -90 2272 -90 
C 3533 -90 4403 800 4403 2093 
C 4403 2726 4218 3277 3866 3654 
C 3462 4096 2925 4326 2310 4326 
z
M 2310 4096 
C 2605 4096 2899 3981 3130 3776 
C 3475 3462 3674 2861 3674 2099 
C 3674 1722 3590 1280 3462 947 
C 3405 787 3296 627 3149 480 
C 2925 256 2637 141 2298 141 
C 2003 141 1715 256 1485 454 
C 1158 749 947 1395 947 2106 
C 947 2758 1126 3379 1395 3680 
C 1645 3955 1958 4096 2310 4096 
z
" transform="scale(0.015625)"/>
      <path id="NimbusRomNo9L-Reg-6e" d="M 115 0 
L 1472 0 
L 1472 96 
C 1152 115 1050 198 1050 429 
L 1050 2227 
C 1350 2515 1498 2592 1709 2592 
C 2022 2592 2176 2394 2176 1971 
L 2176 634 
C 2163 218 2086 115 1773 96 
L 1773 0 
L 3104 0 
L 3104 96 
C 2790 128 2720 205 2714 518 
L 2714 1984 
C 2714 2586 2432 2944 1958 2944 
C 1664 2944 1466 2835 1030 2426 
L 1030 2931 
L 986 2944 
C 672 2829 454 2758 102 2656 
L 102 2547 
C 141 2566 205 2573 275 2573 
C 454 2573 512 2477 512 2163 
L 512 576 
C 506 198 435 115 115 96 
L 115 0 
z
" transform="scale(0.015625)"/>
      <path id="NimbusRomNo9L-Reg-79" d="M 3040 2880 
L 2176 2880 
L 2176 2784 
C 2381 2784 2483 2726 2483 2624 
C 2483 2598 2477 2560 2458 2515 
L 1837 749 
L 1101 2368 
C 1062 2458 1037 2547 1037 2611 
C 1037 2726 1133 2771 1408 2784 
L 1408 2880 
L 90 2880 
L 90 2790 
C 256 2765 365 2694 416 2586 
L 1146 1011 
C 1222 838 1229 832 1261 768 
C 1440 448 1542 211 1542 115 
C 1542 13 1395 -378 1286 -576 
C 1190 -736 1056 -858 966 -858 
C 928 -858 870 -845 800 -813 
C 685 -768 570 -742 467 -742 
C 314 -742 192 -864 192 -1024 
C 192 -1235 390 -1395 666 -1395 
C 1101 -1395 1395 -1043 1747 -115 
L 2733 2496 
C 2816 2701 2886 2765 3040 2784 
L 3040 2880 
z
" transform="scale(0.015625)"/>
      <path id="NimbusRomNo9L-Reg-67" d="M 3008 2483 
L 3008 2733 
L 2515 2733 
C 2381 2733 2291 2752 2163 2797 
L 2022 2848 
C 1850 2912 1677 2944 1510 2944 
C 915 2944 442 2490 442 1901 
C 442 1498 608 1254 1037 1043 
L 870 890 
C 736 762 659 691 640 666 
C 506 525 467 454 467 346 
C 467 205 538 134 806 6 
C 346 -326 179 -538 179 -774 
C 179 -1114 672 -1395 1286 -1395 
C 1766 -1395 2266 -1229 2598 -960 
C 2842 -762 2950 -557 2950 -314 
C 2950 83 2650 352 2176 371 
L 1350 410 
C 1005 422 851 480 851 582 
C 851 710 1062 934 1235 986 
C 1466 966 1587 954 1600 954 
C 1837 954 2093 1050 2291 1222 
C 2502 1402 2598 1626 2598 1946 
C 2598 2131 2566 2278 2477 2483 
L 3008 2483 
z
M 941 -13 
C 1158 -58 1664 -96 1978 -96 
C 2560 -96 2771 -179 2771 -410 
C 2771 -781 2285 -1030 1562 -1030 
C 992 -1030 627 -845 627 -563 
C 627 -416 685 -320 941 -13 
z
M 973 2163 
C 973 2541 1152 2765 1446 2765 
C 1645 2765 1811 2656 1914 2464 
C 2035 2240 2106 1952 2106 1696 
C 2106 1338 1926 1114 1632 1114 
C 1235 1114 973 1530 973 2144 
L 973 2163 
z
" transform="scale(0.015625)"/>
     </defs>
     <use xlink:href="#NimbusRomNo9L-Reg-4f"/>
     <use xlink:href="#NimbusRomNo9L-Reg-6e" transform="translate(72.199982 0)"/>
     <use xlink:href="#NimbusRomNo9L-Reg-65" transform="translate(122.199966 0)"/>
     <use xlink:href="#NimbusRomNo9L-Reg-20" transform="translate(166.59996 0)"/>
     <use xlink:href="#NimbusRomNo9L-Reg-79" transform="translate(191.599945 0)"/>
     <use xlink:href="#NimbusRomNo9L-Reg-65" transform="translate(241.59993 0)"/>
     <use xlink:href="#NimbusRomNo9L-Reg-61" transform="translate(285.999924 0)"/>
     <use xlink:href="#NimbusRomNo9L-Reg-72" transform="translate(330.399918 0)"/>
     <use xlink:href="#NimbusRomNo9L-Reg-20" transform="translate(363.699905 0)"/>
     <use xlink:href="#NimbusRomNo9L-Reg-61" transform="translate(388.69989 0)"/>
     <use xlink:href="#NimbusRomNo9L-Reg-67" transform="translate(433.099884 0)"/>
     <use xlink:href="#NimbusRomNo9L-Reg-6f" transform="translate(483.099869 0)"/>
    </g>
   </g>
   <g id="text_17">
    <g id="patch_7">
     <path d="M 588.098387 81.649725 
L 678.539012 81.649725 
Q 685.139012 81.649725 685.139012 75.049725 
L 685.139012 9.6396 
Q 685.139012 3.0396 678.539012 3.0396 
L 588.098387 3.0396 
Q 581.498387 3.0396 581.498387 9.6396 
L 581.498387 75.049725 
Q 581.498387 81.649725 588.098387 81.649725 
z
" style="fill: #ffffff; opacity: 0.8; stroke: #000000; stroke-linejoin: miter"/>
    </g>
    <!-- v1: 55.6% -->
    <g transform="translate(588.098387 24.664913) scale(0.22 -0.22)">
     <defs>
      <path id="NimbusRomNo9L-Reg-3a" d="M 870 2938 
C 678 2938 518 2778 518 2573 
C 518 2387 678 2227 864 2227 
C 1062 2227 1229 2381 1229 2573 
C 1229 2771 1062 2938 870 2938 
z
M 870 640 
C 678 640 518 480 518 275 
C 518 90 678 -70 864 -70 
C 1062 -70 1229 83 1229 275 
C 1229 474 1062 640 870 640 
z
" transform="scale(0.015625)"/>
     </defs>
     <use xlink:href="#NimbusRomNo9L-Reg-76"/>
     <use xlink:href="#NimbusRomNo9L-Reg-31" transform="translate(49.999985 0)"/>
     <use xlink:href="#NimbusRomNo9L-Reg-3a" transform="translate(99.999969 0)"/>
     <use xlink:href="#NimbusRomNo9L-Reg-20" transform="translate(127.799957 0)"/>
     <use xlink:href="#NimbusRomNo9L-Reg-35" transform="translate(152.799942 0)"/>
     <use xlink:href="#NimbusRomNo9L-Reg-35" transform="translate(202.799927 0)"/>
     <use xlink:href="#NimbusRomNo9L-Reg-2e" transform="translate(252.799911 0)"/>
     <use xlink:href="#NimbusRomNo9L-Reg-36" transform="translate(277.799896 0)"/>
     <use xlink:href="#NimbusRomNo9L-Reg-25" transform="translate(327.799881 0)"/>
    </g>
    <!-- : 53.9% -->
    <g transform="translate(598.899012 47.469975) scale(0.22 -0.22)">
     <defs>
      <path id="NimbusRomNo9L-Reg-3b2" d="M 1005 320 
C 1261 45 1440 -45 1722 -45 
C 2413 -45 2963 621 2963 1453 
C 2963 2048 2701 2509 2221 2752 
C 2586 3008 2752 3264 2752 3578 
C 2752 4000 2406 4282 1888 4282 
C 1408 4282 1018 4083 762 3712 
C 557 3411 499 3149 499 2470 
L 499 -1146 
L 1005 -1146 
L 1005 320 
z
M 1005 2586 
C 1005 3085 1043 3386 1126 3584 
C 1261 3885 1491 4058 1760 4058 
C 2080 4058 2310 3814 2310 3482 
C 2310 3232 2246 3091 2010 2810 
C 1901 2842 1837 2854 1747 2854 
C 1466 2854 1274 2752 1274 2598 
C 1274 2509 1363 2432 1485 2432 
C 1626 2432 1779 2483 2010 2611 
C 2323 2259 2445 1914 2445 1402 
C 2445 691 2106 186 1632 186 
C 1395 186 1242 275 1005 563 
L 1005 2586 
z
" transform="scale(0.015625)"/>
     </defs>
     <use xlink:href="#NimbusRomNo9L-Reg-3b2"/>
     <use xlink:href="#NimbusRomNo9L-Reg-3a" transform="translate(50.899994 0)"/>
     <use xlink:href="#NimbusRomNo9L-Reg-20" transform="translate(78.699982 0)"/>
     <use xlink:href="#NimbusRomNo9L-Reg-35" transform="translate(103.699966 0)"/>
     <use xlink:href="#NimbusRomNo9L-Reg-33" transform="translate(153.699951 0)"/>
     <use xlink:href="#NimbusRomNo9L-Reg-2e" transform="translate(203.699936 0)"/>
     <use xlink:href="#NimbusRomNo9L-Reg-39" transform="translate(228.699921 0)"/>
     <use xlink:href="#NimbusRomNo9L-Reg-25" transform="translate(278.699905 0)"/>
    </g>
    <!-- : 10.3% -->
    <g transform="translate(598.569012 70.275038) scale(0.22 -0.22)">
     <defs>
      <path id="NimbusRomNo9L-Reg-3b1" d="M 3322 2893 
L 2669 2899 
L 2419 2061 
C 2323 2368 2291 2458 2234 2573 
C 2074 2867 1830 3021 1517 3021 
C 781 3021 186 2246 186 1293 
C 186 474 646 -102 1306 -102 
C 1786 -102 2150 122 2419 582 
C 2458 339 2502 211 2605 64 
C 2675 -45 2746 -102 2790 -102 
C 2810 -102 2842 -90 2886 -70 
L 3469 192 
L 3469 422 
C 3360 378 3309 365 3245 365 
C 2989 365 2803 602 2694 1082 
L 3322 2893 
z
M 2138 1197 
C 1901 448 1664 96 1402 96 
C 1075 96 851 608 851 1357 
C 851 2240 1114 2784 1542 2784 
C 1728 2784 1875 2688 2003 2470 
C 2093 2323 2144 2163 2278 1664 
L 2138 1197 
z
" transform="scale(0.015625)"/>
     </defs>
     <use xlink:href="#NimbusRomNo9L-Reg-3b1"/>
     <use xlink:href="#NimbusRomNo9L-Reg-3a" transform="translate(52.399994 0)"/>
     <use xlink:href="#NimbusRomNo9L-Reg-20" transform="translate(80.199982 0)"/>
     <use xlink:href="#NimbusRomNo9L-Reg-31" transform="translate(105.199966 0)"/>
     <use xlink:href="#NimbusRomNo9L-Reg-30" transform="translate(155.199951 0)"/>
     <use xlink:href="#NimbusRomNo9L-Reg-2e" transform="translate(205.199936 0)"/>
     <use xlink:href="#NimbusRomNo9L-Reg-33" transform="translate(230.199921 0)"/>
     <use xlink:href="#NimbusRomNo9L-Reg-25" transform="translate(280.199905 0)"/>
    </g>
   </g>
   <g id="legend_1">
    <g id="patch_8">
     <path d="M 73.7 310.32 
L 223.434063 310.32 
Q 227.834063 310.32 227.834063 305.92 
L 227.834063 214.595938 
Q 227.834063 210.195938 223.434063 210.195938 
L 73.7 210.195938 
Q 69.3 210.195938 69.3 214.595938 
L 69.3 305.92 
Q 69.3 310.32 73.7 310.32 
z
" style="fill: #ffffff; opacity: 0.8; stroke: #cccccc; stroke-linejoin: miter"/>
    </g>
    <g id="line2d_33">
     <path d="M 78.1 226.695938 
L 100.1 226.695938 
L 122.1 226.695938 
" style="fill: none; stroke: #1f77b4; stroke-width: 1.5; stroke-linecap: square"/>
    </g>
    <g id="text_18">
     <!-- v1 -->
     <g transform="translate(139.7 234.395938) scale(0.22 -0.22)">
      <use xlink:href="#NimbusRomNo9L-Reg-76"/>
      <use xlink:href="#NimbusRomNo9L-Reg-31" transform="translate(49.999985 0)"/>
     </g>
    </g>
    <g id="line2d_34">
     <path d="M 78.1 257.870625 
L 100.1 257.870625 
L 122.1 257.870625 
" style="fill: none; stroke: #ff7f0e; stroke-width: 1.5; stroke-linecap: square"/>
    </g>
    <g id="text_19">
     <!-- beta () -->
     <g transform="translate(139.7 265.570625) scale(0.22 -0.22)">
      <defs>
       <path id="NimbusRomNo9L-Reg-62" d="M 979 4358 
L 947 4371 
C 678 4275 506 4224 205 4141 
L 19 4090 
L 19 3987 
C 58 3994 83 3994 128 3994 
C 390 3994 442 3936 442 3667 
L 442 346 
C 442 147 979 -64 1498 -64 
C 2342 -64 2995 640 2995 1555 
C 2995 2349 2509 2944 1869 2944 
C 1478 2944 1107 2720 979 2400 
L 979 4358 
z
M 979 2061 
C 979 2310 1280 2541 1613 2541 
C 1792 2541 1952 2477 2086 2355 
C 2291 2157 2432 1722 2432 1261 
C 2432 550 2125 141 1600 141 
C 1267 141 979 282 979 448 
L 979 2061 
z
" transform="scale(0.015625)"/>
      </defs>
      <use xlink:href="#NimbusRomNo9L-Reg-62"/>
      <use xlink:href="#NimbusRomNo9L-Reg-65" transform="translate(49.999985 0)"/>
      <use xlink:href="#NimbusRomNo9L-Reg-74" transform="translate(94.399979 0)"/>
      <use xlink:href="#NimbusRomNo9L-Reg-61" transform="translate(122.199966 0)"/>
      <use xlink:href="#NimbusRomNo9L-Reg-20" transform="translate(166.59996 0)"/>
      <use xlink:href="#NimbusRomNo9L-Reg-28" transform="translate(191.599945 0)"/>
      <use xlink:href="#NimbusRomNo9L-Reg-3b2" transform="translate(224.899933 0)"/>
      <use xlink:href="#NimbusRomNo9L-Reg-29" transform="translate(275.799927 0)"/>
     </g>
    </g>
    <g id="line2d_35">
     <path d="M 78.1 289.045313 
L 100.1 289.045313 
L 122.1 289.045313 
" style="fill: none; stroke: #2ca02c; stroke-width: 1.5; stroke-linecap: square"/>
    </g>
    <g id="text_20">
     <!-- alpha () -->
     <g transform="translate(139.7 296.745313) scale(0.22 -0.22)">
      <defs>
       <path id="NimbusRomNo9L-Reg-6c" d="M 134 0 
L 1645 0 
L 1645 96 
C 1242 115 1171 179 1165 538 
L 1165 4358 
L 1139 4371 
C 806 4262 563 4198 122 4090 
L 122 3987 
L 160 3987 
C 230 3994 307 4000 358 4000 
C 563 4000 627 3910 627 3610 
L 627 557 
C 621 211 531 122 134 96 
L 134 0 
z
" transform="scale(0.015625)"/>
       <path id="NimbusRomNo9L-Reg-68" d="M 3117 96 
C 2771 154 2739 198 2733 653 
L 2733 1926 
C 2733 2598 2470 2944 1946 2944 
C 1568 2944 1299 2790 1005 2406 
L 1005 4352 
L 973 4371 
C 755 4294 595 4243 237 4141 
L 64 4090 
L 64 3987 
C 90 3994 109 3994 141 3994 
C 416 3994 467 3942 467 3667 
L 467 653 
C 454 192 422 141 58 96 
L 58 0 
L 1440 0 
L 1440 96 
C 1069 128 1018 198 1005 653 
L 1005 2195 
C 1274 2490 1466 2598 1715 2598 
C 2035 2598 2195 2368 2195 1920 
L 2195 653 
C 2182 198 2125 128 1760 96 
L 1760 0 
L 3117 0 
L 3117 96 
z
" transform="scale(0.015625)"/>
      </defs>
      <use xlink:href="#NimbusRomNo9L-Reg-61"/>
      <use xlink:href="#NimbusRomNo9L-Reg-6c" transform="translate(44.399994 0)"/>
      <use xlink:href="#NimbusRomNo9L-Reg-70" transform="translate(72.199982 0)"/>
      <use xlink:href="#NimbusRomNo9L-Reg-68" transform="translate(122.199966 0)"/>
      <use xlink:href="#NimbusRomNo9L-Reg-61" transform="translate(172.199951 0)"/>
      <use xlink:href="#NimbusRomNo9L-Reg-20" transform="translate(216.599945 0)"/>
      <use xlink:href="#NimbusRomNo9L-Reg-28" transform="translate(241.59993 0)"/>
      <use xlink:href="#NimbusRomNo9L-Reg-3b1" transform="translate(274.899918 0)"/>
      <use xlink:href="#NimbusRomNo9L-Reg-29" transform="translate(327.299911 0)"/>
     </g>
    </g>
   </g>
  </g>
 </g>
 <defs>
  <clipPath id="pc7283f76f5">
   <rect x="58.3" y="0" width="639.421662" height="321.32"/>
  </clipPath>
 </defs>
</svg>
